G04 #@! TF.GenerationSoftware,KiCad,Pcbnew,5.1.5-52549c5~86~ubuntu19.10.1*
G04 #@! TF.CreationDate,2020-04-01T18:08:25+02:00*
G04 #@! TF.ProjectId,KabeltesterMEGA,4b616265-6c74-4657-9374-65724d454741,rev?*
G04 #@! TF.SameCoordinates,Original*
G04 #@! TF.FileFunction,Legend,Bot*
G04 #@! TF.FilePolarity,Positive*
%FSLAX46Y46*%
G04 Gerber Fmt 4.6, Leading zero omitted, Abs format (unit mm)*
G04 Created by KiCad (PCBNEW 5.1.5-52549c5~86~ubuntu19.10.1) date 2020-04-01 18:08:25*
%MOMM*%
%LPD*%
G04 APERTURE LIST*
%ADD10C,0.200000*%
%ADD11C,0.150000*%
%ADD12C,0.100000*%
G04 APERTURE END LIST*
D10*
X191813190Y-140731761D02*
X191813190Y-138731761D01*
X190956047Y-140731761D02*
X190956047Y-139684142D01*
X191051285Y-139493666D01*
X191241761Y-139398428D01*
X191527476Y-139398428D01*
X191717952Y-139493666D01*
X191813190Y-139588904D01*
X190289380Y-139398428D02*
X189527476Y-139398428D01*
X190003666Y-138731761D02*
X190003666Y-140446047D01*
X189908428Y-140636523D01*
X189717952Y-140731761D01*
X189527476Y-140731761D01*
X189146523Y-139398428D02*
X188384619Y-139398428D01*
X188860809Y-138731761D02*
X188860809Y-140446047D01*
X188765571Y-140636523D01*
X188575095Y-140731761D01*
X188384619Y-140731761D01*
X187717952Y-139398428D02*
X187717952Y-141398428D01*
X187717952Y-139493666D02*
X187527476Y-139398428D01*
X187146523Y-139398428D01*
X186956047Y-139493666D01*
X186860809Y-139588904D01*
X186765571Y-139779380D01*
X186765571Y-140350809D01*
X186860809Y-140541285D01*
X186956047Y-140636523D01*
X187146523Y-140731761D01*
X187527476Y-140731761D01*
X187717952Y-140636523D01*
X186003666Y-140636523D02*
X185813190Y-140731761D01*
X185432238Y-140731761D01*
X185241761Y-140636523D01*
X185146523Y-140446047D01*
X185146523Y-140350809D01*
X185241761Y-140160333D01*
X185432238Y-140065095D01*
X185717952Y-140065095D01*
X185908428Y-139969857D01*
X186003666Y-139779380D01*
X186003666Y-139684142D01*
X185908428Y-139493666D01*
X185717952Y-139398428D01*
X185432238Y-139398428D01*
X185241761Y-139493666D01*
X184289380Y-140541285D02*
X184194142Y-140636523D01*
X184289380Y-140731761D01*
X184384619Y-140636523D01*
X184289380Y-140541285D01*
X184289380Y-140731761D01*
X184289380Y-139493666D02*
X184194142Y-139588904D01*
X184289380Y-139684142D01*
X184384619Y-139588904D01*
X184289380Y-139493666D01*
X184289380Y-139684142D01*
X181908428Y-138636523D02*
X183622714Y-141207952D01*
X179813190Y-138636523D02*
X181527476Y-141207952D01*
X178289380Y-139398428D02*
X178289380Y-141017476D01*
X178384619Y-141207952D01*
X178479857Y-141303190D01*
X178670333Y-141398428D01*
X178956047Y-141398428D01*
X179146523Y-141303190D01*
X178289380Y-140636523D02*
X178479857Y-140731761D01*
X178860809Y-140731761D01*
X179051285Y-140636523D01*
X179146523Y-140541285D01*
X179241761Y-140350809D01*
X179241761Y-139779380D01*
X179146523Y-139588904D01*
X179051285Y-139493666D01*
X178860809Y-139398428D01*
X178479857Y-139398428D01*
X178289380Y-139493666D01*
X177337000Y-140731761D02*
X177337000Y-139398428D01*
X177337000Y-138731761D02*
X177432238Y-138827000D01*
X177337000Y-138922238D01*
X177241761Y-138827000D01*
X177337000Y-138731761D01*
X177337000Y-138922238D01*
X176670333Y-139398428D02*
X175908428Y-139398428D01*
X176384619Y-138731761D02*
X176384619Y-140446047D01*
X176289380Y-140636523D01*
X176098904Y-140731761D01*
X175908428Y-140731761D01*
X175241761Y-140731761D02*
X175241761Y-138731761D01*
X174384619Y-140731761D02*
X174384619Y-139684142D01*
X174479857Y-139493666D01*
X174670333Y-139398428D01*
X174956047Y-139398428D01*
X175146523Y-139493666D01*
X175241761Y-139588904D01*
X172575095Y-139398428D02*
X172575095Y-140731761D01*
X173432238Y-139398428D02*
X173432238Y-140446047D01*
X173337000Y-140636523D01*
X173146523Y-140731761D01*
X172860809Y-140731761D01*
X172670333Y-140636523D01*
X172575095Y-140541285D01*
X171622714Y-140731761D02*
X171622714Y-138731761D01*
X171622714Y-139493666D02*
X171432238Y-139398428D01*
X171051285Y-139398428D01*
X170860809Y-139493666D01*
X170765571Y-139588904D01*
X170670333Y-139779380D01*
X170670333Y-140350809D01*
X170765571Y-140541285D01*
X170860809Y-140636523D01*
X171051285Y-140731761D01*
X171432238Y-140731761D01*
X171622714Y-140636523D01*
X169813190Y-140541285D02*
X169717952Y-140636523D01*
X169813190Y-140731761D01*
X169908428Y-140636523D01*
X169813190Y-140541285D01*
X169813190Y-140731761D01*
X168003666Y-140636523D02*
X168194142Y-140731761D01*
X168575095Y-140731761D01*
X168765571Y-140636523D01*
X168860809Y-140541285D01*
X168956047Y-140350809D01*
X168956047Y-139779380D01*
X168860809Y-139588904D01*
X168765571Y-139493666D01*
X168575095Y-139398428D01*
X168194142Y-139398428D01*
X168003666Y-139493666D01*
X166860809Y-140731761D02*
X167051285Y-140636523D01*
X167146523Y-140541285D01*
X167241761Y-140350809D01*
X167241761Y-139779380D01*
X167146523Y-139588904D01*
X167051285Y-139493666D01*
X166860809Y-139398428D01*
X166575095Y-139398428D01*
X166384619Y-139493666D01*
X166289380Y-139588904D01*
X166194142Y-139779380D01*
X166194142Y-140350809D01*
X166289380Y-140541285D01*
X166384619Y-140636523D01*
X166575095Y-140731761D01*
X166860809Y-140731761D01*
X165337000Y-140731761D02*
X165337000Y-139398428D01*
X165337000Y-139588904D02*
X165241761Y-139493666D01*
X165051285Y-139398428D01*
X164765571Y-139398428D01*
X164575095Y-139493666D01*
X164479857Y-139684142D01*
X164479857Y-140731761D01*
X164479857Y-139684142D02*
X164384619Y-139493666D01*
X164194142Y-139398428D01*
X163908428Y-139398428D01*
X163717952Y-139493666D01*
X163622714Y-139684142D01*
X163622714Y-140731761D01*
X161241761Y-138636523D02*
X162956047Y-141207952D01*
X160289380Y-140731761D02*
X160479857Y-140636523D01*
X160575095Y-140541285D01*
X160670333Y-140350809D01*
X160670333Y-139779380D01*
X160575095Y-139588904D01*
X160479857Y-139493666D01*
X160289380Y-139398428D01*
X160003666Y-139398428D01*
X159813190Y-139493666D01*
X159717952Y-139588904D01*
X159622714Y-139779380D01*
X159622714Y-140350809D01*
X159717952Y-140541285D01*
X159813190Y-140636523D01*
X160003666Y-140731761D01*
X160289380Y-140731761D01*
X158956047Y-139398428D02*
X158479857Y-140731761D01*
X158003666Y-139398428D02*
X158479857Y-140731761D01*
X158670333Y-141207952D01*
X158765571Y-141303190D01*
X158956047Y-141398428D01*
X157432238Y-139398428D02*
X156956047Y-140731761D01*
X156479857Y-139398428D01*
X155717952Y-140731761D02*
X155717952Y-139398428D01*
X155717952Y-138731761D02*
X155813190Y-138827000D01*
X155717952Y-138922238D01*
X155622714Y-138827000D01*
X155717952Y-138731761D01*
X155717952Y-138922238D01*
X154765571Y-139398428D02*
X154765571Y-140731761D01*
X154765571Y-139588904D02*
X154670333Y-139493666D01*
X154479857Y-139398428D01*
X154194142Y-139398428D01*
X154003666Y-139493666D01*
X153908428Y-139684142D01*
X153908428Y-140731761D01*
X152098904Y-140731761D02*
X152098904Y-138731761D01*
X152098904Y-140636523D02*
X152289380Y-140731761D01*
X152670333Y-140731761D01*
X152860809Y-140636523D01*
X152956047Y-140541285D01*
X153051285Y-140350809D01*
X153051285Y-139779380D01*
X152956047Y-139588904D01*
X152860809Y-139493666D01*
X152670333Y-139398428D01*
X152289380Y-139398428D01*
X152098904Y-139493666D01*
X151241761Y-140636523D02*
X151051285Y-140731761D01*
X150670333Y-140731761D01*
X150479857Y-140636523D01*
X150384619Y-140446047D01*
X150384619Y-140350809D01*
X150479857Y-140160333D01*
X150670333Y-140065095D01*
X150956047Y-140065095D01*
X151146523Y-139969857D01*
X151241761Y-139779380D01*
X151241761Y-139684142D01*
X151146523Y-139493666D01*
X150956047Y-139398428D01*
X150670333Y-139398428D01*
X150479857Y-139493666D01*
X149527476Y-140731761D02*
X149527476Y-138731761D01*
X149337000Y-139969857D02*
X148765571Y-140731761D01*
X148765571Y-139398428D02*
X149527476Y-140160333D01*
X147051285Y-140731761D02*
X147051285Y-139684142D01*
X147146523Y-139493666D01*
X147337000Y-139398428D01*
X147717952Y-139398428D01*
X147908428Y-139493666D01*
X147051285Y-140636523D02*
X147241761Y-140731761D01*
X147717952Y-140731761D01*
X147908428Y-140636523D01*
X148003666Y-140446047D01*
X148003666Y-140255571D01*
X147908428Y-140065095D01*
X147717952Y-139969857D01*
X147241761Y-139969857D01*
X147051285Y-139874619D01*
X145241761Y-140731761D02*
X145241761Y-139684142D01*
X145337000Y-139493666D01*
X145527476Y-139398428D01*
X145908428Y-139398428D01*
X146098904Y-139493666D01*
X145241761Y-140636523D02*
X145432238Y-140731761D01*
X145908428Y-140731761D01*
X146098904Y-140636523D01*
X146194142Y-140446047D01*
X146194142Y-140255571D01*
X146098904Y-140065095D01*
X145908428Y-139969857D01*
X145432238Y-139969857D01*
X145241761Y-139874619D01*
X143432238Y-140731761D02*
X143432238Y-138731761D01*
X143432238Y-140636523D02*
X143622714Y-140731761D01*
X144003666Y-140731761D01*
X144194142Y-140636523D01*
X144289380Y-140541285D01*
X144384619Y-140350809D01*
X144384619Y-139779380D01*
X144289380Y-139588904D01*
X144194142Y-139493666D01*
X144003666Y-139398428D01*
X143622714Y-139398428D01*
X143432238Y-139493666D01*
X141717952Y-140636523D02*
X141908428Y-140731761D01*
X142289380Y-140731761D01*
X142479857Y-140636523D01*
X142575095Y-140446047D01*
X142575095Y-139684142D01*
X142479857Y-139493666D01*
X142289380Y-139398428D01*
X141908428Y-139398428D01*
X141717952Y-139493666D01*
X141622714Y-139684142D01*
X141622714Y-139874619D01*
X142575095Y-140065095D01*
X140765571Y-139398428D02*
X140765571Y-140731761D01*
X140765571Y-139588904D02*
X140670333Y-139493666D01*
X140479857Y-139398428D01*
X140194142Y-139398428D01*
X140003666Y-139493666D01*
X139908428Y-139684142D01*
X139908428Y-140731761D01*
X137527476Y-138636523D02*
X139241761Y-141207952D01*
X135717952Y-140541285D02*
X135813190Y-140636523D01*
X136098904Y-140731761D01*
X136289380Y-140731761D01*
X136575095Y-140636523D01*
X136765571Y-140446047D01*
X136860809Y-140255571D01*
X136956047Y-139874619D01*
X136956047Y-139588904D01*
X136860809Y-139207952D01*
X136765571Y-139017476D01*
X136575095Y-138827000D01*
X136289380Y-138731761D01*
X136098904Y-138731761D01*
X135813190Y-138827000D01*
X135717952Y-138922238D01*
X134003666Y-140731761D02*
X134003666Y-139684142D01*
X134098904Y-139493666D01*
X134289380Y-139398428D01*
X134670333Y-139398428D01*
X134860809Y-139493666D01*
X134003666Y-140636523D02*
X134194142Y-140731761D01*
X134670333Y-140731761D01*
X134860809Y-140636523D01*
X134956047Y-140446047D01*
X134956047Y-140255571D01*
X134860809Y-140065095D01*
X134670333Y-139969857D01*
X134194142Y-139969857D01*
X134003666Y-139874619D01*
X133051285Y-140731761D02*
X133051285Y-138731761D01*
X133051285Y-139493666D02*
X132860809Y-139398428D01*
X132479857Y-139398428D01*
X132289380Y-139493666D01*
X132194142Y-139588904D01*
X132098904Y-139779380D01*
X132098904Y-140350809D01*
X132194142Y-140541285D01*
X132289380Y-140636523D01*
X132479857Y-140731761D01*
X132860809Y-140731761D01*
X133051285Y-140636523D01*
X130956047Y-140731761D02*
X131146523Y-140636523D01*
X131241761Y-140446047D01*
X131241761Y-138731761D01*
X129432238Y-140636523D02*
X129622714Y-140731761D01*
X130003666Y-140731761D01*
X130194142Y-140636523D01*
X130289380Y-140446047D01*
X130289380Y-139684142D01*
X130194142Y-139493666D01*
X130003666Y-139398428D01*
X129622714Y-139398428D01*
X129432238Y-139493666D01*
X129337000Y-139684142D01*
X129337000Y-139874619D01*
X130289380Y-140065095D01*
X128765571Y-139398428D02*
X128003666Y-139398428D01*
X128479857Y-138731761D02*
X128479857Y-140446047D01*
X128384619Y-140636523D01*
X128194142Y-140731761D01*
X128003666Y-140731761D01*
X126575095Y-140636523D02*
X126765571Y-140731761D01*
X127146523Y-140731761D01*
X127337000Y-140636523D01*
X127432238Y-140446047D01*
X127432238Y-139684142D01*
X127337000Y-139493666D01*
X127146523Y-139398428D01*
X126765571Y-139398428D01*
X126575095Y-139493666D01*
X126479857Y-139684142D01*
X126479857Y-139874619D01*
X127432238Y-140065095D01*
X125717952Y-140636523D02*
X125527476Y-140731761D01*
X125146523Y-140731761D01*
X124956047Y-140636523D01*
X124860809Y-140446047D01*
X124860809Y-140350809D01*
X124956047Y-140160333D01*
X125146523Y-140065095D01*
X125432238Y-140065095D01*
X125622714Y-139969857D01*
X125717952Y-139779380D01*
X125717952Y-139684142D01*
X125622714Y-139493666D01*
X125432238Y-139398428D01*
X125146523Y-139398428D01*
X124956047Y-139493666D01*
X124289380Y-139398428D02*
X123527476Y-139398428D01*
X124003666Y-138731761D02*
X124003666Y-140446047D01*
X123908428Y-140636523D01*
X123717952Y-140731761D01*
X123527476Y-140731761D01*
X122098904Y-140636523D02*
X122289380Y-140731761D01*
X122670333Y-140731761D01*
X122860809Y-140636523D01*
X122956047Y-140446047D01*
X122956047Y-139684142D01*
X122860809Y-139493666D01*
X122670333Y-139398428D01*
X122289380Y-139398428D01*
X122098904Y-139493666D01*
X122003666Y-139684142D01*
X122003666Y-139874619D01*
X122956047Y-140065095D01*
X121146523Y-140731761D02*
X121146523Y-139398428D01*
X121146523Y-139779380D02*
X121051285Y-139588904D01*
X120956047Y-139493666D01*
X120765571Y-139398428D01*
X120575095Y-139398428D01*
D11*
X191357000Y-137179857D02*
X191857000Y-137179857D01*
X191857000Y-137965571D02*
X191857000Y-136465571D01*
X191142714Y-136465571D01*
X190357000Y-137965571D02*
X190499857Y-137894142D01*
X190571285Y-137822714D01*
X190642714Y-137679857D01*
X190642714Y-137251285D01*
X190571285Y-137108428D01*
X190499857Y-137037000D01*
X190357000Y-136965571D01*
X190142714Y-136965571D01*
X189999857Y-137037000D01*
X189928428Y-137108428D01*
X189857000Y-137251285D01*
X189857000Y-137679857D01*
X189928428Y-137822714D01*
X189999857Y-137894142D01*
X190142714Y-137965571D01*
X190357000Y-137965571D01*
X189214142Y-137965571D02*
X189214142Y-136965571D01*
X189214142Y-137251285D02*
X189142714Y-137108428D01*
X189071285Y-137037000D01*
X188928428Y-136965571D01*
X188785571Y-136965571D01*
X187214142Y-137894142D02*
X187071285Y-137965571D01*
X186785571Y-137965571D01*
X186642714Y-137894142D01*
X186571285Y-137751285D01*
X186571285Y-137679857D01*
X186642714Y-137537000D01*
X186785571Y-137465571D01*
X186999857Y-137465571D01*
X187142714Y-137394142D01*
X187214142Y-137251285D01*
X187214142Y-137179857D01*
X187142714Y-137037000D01*
X186999857Y-136965571D01*
X186785571Y-136965571D01*
X186642714Y-137037000D01*
X185285571Y-137894142D02*
X185428428Y-137965571D01*
X185714142Y-137965571D01*
X185857000Y-137894142D01*
X185928428Y-137822714D01*
X185999857Y-137679857D01*
X185999857Y-137251285D01*
X185928428Y-137108428D01*
X185857000Y-137037000D01*
X185714142Y-136965571D01*
X185428428Y-136965571D01*
X185285571Y-137037000D01*
X184642714Y-137965571D02*
X184642714Y-136465571D01*
X183999857Y-137965571D02*
X183999857Y-137179857D01*
X184071285Y-137037000D01*
X184214142Y-136965571D01*
X184428428Y-136965571D01*
X184571285Y-137037000D01*
X184642714Y-137108428D01*
X182714142Y-137894142D02*
X182857000Y-137965571D01*
X183142714Y-137965571D01*
X183285571Y-137894142D01*
X183357000Y-137751285D01*
X183357000Y-137179857D01*
X183285571Y-137037000D01*
X183142714Y-136965571D01*
X182857000Y-136965571D01*
X182714142Y-137037000D01*
X182642714Y-137179857D01*
X182642714Y-137322714D01*
X183357000Y-137465571D01*
X181999857Y-137965571D02*
X181999857Y-136965571D01*
X181999857Y-137108428D02*
X181928428Y-137037000D01*
X181785571Y-136965571D01*
X181571285Y-136965571D01*
X181428428Y-137037000D01*
X181357000Y-137179857D01*
X181357000Y-137965571D01*
X181357000Y-137179857D02*
X181285571Y-137037000D01*
X181142714Y-136965571D01*
X180928428Y-136965571D01*
X180785571Y-137037000D01*
X180714142Y-137179857D01*
X180714142Y-137965571D01*
X179357000Y-137965571D02*
X179357000Y-137179857D01*
X179428428Y-137037000D01*
X179571285Y-136965571D01*
X179857000Y-136965571D01*
X179999857Y-137037000D01*
X179357000Y-137894142D02*
X179499857Y-137965571D01*
X179857000Y-137965571D01*
X179999857Y-137894142D01*
X180071285Y-137751285D01*
X180071285Y-137608428D01*
X179999857Y-137465571D01*
X179857000Y-137394142D01*
X179499857Y-137394142D01*
X179357000Y-137322714D01*
X178857000Y-136965571D02*
X178285571Y-136965571D01*
X178642714Y-136465571D02*
X178642714Y-137751285D01*
X178571285Y-137894142D01*
X178428428Y-137965571D01*
X178285571Y-137965571D01*
X177785571Y-137965571D02*
X177785571Y-136965571D01*
X177785571Y-136465571D02*
X177857000Y-136537000D01*
X177785571Y-136608428D01*
X177714142Y-136537000D01*
X177785571Y-136465571D01*
X177785571Y-136608428D01*
X176428428Y-137894142D02*
X176571285Y-137965571D01*
X176857000Y-137965571D01*
X176999857Y-137894142D01*
X177071285Y-137822714D01*
X177142714Y-137679857D01*
X177142714Y-137251285D01*
X177071285Y-137108428D01*
X176999857Y-137037000D01*
X176857000Y-136965571D01*
X176571285Y-136965571D01*
X176428428Y-137037000D01*
X175857000Y-137894142D02*
X175714142Y-137965571D01*
X175428428Y-137965571D01*
X175285571Y-137894142D01*
X175214142Y-137751285D01*
X175214142Y-137679857D01*
X175285571Y-137537000D01*
X175428428Y-137465571D01*
X175642714Y-137465571D01*
X175785571Y-137394142D01*
X175857000Y-137251285D01*
X175857000Y-137179857D01*
X175785571Y-137037000D01*
X175642714Y-136965571D01*
X175428428Y-136965571D01*
X175285571Y-137037000D01*
X174499857Y-137894142D02*
X174499857Y-137965571D01*
X174571285Y-138108428D01*
X174642714Y-138179857D01*
X172071285Y-137894142D02*
X172214142Y-137965571D01*
X172499857Y-137965571D01*
X172642714Y-137894142D01*
X172714142Y-137822714D01*
X172785571Y-137679857D01*
X172785571Y-137251285D01*
X172714142Y-137108428D01*
X172642714Y-137037000D01*
X172499857Y-136965571D01*
X172214142Y-136965571D01*
X172071285Y-137037000D01*
X171214142Y-137965571D02*
X171357000Y-137894142D01*
X171428428Y-137822714D01*
X171499857Y-137679857D01*
X171499857Y-137251285D01*
X171428428Y-137108428D01*
X171357000Y-137037000D01*
X171214142Y-136965571D01*
X170999857Y-136965571D01*
X170857000Y-137037000D01*
X170785571Y-137108428D01*
X170714142Y-137251285D01*
X170714142Y-137679857D01*
X170785571Y-137822714D01*
X170857000Y-137894142D01*
X170999857Y-137965571D01*
X171214142Y-137965571D01*
X169428428Y-137965571D02*
X169428428Y-136465571D01*
X169428428Y-137894142D02*
X169571285Y-137965571D01*
X169857000Y-137965571D01*
X169999857Y-137894142D01*
X170071285Y-137822714D01*
X170142714Y-137679857D01*
X170142714Y-137251285D01*
X170071285Y-137108428D01*
X169999857Y-137037000D01*
X169857000Y-136965571D01*
X169571285Y-136965571D01*
X169428428Y-137037000D01*
X168142714Y-137894142D02*
X168285571Y-137965571D01*
X168571285Y-137965571D01*
X168714142Y-137894142D01*
X168785571Y-137751285D01*
X168785571Y-137179857D01*
X168714142Y-137037000D01*
X168571285Y-136965571D01*
X168285571Y-136965571D01*
X168142714Y-137037000D01*
X168071285Y-137179857D01*
X168071285Y-137322714D01*
X168785571Y-137465571D01*
X165642714Y-137965571D02*
X165642714Y-137179857D01*
X165714142Y-137037000D01*
X165857000Y-136965571D01*
X166142714Y-136965571D01*
X166285571Y-137037000D01*
X165642714Y-137894142D02*
X165785571Y-137965571D01*
X166142714Y-137965571D01*
X166285571Y-137894142D01*
X166357000Y-137751285D01*
X166357000Y-137608428D01*
X166285571Y-137465571D01*
X166142714Y-137394142D01*
X165785571Y-137394142D01*
X165642714Y-137322714D01*
X164928428Y-136965571D02*
X164928428Y-137965571D01*
X164928428Y-137108428D02*
X164857000Y-137037000D01*
X164714142Y-136965571D01*
X164499857Y-136965571D01*
X164357000Y-137037000D01*
X164285571Y-137179857D01*
X164285571Y-137965571D01*
X162928428Y-137965571D02*
X162928428Y-136465571D01*
X162928428Y-137894142D02*
X163071285Y-137965571D01*
X163357000Y-137965571D01*
X163499857Y-137894142D01*
X163571285Y-137822714D01*
X163642714Y-137679857D01*
X163642714Y-137251285D01*
X163571285Y-137108428D01*
X163499857Y-137037000D01*
X163357000Y-136965571D01*
X163071285Y-136965571D01*
X162928428Y-137037000D01*
X160428428Y-137965571D02*
X160428428Y-136465571D01*
X160428428Y-137894142D02*
X160571285Y-137965571D01*
X160857000Y-137965571D01*
X160999857Y-137894142D01*
X161071285Y-137822714D01*
X161142714Y-137679857D01*
X161142714Y-137251285D01*
X161071285Y-137108428D01*
X160999857Y-137037000D01*
X160857000Y-136965571D01*
X160571285Y-136965571D01*
X160428428Y-137037000D01*
X159499857Y-137965571D02*
X159642714Y-137894142D01*
X159714142Y-137822714D01*
X159785571Y-137679857D01*
X159785571Y-137251285D01*
X159714142Y-137108428D01*
X159642714Y-137037000D01*
X159499857Y-136965571D01*
X159285571Y-136965571D01*
X159142714Y-137037000D01*
X159071285Y-137108428D01*
X158999857Y-137251285D01*
X158999857Y-137679857D01*
X159071285Y-137822714D01*
X159142714Y-137894142D01*
X159285571Y-137965571D01*
X159499857Y-137965571D01*
X157714142Y-137894142D02*
X157857000Y-137965571D01*
X158142714Y-137965571D01*
X158285571Y-137894142D01*
X158357000Y-137822714D01*
X158428428Y-137679857D01*
X158428428Y-137251285D01*
X158357000Y-137108428D01*
X158285571Y-137037000D01*
X158142714Y-136965571D01*
X157857000Y-136965571D01*
X157714142Y-137037000D01*
X156428428Y-136965571D02*
X156428428Y-137965571D01*
X157071285Y-136965571D02*
X157071285Y-137751285D01*
X156999857Y-137894142D01*
X156857000Y-137965571D01*
X156642714Y-137965571D01*
X156499857Y-137894142D01*
X156428428Y-137822714D01*
X155714142Y-137965571D02*
X155714142Y-136965571D01*
X155714142Y-137108428D02*
X155642714Y-137037000D01*
X155499857Y-136965571D01*
X155285571Y-136965571D01*
X155142714Y-137037000D01*
X155071285Y-137179857D01*
X155071285Y-137965571D01*
X155071285Y-137179857D02*
X154999857Y-137037000D01*
X154857000Y-136965571D01*
X154642714Y-136965571D01*
X154499857Y-137037000D01*
X154428428Y-137179857D01*
X154428428Y-137965571D01*
X153142714Y-137894142D02*
X153285571Y-137965571D01*
X153571285Y-137965571D01*
X153714142Y-137894142D01*
X153785571Y-137751285D01*
X153785571Y-137179857D01*
X153714142Y-137037000D01*
X153571285Y-136965571D01*
X153285571Y-136965571D01*
X153142714Y-137037000D01*
X153071285Y-137179857D01*
X153071285Y-137322714D01*
X153785571Y-137465571D01*
X152428428Y-136965571D02*
X152428428Y-137965571D01*
X152428428Y-137108428D02*
X152357000Y-137037000D01*
X152214142Y-136965571D01*
X151999857Y-136965571D01*
X151857000Y-137037000D01*
X151785571Y-137179857D01*
X151785571Y-137965571D01*
X151285571Y-136965571D02*
X150714142Y-136965571D01*
X151071285Y-136465571D02*
X151071285Y-137751285D01*
X150999857Y-137894142D01*
X150857000Y-137965571D01*
X150714142Y-137965571D01*
X149571285Y-137965571D02*
X149571285Y-137179857D01*
X149642714Y-137037000D01*
X149785571Y-136965571D01*
X150071285Y-136965571D01*
X150214142Y-137037000D01*
X149571285Y-137894142D02*
X149714142Y-137965571D01*
X150071285Y-137965571D01*
X150214142Y-137894142D01*
X150285571Y-137751285D01*
X150285571Y-137608428D01*
X150214142Y-137465571D01*
X150071285Y-137394142D01*
X149714142Y-137394142D01*
X149571285Y-137322714D01*
X149071285Y-136965571D02*
X148499857Y-136965571D01*
X148857000Y-136465571D02*
X148857000Y-137751285D01*
X148785571Y-137894142D01*
X148642714Y-137965571D01*
X148499857Y-137965571D01*
X147999857Y-137965571D02*
X147999857Y-136965571D01*
X147999857Y-136465571D02*
X148071285Y-136537000D01*
X147999857Y-136608428D01*
X147928428Y-136537000D01*
X147999857Y-136465571D01*
X147999857Y-136608428D01*
X147071285Y-137965571D02*
X147214142Y-137894142D01*
X147285571Y-137822714D01*
X147357000Y-137679857D01*
X147357000Y-137251285D01*
X147285571Y-137108428D01*
X147214142Y-137037000D01*
X147071285Y-136965571D01*
X146857000Y-136965571D01*
X146714142Y-137037000D01*
X146642714Y-137108428D01*
X146571285Y-137251285D01*
X146571285Y-137679857D01*
X146642714Y-137822714D01*
X146714142Y-137894142D01*
X146857000Y-137965571D01*
X147071285Y-137965571D01*
X145928428Y-136965571D02*
X145928428Y-137965571D01*
X145928428Y-137108428D02*
X145857000Y-137037000D01*
X145714142Y-136965571D01*
X145499857Y-136965571D01*
X145357000Y-137037000D01*
X145285571Y-137179857D01*
X145285571Y-137965571D01*
X144499857Y-137894142D02*
X144499857Y-137965571D01*
X144571285Y-138108428D01*
X144642714Y-138179857D01*
X142785571Y-137894142D02*
X142642714Y-137965571D01*
X142357000Y-137965571D01*
X142214142Y-137894142D01*
X142142714Y-137751285D01*
X142142714Y-137679857D01*
X142214142Y-137537000D01*
X142357000Y-137465571D01*
X142571285Y-137465571D01*
X142714142Y-137394142D01*
X142785571Y-137251285D01*
X142785571Y-137179857D01*
X142714142Y-137037000D01*
X142571285Y-136965571D01*
X142357000Y-136965571D01*
X142214142Y-137037000D01*
X140857000Y-137894142D02*
X140999857Y-137965571D01*
X141285571Y-137965571D01*
X141428428Y-137894142D01*
X141499857Y-137822714D01*
X141571285Y-137679857D01*
X141571285Y-137251285D01*
X141499857Y-137108428D01*
X141428428Y-137037000D01*
X141285571Y-136965571D01*
X140999857Y-136965571D01*
X140857000Y-137037000D01*
X139571285Y-137965571D02*
X139571285Y-137179857D01*
X139642714Y-137037000D01*
X139785571Y-136965571D01*
X140071285Y-136965571D01*
X140214142Y-137037000D01*
X139571285Y-137894142D02*
X139714142Y-137965571D01*
X140071285Y-137965571D01*
X140214142Y-137894142D01*
X140285571Y-137751285D01*
X140285571Y-137608428D01*
X140214142Y-137465571D01*
X140071285Y-137394142D01*
X139714142Y-137394142D01*
X139571285Y-137322714D01*
X138857000Y-136965571D02*
X138857000Y-137965571D01*
X138857000Y-137108428D02*
X138785571Y-137037000D01*
X138642714Y-136965571D01*
X138428428Y-136965571D01*
X138285571Y-137037000D01*
X138214142Y-137179857D01*
X138214142Y-137965571D01*
X135357000Y-138108428D02*
X135499857Y-138037000D01*
X135642714Y-137894142D01*
X135857000Y-137679857D01*
X135999857Y-137608428D01*
X136142714Y-137608428D01*
X136071285Y-137965571D02*
X136214142Y-137894142D01*
X136357000Y-137751285D01*
X136428428Y-137465571D01*
X136428428Y-136965571D01*
X136357000Y-136679857D01*
X136214142Y-136537000D01*
X136071285Y-136465571D01*
X135785571Y-136465571D01*
X135642714Y-136537000D01*
X135499857Y-136679857D01*
X135428428Y-136965571D01*
X135428428Y-137465571D01*
X135499857Y-137751285D01*
X135642714Y-137894142D01*
X135785571Y-137965571D01*
X136071285Y-137965571D01*
X133928428Y-137965571D02*
X134428428Y-137251285D01*
X134785571Y-137965571D02*
X134785571Y-136465571D01*
X134214142Y-136465571D01*
X134071285Y-136537000D01*
X133999857Y-136608428D01*
X133928428Y-136751285D01*
X133928428Y-136965571D01*
X133999857Y-137108428D01*
X134071285Y-137179857D01*
X134214142Y-137251285D01*
X134785571Y-137251285D01*
X131928428Y-137965571D02*
X132071285Y-137894142D01*
X132142714Y-137822714D01*
X132214142Y-137679857D01*
X132214142Y-137251285D01*
X132142714Y-137108428D01*
X132071285Y-137037000D01*
X131928428Y-136965571D01*
X131714142Y-136965571D01*
X131571285Y-137037000D01*
X131499857Y-137108428D01*
X131428428Y-137251285D01*
X131428428Y-137679857D01*
X131499857Y-137822714D01*
X131571285Y-137894142D01*
X131714142Y-137965571D01*
X131928428Y-137965571D01*
X130785571Y-137965571D02*
X130785571Y-136965571D01*
X130785571Y-137251285D02*
X130714142Y-137108428D01*
X130642714Y-137037000D01*
X130499857Y-136965571D01*
X130357000Y-136965571D01*
X128071285Y-136965571D02*
X128071285Y-138179857D01*
X128142714Y-138322714D01*
X128214142Y-138394142D01*
X128357000Y-138465571D01*
X128571285Y-138465571D01*
X128714142Y-138394142D01*
X128071285Y-137894142D02*
X128214142Y-137965571D01*
X128499857Y-137965571D01*
X128642714Y-137894142D01*
X128714142Y-137822714D01*
X128785571Y-137679857D01*
X128785571Y-137251285D01*
X128714142Y-137108428D01*
X128642714Y-137037000D01*
X128499857Y-136965571D01*
X128214142Y-136965571D01*
X128071285Y-137037000D01*
X127142714Y-137965571D02*
X127285571Y-137894142D01*
X127357000Y-137822714D01*
X127428428Y-137679857D01*
X127428428Y-137251285D01*
X127357000Y-137108428D01*
X127285571Y-137037000D01*
X127142714Y-136965571D01*
X126928428Y-136965571D01*
X126785571Y-137037000D01*
X126714142Y-137108428D01*
X126642714Y-137251285D01*
X126642714Y-137679857D01*
X126714142Y-137822714D01*
X126785571Y-137894142D01*
X126928428Y-137965571D01*
X127142714Y-137965571D01*
X125071285Y-136965571D02*
X124499857Y-136965571D01*
X124857000Y-136465571D02*
X124857000Y-137751285D01*
X124785571Y-137894142D01*
X124642714Y-137965571D01*
X124499857Y-137965571D01*
X123785571Y-137965571D02*
X123928428Y-137894142D01*
X123999857Y-137822714D01*
X124071285Y-137679857D01*
X124071285Y-137251285D01*
X123999857Y-137108428D01*
X123928428Y-137037000D01*
X123785571Y-136965571D01*
X123571285Y-136965571D01*
X123428428Y-137037000D01*
X123357000Y-137108428D01*
X123285571Y-137251285D01*
X123285571Y-137679857D01*
X123357000Y-137822714D01*
X123428428Y-137894142D01*
X123571285Y-137965571D01*
X123785571Y-137965571D01*
D12*
G36*
X171189000Y-108711000D02*
G01*
X171189000Y-108211000D01*
X171689000Y-108211000D01*
X171689000Y-108711000D01*
X171189000Y-108711000D01*
G37*
G36*
X173189000Y-108711000D02*
G01*
X173189000Y-108211000D01*
X173689000Y-108211000D01*
X173689000Y-108711000D01*
X173189000Y-108711000D01*
G37*
G36*
X173689000Y-108711000D02*
G01*
X173689000Y-108211000D01*
X174189000Y-108211000D01*
X174189000Y-108711000D01*
X173689000Y-108711000D01*
G37*
G36*
X174189000Y-108711000D02*
G01*
X174189000Y-108211000D01*
X174689000Y-108211000D01*
X174689000Y-108711000D01*
X174189000Y-108711000D01*
G37*
G36*
X174689000Y-108711000D02*
G01*
X174689000Y-108211000D01*
X175189000Y-108211000D01*
X175189000Y-108711000D01*
X174689000Y-108711000D01*
G37*
G36*
X175189000Y-108711000D02*
G01*
X175189000Y-108211000D01*
X175689000Y-108211000D01*
X175689000Y-108711000D01*
X175189000Y-108711000D01*
G37*
G36*
X175689000Y-108711000D02*
G01*
X175689000Y-108211000D01*
X176189000Y-108211000D01*
X176189000Y-108711000D01*
X175689000Y-108711000D01*
G37*
G36*
X177189000Y-108711000D02*
G01*
X177189000Y-108211000D01*
X177689000Y-108211000D01*
X177689000Y-108711000D01*
X177189000Y-108711000D01*
G37*
G36*
X178189000Y-108711000D02*
G01*
X178189000Y-108211000D01*
X178689000Y-108211000D01*
X178689000Y-108711000D01*
X178189000Y-108711000D01*
G37*
G36*
X178689000Y-108711000D02*
G01*
X178689000Y-108211000D01*
X179189000Y-108211000D01*
X179189000Y-108711000D01*
X178689000Y-108711000D01*
G37*
G36*
X179689000Y-108711000D02*
G01*
X179689000Y-108211000D01*
X180189000Y-108211000D01*
X180189000Y-108711000D01*
X179689000Y-108711000D01*
G37*
G36*
X180189000Y-108711000D02*
G01*
X180189000Y-108211000D01*
X180689000Y-108211000D01*
X180689000Y-108711000D01*
X180189000Y-108711000D01*
G37*
G36*
X180689000Y-108711000D02*
G01*
X180689000Y-108211000D01*
X181189000Y-108211000D01*
X181189000Y-108711000D01*
X180689000Y-108711000D01*
G37*
G36*
X182689000Y-108711000D02*
G01*
X182689000Y-108211000D01*
X183189000Y-108211000D01*
X183189000Y-108711000D01*
X182689000Y-108711000D01*
G37*
G36*
X183689000Y-108711000D02*
G01*
X183689000Y-108211000D01*
X184189000Y-108211000D01*
X184189000Y-108711000D01*
X183689000Y-108711000D01*
G37*
G36*
X184189000Y-108711000D02*
G01*
X184189000Y-108211000D01*
X184689000Y-108211000D01*
X184689000Y-108711000D01*
X184189000Y-108711000D01*
G37*
G36*
X184689000Y-108711000D02*
G01*
X184689000Y-108211000D01*
X185189000Y-108211000D01*
X185189000Y-108711000D01*
X184689000Y-108711000D01*
G37*
G36*
X185189000Y-108711000D02*
G01*
X185189000Y-108211000D01*
X185689000Y-108211000D01*
X185689000Y-108711000D01*
X185189000Y-108711000D01*
G37*
G36*
X185689000Y-108711000D02*
G01*
X185689000Y-108211000D01*
X186189000Y-108211000D01*
X186189000Y-108711000D01*
X185689000Y-108711000D01*
G37*
G36*
X186189000Y-108711000D02*
G01*
X186189000Y-108211000D01*
X186689000Y-108211000D01*
X186689000Y-108711000D01*
X186189000Y-108711000D01*
G37*
G36*
X186689000Y-108711000D02*
G01*
X186689000Y-108211000D01*
X187189000Y-108211000D01*
X187189000Y-108711000D01*
X186689000Y-108711000D01*
G37*
G36*
X171689000Y-108211000D02*
G01*
X171689000Y-107711000D01*
X172189000Y-107711000D01*
X172189000Y-108211000D01*
X171689000Y-108211000D01*
G37*
G36*
X172189000Y-108211000D02*
G01*
X172189000Y-107711000D01*
X172689000Y-107711000D01*
X172689000Y-108211000D01*
X172189000Y-108211000D01*
G37*
G36*
X172689000Y-108211000D02*
G01*
X172689000Y-107711000D01*
X173189000Y-107711000D01*
X173189000Y-108211000D01*
X172689000Y-108211000D01*
G37*
G36*
X175189000Y-108211000D02*
G01*
X175189000Y-107711000D01*
X175689000Y-107711000D01*
X175689000Y-108211000D01*
X175189000Y-108211000D01*
G37*
G36*
X175689000Y-108211000D02*
G01*
X175689000Y-107711000D01*
X176189000Y-107711000D01*
X176189000Y-108211000D01*
X175689000Y-108211000D01*
G37*
G36*
X176189000Y-108211000D02*
G01*
X176189000Y-107711000D01*
X176689000Y-107711000D01*
X176689000Y-108211000D01*
X176189000Y-108211000D01*
G37*
G36*
X176689000Y-108211000D02*
G01*
X176689000Y-107711000D01*
X177189000Y-107711000D01*
X177189000Y-108211000D01*
X176689000Y-108211000D01*
G37*
G36*
X177189000Y-108211000D02*
G01*
X177189000Y-107711000D01*
X177689000Y-107711000D01*
X177689000Y-108211000D01*
X177189000Y-108211000D01*
G37*
G36*
X177689000Y-108211000D02*
G01*
X177689000Y-107711000D01*
X178189000Y-107711000D01*
X178189000Y-108211000D01*
X177689000Y-108211000D01*
G37*
G36*
X178689000Y-108211000D02*
G01*
X178689000Y-107711000D01*
X179189000Y-107711000D01*
X179189000Y-108211000D01*
X178689000Y-108211000D01*
G37*
G36*
X180189000Y-108211000D02*
G01*
X180189000Y-107711000D01*
X180689000Y-107711000D01*
X180689000Y-108211000D01*
X180189000Y-108211000D01*
G37*
G36*
X180689000Y-108211000D02*
G01*
X180689000Y-107711000D01*
X181189000Y-107711000D01*
X181189000Y-108211000D01*
X180689000Y-108211000D01*
G37*
G36*
X181189000Y-108211000D02*
G01*
X181189000Y-107711000D01*
X181689000Y-107711000D01*
X181689000Y-108211000D01*
X181189000Y-108211000D01*
G37*
G36*
X181689000Y-108211000D02*
G01*
X181689000Y-107711000D01*
X182189000Y-107711000D01*
X182189000Y-108211000D01*
X181689000Y-108211000D01*
G37*
G36*
X182189000Y-108211000D02*
G01*
X182189000Y-107711000D01*
X182689000Y-107711000D01*
X182689000Y-108211000D01*
X182189000Y-108211000D01*
G37*
G36*
X183689000Y-108211000D02*
G01*
X183689000Y-107711000D01*
X184189000Y-107711000D01*
X184189000Y-108211000D01*
X183689000Y-108211000D01*
G37*
G36*
X186689000Y-108211000D02*
G01*
X186689000Y-107711000D01*
X187189000Y-107711000D01*
X187189000Y-108211000D01*
X186689000Y-108211000D01*
G37*
G36*
X173189000Y-107711000D02*
G01*
X173189000Y-107211000D01*
X173689000Y-107211000D01*
X173689000Y-107711000D01*
X173189000Y-107711000D01*
G37*
G36*
X173689000Y-107711000D02*
G01*
X173689000Y-107211000D01*
X174189000Y-107211000D01*
X174189000Y-107711000D01*
X173689000Y-107711000D01*
G37*
G36*
X175689000Y-107711000D02*
G01*
X175689000Y-107211000D01*
X176189000Y-107211000D01*
X176189000Y-107711000D01*
X175689000Y-107711000D01*
G37*
G36*
X177189000Y-107711000D02*
G01*
X177189000Y-107211000D01*
X177689000Y-107211000D01*
X177689000Y-107711000D01*
X177189000Y-107711000D01*
G37*
G36*
X180689000Y-107711000D02*
G01*
X180689000Y-107211000D01*
X181189000Y-107211000D01*
X181189000Y-107711000D01*
X180689000Y-107711000D01*
G37*
G36*
X182689000Y-107711000D02*
G01*
X182689000Y-107211000D01*
X183189000Y-107211000D01*
X183189000Y-107711000D01*
X182689000Y-107711000D01*
G37*
G36*
X183689000Y-107711000D02*
G01*
X183689000Y-107211000D01*
X184189000Y-107211000D01*
X184189000Y-107711000D01*
X183689000Y-107711000D01*
G37*
G36*
X184689000Y-107711000D02*
G01*
X184689000Y-107211000D01*
X185189000Y-107211000D01*
X185189000Y-107711000D01*
X184689000Y-107711000D01*
G37*
G36*
X185189000Y-107711000D02*
G01*
X185189000Y-107211000D01*
X185689000Y-107211000D01*
X185689000Y-107711000D01*
X185189000Y-107711000D01*
G37*
G36*
X185689000Y-107711000D02*
G01*
X185689000Y-107211000D01*
X186189000Y-107211000D01*
X186189000Y-107711000D01*
X185689000Y-107711000D01*
G37*
G36*
X186689000Y-107711000D02*
G01*
X186689000Y-107211000D01*
X187189000Y-107211000D01*
X187189000Y-107711000D01*
X186689000Y-107711000D01*
G37*
G36*
X170689000Y-107211000D02*
G01*
X170689000Y-106711000D01*
X171189000Y-106711000D01*
X171189000Y-107211000D01*
X170689000Y-107211000D01*
G37*
G36*
X171689000Y-107211000D02*
G01*
X171689000Y-106711000D01*
X172189000Y-106711000D01*
X172189000Y-107211000D01*
X171689000Y-107211000D01*
G37*
G36*
X172689000Y-107211000D02*
G01*
X172689000Y-106711000D01*
X173189000Y-106711000D01*
X173189000Y-107211000D01*
X172689000Y-107211000D01*
G37*
G36*
X174189000Y-107211000D02*
G01*
X174189000Y-106711000D01*
X174689000Y-106711000D01*
X174689000Y-107211000D01*
X174189000Y-107211000D01*
G37*
G36*
X174689000Y-107211000D02*
G01*
X174689000Y-106711000D01*
X175189000Y-106711000D01*
X175189000Y-107211000D01*
X174689000Y-107211000D01*
G37*
G36*
X175189000Y-107211000D02*
G01*
X175189000Y-106711000D01*
X175689000Y-106711000D01*
X175689000Y-107211000D01*
X175189000Y-107211000D01*
G37*
G36*
X175689000Y-107211000D02*
G01*
X175689000Y-106711000D01*
X176189000Y-106711000D01*
X176189000Y-107211000D01*
X175689000Y-107211000D01*
G37*
G36*
X176689000Y-107211000D02*
G01*
X176689000Y-106711000D01*
X177189000Y-106711000D01*
X177189000Y-107211000D01*
X176689000Y-107211000D01*
G37*
G36*
X178689000Y-107211000D02*
G01*
X178689000Y-106711000D01*
X179189000Y-106711000D01*
X179189000Y-107211000D01*
X178689000Y-107211000D01*
G37*
G36*
X179189000Y-107211000D02*
G01*
X179189000Y-106711000D01*
X179689000Y-106711000D01*
X179689000Y-107211000D01*
X179189000Y-107211000D01*
G37*
G36*
X179689000Y-107211000D02*
G01*
X179689000Y-106711000D01*
X180189000Y-106711000D01*
X180189000Y-107211000D01*
X179689000Y-107211000D01*
G37*
G36*
X180689000Y-107211000D02*
G01*
X180689000Y-106711000D01*
X181189000Y-106711000D01*
X181189000Y-107211000D01*
X180689000Y-107211000D01*
G37*
G36*
X182189000Y-107211000D02*
G01*
X182189000Y-106711000D01*
X182689000Y-106711000D01*
X182689000Y-107211000D01*
X182189000Y-107211000D01*
G37*
G36*
X182689000Y-107211000D02*
G01*
X182689000Y-106711000D01*
X183189000Y-106711000D01*
X183189000Y-107211000D01*
X182689000Y-107211000D01*
G37*
G36*
X183689000Y-107211000D02*
G01*
X183689000Y-106711000D01*
X184189000Y-106711000D01*
X184189000Y-107211000D01*
X183689000Y-107211000D01*
G37*
G36*
X184689000Y-107211000D02*
G01*
X184689000Y-106711000D01*
X185189000Y-106711000D01*
X185189000Y-107211000D01*
X184689000Y-107211000D01*
G37*
G36*
X185189000Y-107211000D02*
G01*
X185189000Y-106711000D01*
X185689000Y-106711000D01*
X185689000Y-107211000D01*
X185189000Y-107211000D01*
G37*
G36*
X185689000Y-107211000D02*
G01*
X185689000Y-106711000D01*
X186189000Y-106711000D01*
X186189000Y-107211000D01*
X185689000Y-107211000D01*
G37*
G36*
X186689000Y-107211000D02*
G01*
X186689000Y-106711000D01*
X187189000Y-106711000D01*
X187189000Y-107211000D01*
X186689000Y-107211000D01*
G37*
G36*
X171189000Y-106711000D02*
G01*
X171189000Y-106211000D01*
X171689000Y-106211000D01*
X171689000Y-106711000D01*
X171189000Y-106711000D01*
G37*
G36*
X172189000Y-106711000D02*
G01*
X172189000Y-106211000D01*
X172689000Y-106211000D01*
X172689000Y-106711000D01*
X172189000Y-106711000D01*
G37*
G36*
X172689000Y-106711000D02*
G01*
X172689000Y-106211000D01*
X173189000Y-106211000D01*
X173189000Y-106711000D01*
X172689000Y-106711000D01*
G37*
G36*
X173189000Y-106711000D02*
G01*
X173189000Y-106211000D01*
X173689000Y-106211000D01*
X173689000Y-106711000D01*
X173189000Y-106711000D01*
G37*
G36*
X173689000Y-106711000D02*
G01*
X173689000Y-106211000D01*
X174189000Y-106211000D01*
X174189000Y-106711000D01*
X173689000Y-106711000D01*
G37*
G36*
X174189000Y-106711000D02*
G01*
X174189000Y-106211000D01*
X174689000Y-106211000D01*
X174689000Y-106711000D01*
X174189000Y-106711000D01*
G37*
G36*
X174689000Y-106711000D02*
G01*
X174689000Y-106211000D01*
X175189000Y-106211000D01*
X175189000Y-106711000D01*
X174689000Y-106711000D01*
G37*
G36*
X176189000Y-106711000D02*
G01*
X176189000Y-106211000D01*
X176689000Y-106211000D01*
X176689000Y-106711000D01*
X176189000Y-106711000D01*
G37*
G36*
X177189000Y-106711000D02*
G01*
X177189000Y-106211000D01*
X177689000Y-106211000D01*
X177689000Y-106711000D01*
X177189000Y-106711000D01*
G37*
G36*
X177689000Y-106711000D02*
G01*
X177689000Y-106211000D01*
X178189000Y-106211000D01*
X178189000Y-106711000D01*
X177689000Y-106711000D01*
G37*
G36*
X179189000Y-106711000D02*
G01*
X179189000Y-106211000D01*
X179689000Y-106211000D01*
X179689000Y-106711000D01*
X179189000Y-106711000D01*
G37*
G36*
X179689000Y-106711000D02*
G01*
X179689000Y-106211000D01*
X180189000Y-106211000D01*
X180189000Y-106711000D01*
X179689000Y-106711000D01*
G37*
G36*
X180689000Y-106711000D02*
G01*
X180689000Y-106211000D01*
X181189000Y-106211000D01*
X181189000Y-106711000D01*
X180689000Y-106711000D01*
G37*
G36*
X181689000Y-106711000D02*
G01*
X181689000Y-106211000D01*
X182189000Y-106211000D01*
X182189000Y-106711000D01*
X181689000Y-106711000D01*
G37*
G36*
X182689000Y-106711000D02*
G01*
X182689000Y-106211000D01*
X183189000Y-106211000D01*
X183189000Y-106711000D01*
X182689000Y-106711000D01*
G37*
G36*
X183689000Y-106711000D02*
G01*
X183689000Y-106211000D01*
X184189000Y-106211000D01*
X184189000Y-106711000D01*
X183689000Y-106711000D01*
G37*
G36*
X184689000Y-106711000D02*
G01*
X184689000Y-106211000D01*
X185189000Y-106211000D01*
X185189000Y-106711000D01*
X184689000Y-106711000D01*
G37*
G36*
X185189000Y-106711000D02*
G01*
X185189000Y-106211000D01*
X185689000Y-106211000D01*
X185689000Y-106711000D01*
X185189000Y-106711000D01*
G37*
G36*
X185689000Y-106711000D02*
G01*
X185689000Y-106211000D01*
X186189000Y-106211000D01*
X186189000Y-106711000D01*
X185689000Y-106711000D01*
G37*
G36*
X186689000Y-106711000D02*
G01*
X186689000Y-106211000D01*
X187189000Y-106211000D01*
X187189000Y-106711000D01*
X186689000Y-106711000D01*
G37*
G36*
X171189000Y-106211000D02*
G01*
X171189000Y-105711000D01*
X171689000Y-105711000D01*
X171689000Y-106211000D01*
X171189000Y-106211000D01*
G37*
G36*
X171689000Y-106211000D02*
G01*
X171689000Y-105711000D01*
X172189000Y-105711000D01*
X172189000Y-106211000D01*
X171689000Y-106211000D01*
G37*
G36*
X172189000Y-106211000D02*
G01*
X172189000Y-105711000D01*
X172689000Y-105711000D01*
X172689000Y-106211000D01*
X172189000Y-106211000D01*
G37*
G36*
X172689000Y-106211000D02*
G01*
X172689000Y-105711000D01*
X173189000Y-105711000D01*
X173189000Y-106211000D01*
X172689000Y-106211000D01*
G37*
G36*
X174689000Y-106211000D02*
G01*
X174689000Y-105711000D01*
X175189000Y-105711000D01*
X175189000Y-106211000D01*
X174689000Y-106211000D01*
G37*
G36*
X175189000Y-106211000D02*
G01*
X175189000Y-105711000D01*
X175689000Y-105711000D01*
X175689000Y-106211000D01*
X175189000Y-106211000D01*
G37*
G36*
X175689000Y-106211000D02*
G01*
X175689000Y-105711000D01*
X176189000Y-105711000D01*
X176189000Y-106211000D01*
X175689000Y-106211000D01*
G37*
G36*
X176189000Y-106211000D02*
G01*
X176189000Y-105711000D01*
X176689000Y-105711000D01*
X176689000Y-106211000D01*
X176189000Y-106211000D01*
G37*
G36*
X176689000Y-106211000D02*
G01*
X176689000Y-105711000D01*
X177189000Y-105711000D01*
X177189000Y-106211000D01*
X176689000Y-106211000D01*
G37*
G36*
X180189000Y-106211000D02*
G01*
X180189000Y-105711000D01*
X180689000Y-105711000D01*
X180689000Y-106211000D01*
X180189000Y-106211000D01*
G37*
G36*
X180689000Y-106211000D02*
G01*
X180689000Y-105711000D01*
X181189000Y-105711000D01*
X181189000Y-106211000D01*
X180689000Y-106211000D01*
G37*
G36*
X181689000Y-106211000D02*
G01*
X181689000Y-105711000D01*
X182189000Y-105711000D01*
X182189000Y-106211000D01*
X181689000Y-106211000D01*
G37*
G36*
X182189000Y-106211000D02*
G01*
X182189000Y-105711000D01*
X182689000Y-105711000D01*
X182689000Y-106211000D01*
X182189000Y-106211000D01*
G37*
G36*
X182689000Y-106211000D02*
G01*
X182689000Y-105711000D01*
X183189000Y-105711000D01*
X183189000Y-106211000D01*
X182689000Y-106211000D01*
G37*
G36*
X183689000Y-106211000D02*
G01*
X183689000Y-105711000D01*
X184189000Y-105711000D01*
X184189000Y-106211000D01*
X183689000Y-106211000D01*
G37*
G36*
X186689000Y-106211000D02*
G01*
X186689000Y-105711000D01*
X187189000Y-105711000D01*
X187189000Y-106211000D01*
X186689000Y-106211000D01*
G37*
G36*
X171189000Y-105711000D02*
G01*
X171189000Y-105211000D01*
X171689000Y-105211000D01*
X171689000Y-105711000D01*
X171189000Y-105711000D01*
G37*
G36*
X171689000Y-105711000D02*
G01*
X171689000Y-105211000D01*
X172189000Y-105211000D01*
X172189000Y-105711000D01*
X171689000Y-105711000D01*
G37*
G36*
X172689000Y-105711000D02*
G01*
X172689000Y-105211000D01*
X173189000Y-105211000D01*
X173189000Y-105711000D01*
X172689000Y-105711000D01*
G37*
G36*
X173689000Y-105711000D02*
G01*
X173689000Y-105211000D01*
X174189000Y-105211000D01*
X174189000Y-105711000D01*
X173689000Y-105711000D01*
G37*
G36*
X174689000Y-105711000D02*
G01*
X174689000Y-105211000D01*
X175189000Y-105211000D01*
X175189000Y-105711000D01*
X174689000Y-105711000D01*
G37*
G36*
X175189000Y-105711000D02*
G01*
X175189000Y-105211000D01*
X175689000Y-105211000D01*
X175689000Y-105711000D01*
X175189000Y-105711000D01*
G37*
G36*
X176189000Y-105711000D02*
G01*
X176189000Y-105211000D01*
X176689000Y-105211000D01*
X176689000Y-105711000D01*
X176189000Y-105711000D01*
G37*
G36*
X176689000Y-105711000D02*
G01*
X176689000Y-105211000D01*
X177189000Y-105211000D01*
X177189000Y-105711000D01*
X176689000Y-105711000D01*
G37*
G36*
X177689000Y-105711000D02*
G01*
X177689000Y-105211000D01*
X178189000Y-105211000D01*
X178189000Y-105711000D01*
X177689000Y-105711000D01*
G37*
G36*
X178689000Y-105711000D02*
G01*
X178689000Y-105211000D01*
X179189000Y-105211000D01*
X179189000Y-105711000D01*
X178689000Y-105711000D01*
G37*
G36*
X179189000Y-105711000D02*
G01*
X179189000Y-105211000D01*
X179689000Y-105211000D01*
X179689000Y-105711000D01*
X179189000Y-105711000D01*
G37*
G36*
X180689000Y-105711000D02*
G01*
X180689000Y-105211000D01*
X181189000Y-105211000D01*
X181189000Y-105711000D01*
X180689000Y-105711000D01*
G37*
G36*
X181189000Y-105711000D02*
G01*
X181189000Y-105211000D01*
X181689000Y-105211000D01*
X181689000Y-105711000D01*
X181189000Y-105711000D01*
G37*
G36*
X182189000Y-105711000D02*
G01*
X182189000Y-105211000D01*
X182689000Y-105211000D01*
X182689000Y-105711000D01*
X182189000Y-105711000D01*
G37*
G36*
X183689000Y-105711000D02*
G01*
X183689000Y-105211000D01*
X184189000Y-105211000D01*
X184189000Y-105711000D01*
X183689000Y-105711000D01*
G37*
G36*
X184189000Y-105711000D02*
G01*
X184189000Y-105211000D01*
X184689000Y-105211000D01*
X184689000Y-105711000D01*
X184189000Y-105711000D01*
G37*
G36*
X184689000Y-105711000D02*
G01*
X184689000Y-105211000D01*
X185189000Y-105211000D01*
X185189000Y-105711000D01*
X184689000Y-105711000D01*
G37*
G36*
X185189000Y-105711000D02*
G01*
X185189000Y-105211000D01*
X185689000Y-105211000D01*
X185689000Y-105711000D01*
X185189000Y-105711000D01*
G37*
G36*
X185689000Y-105711000D02*
G01*
X185689000Y-105211000D01*
X186189000Y-105211000D01*
X186189000Y-105711000D01*
X185689000Y-105711000D01*
G37*
G36*
X186189000Y-105711000D02*
G01*
X186189000Y-105211000D01*
X186689000Y-105211000D01*
X186689000Y-105711000D01*
X186189000Y-105711000D01*
G37*
G36*
X186689000Y-105711000D02*
G01*
X186689000Y-105211000D01*
X187189000Y-105211000D01*
X187189000Y-105711000D01*
X186689000Y-105711000D01*
G37*
G36*
X170689000Y-105211000D02*
G01*
X170689000Y-104711000D01*
X171189000Y-104711000D01*
X171189000Y-105211000D01*
X170689000Y-105211000D01*
G37*
G36*
X171689000Y-105211000D02*
G01*
X171689000Y-104711000D01*
X172189000Y-104711000D01*
X172189000Y-105211000D01*
X171689000Y-105211000D01*
G37*
G36*
X172689000Y-105211000D02*
G01*
X172689000Y-104711000D01*
X173189000Y-104711000D01*
X173189000Y-105211000D01*
X172689000Y-105211000D01*
G37*
G36*
X174689000Y-105211000D02*
G01*
X174689000Y-104711000D01*
X175189000Y-104711000D01*
X175189000Y-105211000D01*
X174689000Y-105211000D01*
G37*
G36*
X175189000Y-105211000D02*
G01*
X175189000Y-104711000D01*
X175689000Y-104711000D01*
X175689000Y-105211000D01*
X175189000Y-105211000D01*
G37*
G36*
X176189000Y-105211000D02*
G01*
X176189000Y-104711000D01*
X176689000Y-104711000D01*
X176689000Y-105211000D01*
X176189000Y-105211000D01*
G37*
G36*
X177189000Y-105211000D02*
G01*
X177189000Y-104711000D01*
X177689000Y-104711000D01*
X177689000Y-105211000D01*
X177189000Y-105211000D01*
G37*
G36*
X177689000Y-105211000D02*
G01*
X177689000Y-104711000D01*
X178189000Y-104711000D01*
X178189000Y-105211000D01*
X177689000Y-105211000D01*
G37*
G36*
X178689000Y-105211000D02*
G01*
X178689000Y-104711000D01*
X179189000Y-104711000D01*
X179189000Y-105211000D01*
X178689000Y-105211000D01*
G37*
G36*
X181689000Y-105211000D02*
G01*
X181689000Y-104711000D01*
X182189000Y-104711000D01*
X182189000Y-105211000D01*
X181689000Y-105211000D01*
G37*
G36*
X182189000Y-105211000D02*
G01*
X182189000Y-104711000D01*
X182689000Y-104711000D01*
X182689000Y-105211000D01*
X182189000Y-105211000D01*
G37*
G36*
X182689000Y-105211000D02*
G01*
X182689000Y-104711000D01*
X183189000Y-104711000D01*
X183189000Y-105211000D01*
X182689000Y-105211000D01*
G37*
G36*
X170689000Y-104711000D02*
G01*
X170689000Y-104211000D01*
X171189000Y-104211000D01*
X171189000Y-104711000D01*
X170689000Y-104711000D01*
G37*
G36*
X171189000Y-104711000D02*
G01*
X171189000Y-104211000D01*
X171689000Y-104211000D01*
X171689000Y-104711000D01*
X171189000Y-104711000D01*
G37*
G36*
X172689000Y-104711000D02*
G01*
X172689000Y-104211000D01*
X173189000Y-104211000D01*
X173189000Y-104711000D01*
X172689000Y-104711000D01*
G37*
G36*
X173189000Y-104711000D02*
G01*
X173189000Y-104211000D01*
X173689000Y-104211000D01*
X173689000Y-104711000D01*
X173189000Y-104711000D01*
G37*
G36*
X173689000Y-104711000D02*
G01*
X173689000Y-104211000D01*
X174189000Y-104211000D01*
X174189000Y-104711000D01*
X173689000Y-104711000D01*
G37*
G36*
X174189000Y-104711000D02*
G01*
X174189000Y-104211000D01*
X174689000Y-104211000D01*
X174689000Y-104711000D01*
X174189000Y-104711000D01*
G37*
G36*
X174689000Y-104711000D02*
G01*
X174689000Y-104211000D01*
X175189000Y-104211000D01*
X175189000Y-104711000D01*
X174689000Y-104711000D01*
G37*
G36*
X175689000Y-104711000D02*
G01*
X175689000Y-104211000D01*
X176189000Y-104211000D01*
X176189000Y-104711000D01*
X175689000Y-104711000D01*
G37*
G36*
X178189000Y-104711000D02*
G01*
X178189000Y-104211000D01*
X178689000Y-104211000D01*
X178689000Y-104711000D01*
X178189000Y-104711000D01*
G37*
G36*
X179189000Y-104711000D02*
G01*
X179189000Y-104211000D01*
X179689000Y-104211000D01*
X179689000Y-104711000D01*
X179189000Y-104711000D01*
G37*
G36*
X180689000Y-104711000D02*
G01*
X180689000Y-104211000D01*
X181189000Y-104211000D01*
X181189000Y-104711000D01*
X180689000Y-104711000D01*
G37*
G36*
X181189000Y-104711000D02*
G01*
X181189000Y-104211000D01*
X181689000Y-104211000D01*
X181689000Y-104711000D01*
X181189000Y-104711000D01*
G37*
G36*
X182689000Y-104711000D02*
G01*
X182689000Y-104211000D01*
X183189000Y-104211000D01*
X183189000Y-104711000D01*
X182689000Y-104711000D01*
G37*
G36*
X183189000Y-104711000D02*
G01*
X183189000Y-104211000D01*
X183689000Y-104211000D01*
X183689000Y-104711000D01*
X183189000Y-104711000D01*
G37*
G36*
X183689000Y-104711000D02*
G01*
X183689000Y-104211000D01*
X184189000Y-104211000D01*
X184189000Y-104711000D01*
X183689000Y-104711000D01*
G37*
G36*
X184189000Y-104711000D02*
G01*
X184189000Y-104211000D01*
X184689000Y-104211000D01*
X184689000Y-104711000D01*
X184189000Y-104711000D01*
G37*
G36*
X184689000Y-104711000D02*
G01*
X184689000Y-104211000D01*
X185189000Y-104211000D01*
X185189000Y-104711000D01*
X184689000Y-104711000D01*
G37*
G36*
X185189000Y-104711000D02*
G01*
X185189000Y-104211000D01*
X185689000Y-104211000D01*
X185689000Y-104711000D01*
X185189000Y-104711000D01*
G37*
G36*
X185689000Y-104711000D02*
G01*
X185689000Y-104211000D01*
X186189000Y-104211000D01*
X186189000Y-104711000D01*
X185689000Y-104711000D01*
G37*
G36*
X186689000Y-104711000D02*
G01*
X186689000Y-104211000D01*
X187189000Y-104211000D01*
X187189000Y-104711000D01*
X186689000Y-104711000D01*
G37*
G36*
X171689000Y-104211000D02*
G01*
X171689000Y-103711000D01*
X172189000Y-103711000D01*
X172189000Y-104211000D01*
X171689000Y-104211000D01*
G37*
G36*
X172189000Y-104211000D02*
G01*
X172189000Y-103711000D01*
X172689000Y-103711000D01*
X172689000Y-104211000D01*
X172189000Y-104211000D01*
G37*
G36*
X172689000Y-104211000D02*
G01*
X172689000Y-103711000D01*
X173189000Y-103711000D01*
X173189000Y-104211000D01*
X172689000Y-104211000D01*
G37*
G36*
X173689000Y-104211000D02*
G01*
X173689000Y-103711000D01*
X174189000Y-103711000D01*
X174189000Y-104211000D01*
X173689000Y-104211000D01*
G37*
G36*
X174189000Y-104211000D02*
G01*
X174189000Y-103711000D01*
X174689000Y-103711000D01*
X174689000Y-104211000D01*
X174189000Y-104211000D01*
G37*
G36*
X175689000Y-104211000D02*
G01*
X175689000Y-103711000D01*
X176189000Y-103711000D01*
X176189000Y-104211000D01*
X175689000Y-104211000D01*
G37*
G36*
X176189000Y-104211000D02*
G01*
X176189000Y-103711000D01*
X176689000Y-103711000D01*
X176689000Y-104211000D01*
X176189000Y-104211000D01*
G37*
G36*
X177689000Y-104211000D02*
G01*
X177689000Y-103711000D01*
X178189000Y-103711000D01*
X178189000Y-104211000D01*
X177689000Y-104211000D01*
G37*
G36*
X179189000Y-104211000D02*
G01*
X179189000Y-103711000D01*
X179689000Y-103711000D01*
X179689000Y-104211000D01*
X179189000Y-104211000D01*
G37*
G36*
X181189000Y-104211000D02*
G01*
X181189000Y-103711000D01*
X181689000Y-103711000D01*
X181689000Y-104211000D01*
X181189000Y-104211000D01*
G37*
G36*
X182689000Y-104211000D02*
G01*
X182689000Y-103711000D01*
X183189000Y-103711000D01*
X183189000Y-104211000D01*
X182689000Y-104211000D01*
G37*
G36*
X186689000Y-104211000D02*
G01*
X186689000Y-103711000D01*
X187189000Y-103711000D01*
X187189000Y-104211000D01*
X186689000Y-104211000D01*
G37*
G36*
X171189000Y-103711000D02*
G01*
X171189000Y-103211000D01*
X171689000Y-103211000D01*
X171689000Y-103711000D01*
X171189000Y-103711000D01*
G37*
G36*
X171689000Y-103711000D02*
G01*
X171689000Y-103211000D01*
X172189000Y-103211000D01*
X172189000Y-103711000D01*
X171689000Y-103711000D01*
G37*
G36*
X172189000Y-103711000D02*
G01*
X172189000Y-103211000D01*
X172689000Y-103211000D01*
X172689000Y-103711000D01*
X172189000Y-103711000D01*
G37*
G36*
X173189000Y-103711000D02*
G01*
X173189000Y-103211000D01*
X173689000Y-103211000D01*
X173689000Y-103711000D01*
X173189000Y-103711000D01*
G37*
G36*
X174189000Y-103711000D02*
G01*
X174189000Y-103211000D01*
X174689000Y-103211000D01*
X174689000Y-103711000D01*
X174189000Y-103711000D01*
G37*
G36*
X174689000Y-103711000D02*
G01*
X174689000Y-103211000D01*
X175189000Y-103211000D01*
X175189000Y-103711000D01*
X174689000Y-103711000D01*
G37*
G36*
X176689000Y-103711000D02*
G01*
X176689000Y-103211000D01*
X177189000Y-103211000D01*
X177189000Y-103711000D01*
X176689000Y-103711000D01*
G37*
G36*
X178189000Y-103711000D02*
G01*
X178189000Y-103211000D01*
X178689000Y-103211000D01*
X178689000Y-103711000D01*
X178189000Y-103711000D01*
G37*
G36*
X178689000Y-103711000D02*
G01*
X178689000Y-103211000D01*
X179189000Y-103211000D01*
X179189000Y-103711000D01*
X178689000Y-103711000D01*
G37*
G36*
X179189000Y-103711000D02*
G01*
X179189000Y-103211000D01*
X179689000Y-103211000D01*
X179689000Y-103711000D01*
X179189000Y-103711000D01*
G37*
G36*
X180689000Y-103711000D02*
G01*
X180689000Y-103211000D01*
X181189000Y-103211000D01*
X181189000Y-103711000D01*
X180689000Y-103711000D01*
G37*
G36*
X182189000Y-103711000D02*
G01*
X182189000Y-103211000D01*
X182689000Y-103211000D01*
X182689000Y-103711000D01*
X182189000Y-103711000D01*
G37*
G36*
X182689000Y-103711000D02*
G01*
X182689000Y-103211000D01*
X183189000Y-103211000D01*
X183189000Y-103711000D01*
X182689000Y-103711000D01*
G37*
G36*
X183189000Y-103711000D02*
G01*
X183189000Y-103211000D01*
X183689000Y-103211000D01*
X183689000Y-103711000D01*
X183189000Y-103711000D01*
G37*
G36*
X183689000Y-103711000D02*
G01*
X183689000Y-103211000D01*
X184189000Y-103211000D01*
X184189000Y-103711000D01*
X183689000Y-103711000D01*
G37*
G36*
X184189000Y-103711000D02*
G01*
X184189000Y-103211000D01*
X184689000Y-103211000D01*
X184689000Y-103711000D01*
X184189000Y-103711000D01*
G37*
G36*
X184689000Y-103711000D02*
G01*
X184689000Y-103211000D01*
X185189000Y-103211000D01*
X185189000Y-103711000D01*
X184689000Y-103711000D01*
G37*
G36*
X185689000Y-103711000D02*
G01*
X185689000Y-103211000D01*
X186189000Y-103211000D01*
X186189000Y-103711000D01*
X185689000Y-103711000D01*
G37*
G36*
X186689000Y-103711000D02*
G01*
X186689000Y-103211000D01*
X187189000Y-103211000D01*
X187189000Y-103711000D01*
X186689000Y-103711000D01*
G37*
G36*
X170689000Y-103211000D02*
G01*
X170689000Y-102711000D01*
X171189000Y-102711000D01*
X171189000Y-103211000D01*
X170689000Y-103211000D01*
G37*
G36*
X171689000Y-103211000D02*
G01*
X171689000Y-102711000D01*
X172189000Y-102711000D01*
X172189000Y-103211000D01*
X171689000Y-103211000D01*
G37*
G36*
X173689000Y-103211000D02*
G01*
X173689000Y-102711000D01*
X174189000Y-102711000D01*
X174189000Y-103211000D01*
X173689000Y-103211000D01*
G37*
G36*
X174189000Y-103211000D02*
G01*
X174189000Y-102711000D01*
X174689000Y-102711000D01*
X174689000Y-103211000D01*
X174189000Y-103211000D01*
G37*
G36*
X175189000Y-103211000D02*
G01*
X175189000Y-102711000D01*
X175689000Y-102711000D01*
X175689000Y-103211000D01*
X175189000Y-103211000D01*
G37*
G36*
X176189000Y-103211000D02*
G01*
X176189000Y-102711000D01*
X176689000Y-102711000D01*
X176689000Y-103211000D01*
X176189000Y-103211000D01*
G37*
G36*
X177689000Y-103211000D02*
G01*
X177689000Y-102711000D01*
X178189000Y-102711000D01*
X178189000Y-103211000D01*
X177689000Y-103211000D01*
G37*
G36*
X178189000Y-103211000D02*
G01*
X178189000Y-102711000D01*
X178689000Y-102711000D01*
X178689000Y-103211000D01*
X178189000Y-103211000D01*
G37*
G36*
X179189000Y-103211000D02*
G01*
X179189000Y-102711000D01*
X179689000Y-102711000D01*
X179689000Y-103211000D01*
X179189000Y-103211000D01*
G37*
G36*
X179689000Y-103211000D02*
G01*
X179689000Y-102711000D01*
X180189000Y-102711000D01*
X180189000Y-103211000D01*
X179689000Y-103211000D01*
G37*
G36*
X180189000Y-103211000D02*
G01*
X180189000Y-102711000D01*
X180689000Y-102711000D01*
X180689000Y-103211000D01*
X180189000Y-103211000D01*
G37*
G36*
X180689000Y-103211000D02*
G01*
X180689000Y-102711000D01*
X181189000Y-102711000D01*
X181189000Y-103211000D01*
X180689000Y-103211000D01*
G37*
G36*
X181189000Y-103211000D02*
G01*
X181189000Y-102711000D01*
X181689000Y-102711000D01*
X181689000Y-103211000D01*
X181189000Y-103211000D01*
G37*
G36*
X181689000Y-103211000D02*
G01*
X181689000Y-102711000D01*
X182189000Y-102711000D01*
X182189000Y-103211000D01*
X181689000Y-103211000D01*
G37*
G36*
X185189000Y-103211000D02*
G01*
X185189000Y-102711000D01*
X185689000Y-102711000D01*
X185689000Y-103211000D01*
X185189000Y-103211000D01*
G37*
G36*
X185689000Y-103211000D02*
G01*
X185689000Y-102711000D01*
X186189000Y-102711000D01*
X186189000Y-103211000D01*
X185689000Y-103211000D01*
G37*
G36*
X186189000Y-103211000D02*
G01*
X186189000Y-102711000D01*
X186689000Y-102711000D01*
X186689000Y-103211000D01*
X186189000Y-103211000D01*
G37*
G36*
X186689000Y-103211000D02*
G01*
X186689000Y-102711000D01*
X187189000Y-102711000D01*
X187189000Y-103211000D01*
X186689000Y-103211000D01*
G37*
G36*
X170689000Y-102711000D02*
G01*
X170689000Y-102211000D01*
X171189000Y-102211000D01*
X171189000Y-102711000D01*
X170689000Y-102711000D01*
G37*
G36*
X171189000Y-102711000D02*
G01*
X171189000Y-102211000D01*
X171689000Y-102211000D01*
X171689000Y-102711000D01*
X171189000Y-102711000D01*
G37*
G36*
X172189000Y-102711000D02*
G01*
X172189000Y-102211000D01*
X172689000Y-102211000D01*
X172689000Y-102711000D01*
X172189000Y-102711000D01*
G37*
G36*
X172689000Y-102711000D02*
G01*
X172689000Y-102211000D01*
X173189000Y-102211000D01*
X173189000Y-102711000D01*
X172689000Y-102711000D01*
G37*
G36*
X173189000Y-102711000D02*
G01*
X173189000Y-102211000D01*
X173689000Y-102211000D01*
X173689000Y-102711000D01*
X173189000Y-102711000D01*
G37*
G36*
X174189000Y-102711000D02*
G01*
X174189000Y-102211000D01*
X174689000Y-102211000D01*
X174689000Y-102711000D01*
X174189000Y-102711000D01*
G37*
G36*
X174689000Y-102711000D02*
G01*
X174689000Y-102211000D01*
X175189000Y-102211000D01*
X175189000Y-102711000D01*
X174689000Y-102711000D01*
G37*
G36*
X175689000Y-102711000D02*
G01*
X175689000Y-102211000D01*
X176189000Y-102211000D01*
X176189000Y-102711000D01*
X175689000Y-102711000D01*
G37*
G36*
X176189000Y-102711000D02*
G01*
X176189000Y-102211000D01*
X176689000Y-102211000D01*
X176689000Y-102711000D01*
X176189000Y-102711000D01*
G37*
G36*
X176689000Y-102711000D02*
G01*
X176689000Y-102211000D01*
X177189000Y-102211000D01*
X177189000Y-102711000D01*
X176689000Y-102711000D01*
G37*
G36*
X177189000Y-102711000D02*
G01*
X177189000Y-102211000D01*
X177689000Y-102211000D01*
X177689000Y-102711000D01*
X177189000Y-102711000D01*
G37*
G36*
X178689000Y-102711000D02*
G01*
X178689000Y-102211000D01*
X179189000Y-102211000D01*
X179189000Y-102711000D01*
X178689000Y-102711000D01*
G37*
G36*
X182689000Y-102711000D02*
G01*
X182689000Y-102211000D01*
X183189000Y-102211000D01*
X183189000Y-102711000D01*
X182689000Y-102711000D01*
G37*
G36*
X183689000Y-102711000D02*
G01*
X183689000Y-102211000D01*
X184189000Y-102211000D01*
X184189000Y-102711000D01*
X183689000Y-102711000D01*
G37*
G36*
X186189000Y-102711000D02*
G01*
X186189000Y-102211000D01*
X186689000Y-102211000D01*
X186689000Y-102711000D01*
X186189000Y-102711000D01*
G37*
G36*
X170689000Y-102211000D02*
G01*
X170689000Y-101711000D01*
X171189000Y-101711000D01*
X171189000Y-102211000D01*
X170689000Y-102211000D01*
G37*
G36*
X171689000Y-102211000D02*
G01*
X171689000Y-101711000D01*
X172189000Y-101711000D01*
X172189000Y-102211000D01*
X171689000Y-102211000D01*
G37*
G36*
X172189000Y-102211000D02*
G01*
X172189000Y-101711000D01*
X172689000Y-101711000D01*
X172689000Y-102211000D01*
X172189000Y-102211000D01*
G37*
G36*
X172689000Y-102211000D02*
G01*
X172689000Y-101711000D01*
X173189000Y-101711000D01*
X173189000Y-102211000D01*
X172689000Y-102211000D01*
G37*
G36*
X173189000Y-102211000D02*
G01*
X173189000Y-101711000D01*
X173689000Y-101711000D01*
X173689000Y-102211000D01*
X173189000Y-102211000D01*
G37*
G36*
X174189000Y-102211000D02*
G01*
X174189000Y-101711000D01*
X174689000Y-101711000D01*
X174689000Y-102211000D01*
X174189000Y-102211000D01*
G37*
G36*
X176689000Y-102211000D02*
G01*
X176689000Y-101711000D01*
X177189000Y-101711000D01*
X177189000Y-102211000D01*
X176689000Y-102211000D01*
G37*
G36*
X177189000Y-102211000D02*
G01*
X177189000Y-101711000D01*
X177689000Y-101711000D01*
X177689000Y-102211000D01*
X177189000Y-102211000D01*
G37*
G36*
X177689000Y-102211000D02*
G01*
X177689000Y-101711000D01*
X178189000Y-101711000D01*
X178189000Y-102211000D01*
X177689000Y-102211000D01*
G37*
G36*
X178189000Y-102211000D02*
G01*
X178189000Y-101711000D01*
X178689000Y-101711000D01*
X178689000Y-102211000D01*
X178189000Y-102211000D01*
G37*
G36*
X180689000Y-102211000D02*
G01*
X180689000Y-101711000D01*
X181189000Y-101711000D01*
X181189000Y-102211000D01*
X180689000Y-102211000D01*
G37*
G36*
X181689000Y-102211000D02*
G01*
X181689000Y-101711000D01*
X182189000Y-101711000D01*
X182189000Y-102211000D01*
X181689000Y-102211000D01*
G37*
G36*
X184689000Y-102211000D02*
G01*
X184689000Y-101711000D01*
X185189000Y-101711000D01*
X185189000Y-102211000D01*
X184689000Y-102211000D01*
G37*
G36*
X186189000Y-102211000D02*
G01*
X186189000Y-101711000D01*
X186689000Y-101711000D01*
X186689000Y-102211000D01*
X186189000Y-102211000D01*
G37*
G36*
X186689000Y-102211000D02*
G01*
X186689000Y-101711000D01*
X187189000Y-101711000D01*
X187189000Y-102211000D01*
X186689000Y-102211000D01*
G37*
G36*
X171689000Y-101711000D02*
G01*
X171689000Y-101211000D01*
X172189000Y-101211000D01*
X172189000Y-101711000D01*
X171689000Y-101711000D01*
G37*
G36*
X172689000Y-101711000D02*
G01*
X172689000Y-101211000D01*
X173189000Y-101211000D01*
X173189000Y-101711000D01*
X172689000Y-101711000D01*
G37*
G36*
X173189000Y-101711000D02*
G01*
X173189000Y-101211000D01*
X173689000Y-101211000D01*
X173689000Y-101711000D01*
X173189000Y-101711000D01*
G37*
G36*
X174189000Y-101711000D02*
G01*
X174189000Y-101211000D01*
X174689000Y-101211000D01*
X174689000Y-101711000D01*
X174189000Y-101711000D01*
G37*
G36*
X174689000Y-101711000D02*
G01*
X174689000Y-101211000D01*
X175189000Y-101211000D01*
X175189000Y-101711000D01*
X174689000Y-101711000D01*
G37*
G36*
X175689000Y-101711000D02*
G01*
X175689000Y-101211000D01*
X176189000Y-101211000D01*
X176189000Y-101711000D01*
X175689000Y-101711000D01*
G37*
G36*
X176689000Y-101711000D02*
G01*
X176689000Y-101211000D01*
X177189000Y-101211000D01*
X177189000Y-101711000D01*
X176689000Y-101711000D01*
G37*
G36*
X178189000Y-101711000D02*
G01*
X178189000Y-101211000D01*
X178689000Y-101211000D01*
X178689000Y-101711000D01*
X178189000Y-101711000D01*
G37*
G36*
X178689000Y-101711000D02*
G01*
X178689000Y-101211000D01*
X179189000Y-101211000D01*
X179189000Y-101711000D01*
X178689000Y-101711000D01*
G37*
G36*
X179189000Y-101711000D02*
G01*
X179189000Y-101211000D01*
X179689000Y-101211000D01*
X179689000Y-101711000D01*
X179189000Y-101711000D01*
G37*
G36*
X179689000Y-101711000D02*
G01*
X179689000Y-101211000D01*
X180189000Y-101211000D01*
X180189000Y-101711000D01*
X179689000Y-101711000D01*
G37*
G36*
X181689000Y-101711000D02*
G01*
X181689000Y-101211000D01*
X182189000Y-101211000D01*
X182189000Y-101711000D01*
X181689000Y-101711000D01*
G37*
G36*
X182189000Y-101711000D02*
G01*
X182189000Y-101211000D01*
X182689000Y-101211000D01*
X182689000Y-101711000D01*
X182189000Y-101711000D01*
G37*
G36*
X183189000Y-101711000D02*
G01*
X183189000Y-101211000D01*
X183689000Y-101211000D01*
X183689000Y-101711000D01*
X183189000Y-101711000D01*
G37*
G36*
X183689000Y-101711000D02*
G01*
X183689000Y-101211000D01*
X184189000Y-101211000D01*
X184189000Y-101711000D01*
X183689000Y-101711000D01*
G37*
G36*
X184189000Y-101711000D02*
G01*
X184189000Y-101211000D01*
X184689000Y-101211000D01*
X184689000Y-101711000D01*
X184189000Y-101711000D01*
G37*
G36*
X186689000Y-101711000D02*
G01*
X186689000Y-101211000D01*
X187189000Y-101211000D01*
X187189000Y-101711000D01*
X186689000Y-101711000D01*
G37*
G36*
X170689000Y-101211000D02*
G01*
X170689000Y-100711000D01*
X171189000Y-100711000D01*
X171189000Y-101211000D01*
X170689000Y-101211000D01*
G37*
G36*
X171689000Y-101211000D02*
G01*
X171689000Y-100711000D01*
X172189000Y-100711000D01*
X172189000Y-101211000D01*
X171689000Y-101211000D01*
G37*
G36*
X172189000Y-101211000D02*
G01*
X172189000Y-100711000D01*
X172689000Y-100711000D01*
X172689000Y-101211000D01*
X172189000Y-101211000D01*
G37*
G36*
X173189000Y-101211000D02*
G01*
X173189000Y-100711000D01*
X173689000Y-100711000D01*
X173689000Y-101211000D01*
X173189000Y-101211000D01*
G37*
G36*
X173689000Y-101211000D02*
G01*
X173689000Y-100711000D01*
X174189000Y-100711000D01*
X174189000Y-101211000D01*
X173689000Y-101211000D01*
G37*
G36*
X175189000Y-101211000D02*
G01*
X175189000Y-100711000D01*
X175689000Y-100711000D01*
X175689000Y-101211000D01*
X175189000Y-101211000D01*
G37*
G36*
X176689000Y-101211000D02*
G01*
X176689000Y-100711000D01*
X177189000Y-100711000D01*
X177189000Y-101211000D01*
X176689000Y-101211000D01*
G37*
G36*
X177189000Y-101211000D02*
G01*
X177189000Y-100711000D01*
X177689000Y-100711000D01*
X177689000Y-101211000D01*
X177189000Y-101211000D01*
G37*
G36*
X177689000Y-101211000D02*
G01*
X177689000Y-100711000D01*
X178189000Y-100711000D01*
X178189000Y-101211000D01*
X177689000Y-101211000D01*
G37*
G36*
X178189000Y-101211000D02*
G01*
X178189000Y-100711000D01*
X178689000Y-100711000D01*
X178689000Y-101211000D01*
X178189000Y-101211000D01*
G37*
G36*
X178689000Y-101211000D02*
G01*
X178689000Y-100711000D01*
X179189000Y-100711000D01*
X179189000Y-101211000D01*
X178689000Y-101211000D01*
G37*
G36*
X180189000Y-101211000D02*
G01*
X180189000Y-100711000D01*
X180689000Y-100711000D01*
X180689000Y-101211000D01*
X180189000Y-101211000D01*
G37*
G36*
X180689000Y-101211000D02*
G01*
X180689000Y-100711000D01*
X181189000Y-100711000D01*
X181189000Y-101211000D01*
X180689000Y-101211000D01*
G37*
G36*
X181189000Y-101211000D02*
G01*
X181189000Y-100711000D01*
X181689000Y-100711000D01*
X181689000Y-101211000D01*
X181189000Y-101211000D01*
G37*
G36*
X181689000Y-101211000D02*
G01*
X181689000Y-100711000D01*
X182189000Y-100711000D01*
X182189000Y-101211000D01*
X181689000Y-101211000D01*
G37*
G36*
X182189000Y-101211000D02*
G01*
X182189000Y-100711000D01*
X182689000Y-100711000D01*
X182689000Y-101211000D01*
X182189000Y-101211000D01*
G37*
G36*
X182689000Y-101211000D02*
G01*
X182689000Y-100711000D01*
X183189000Y-100711000D01*
X183189000Y-101211000D01*
X182689000Y-101211000D01*
G37*
G36*
X183189000Y-101211000D02*
G01*
X183189000Y-100711000D01*
X183689000Y-100711000D01*
X183689000Y-101211000D01*
X183189000Y-101211000D01*
G37*
G36*
X185689000Y-101211000D02*
G01*
X185689000Y-100711000D01*
X186189000Y-100711000D01*
X186189000Y-101211000D01*
X185689000Y-101211000D01*
G37*
G36*
X170689000Y-100711000D02*
G01*
X170689000Y-100211000D01*
X171189000Y-100211000D01*
X171189000Y-100711000D01*
X170689000Y-100711000D01*
G37*
G36*
X172689000Y-100711000D02*
G01*
X172689000Y-100211000D01*
X173189000Y-100211000D01*
X173189000Y-100711000D01*
X172689000Y-100711000D01*
G37*
G36*
X173189000Y-100711000D02*
G01*
X173189000Y-100211000D01*
X173689000Y-100211000D01*
X173689000Y-100711000D01*
X173189000Y-100711000D01*
G37*
G36*
X174189000Y-100711000D02*
G01*
X174189000Y-100211000D01*
X174689000Y-100211000D01*
X174689000Y-100711000D01*
X174189000Y-100711000D01*
G37*
G36*
X174689000Y-100711000D02*
G01*
X174689000Y-100211000D01*
X175189000Y-100211000D01*
X175189000Y-100711000D01*
X174689000Y-100711000D01*
G37*
G36*
X175689000Y-100711000D02*
G01*
X175689000Y-100211000D01*
X176189000Y-100211000D01*
X176189000Y-100711000D01*
X175689000Y-100711000D01*
G37*
G36*
X177189000Y-100711000D02*
G01*
X177189000Y-100211000D01*
X177689000Y-100211000D01*
X177689000Y-100711000D01*
X177189000Y-100711000D01*
G37*
G36*
X178189000Y-100711000D02*
G01*
X178189000Y-100211000D01*
X178689000Y-100211000D01*
X178689000Y-100711000D01*
X178189000Y-100711000D01*
G37*
G36*
X179689000Y-100711000D02*
G01*
X179689000Y-100211000D01*
X180189000Y-100211000D01*
X180189000Y-100711000D01*
X179689000Y-100711000D01*
G37*
G36*
X180189000Y-100711000D02*
G01*
X180189000Y-100211000D01*
X180689000Y-100211000D01*
X180689000Y-100711000D01*
X180189000Y-100711000D01*
G37*
G36*
X183689000Y-100711000D02*
G01*
X183689000Y-100211000D01*
X184189000Y-100211000D01*
X184189000Y-100711000D01*
X183689000Y-100711000D01*
G37*
G36*
X184189000Y-100711000D02*
G01*
X184189000Y-100211000D01*
X184689000Y-100211000D01*
X184689000Y-100711000D01*
X184189000Y-100711000D01*
G37*
G36*
X184689000Y-100711000D02*
G01*
X184689000Y-100211000D01*
X185189000Y-100211000D01*
X185189000Y-100711000D01*
X184689000Y-100711000D01*
G37*
G36*
X186189000Y-100711000D02*
G01*
X186189000Y-100211000D01*
X186689000Y-100211000D01*
X186689000Y-100711000D01*
X186189000Y-100711000D01*
G37*
G36*
X171689000Y-100211000D02*
G01*
X171689000Y-99711000D01*
X172189000Y-99711000D01*
X172189000Y-100211000D01*
X171689000Y-100211000D01*
G37*
G36*
X172189000Y-100211000D02*
G01*
X172189000Y-99711000D01*
X172689000Y-99711000D01*
X172689000Y-100211000D01*
X172189000Y-100211000D01*
G37*
G36*
X173689000Y-100211000D02*
G01*
X173689000Y-99711000D01*
X174189000Y-99711000D01*
X174189000Y-100211000D01*
X173689000Y-100211000D01*
G37*
G36*
X174189000Y-100211000D02*
G01*
X174189000Y-99711000D01*
X174689000Y-99711000D01*
X174689000Y-100211000D01*
X174189000Y-100211000D01*
G37*
G36*
X176189000Y-100211000D02*
G01*
X176189000Y-99711000D01*
X176689000Y-99711000D01*
X176689000Y-100211000D01*
X176189000Y-100211000D01*
G37*
G36*
X176689000Y-100211000D02*
G01*
X176689000Y-99711000D01*
X177189000Y-99711000D01*
X177189000Y-100211000D01*
X176689000Y-100211000D01*
G37*
G36*
X177189000Y-100211000D02*
G01*
X177189000Y-99711000D01*
X177689000Y-99711000D01*
X177689000Y-100211000D01*
X177189000Y-100211000D01*
G37*
G36*
X178689000Y-100211000D02*
G01*
X178689000Y-99711000D01*
X179189000Y-99711000D01*
X179189000Y-100211000D01*
X178689000Y-100211000D01*
G37*
G36*
X180689000Y-100211000D02*
G01*
X180689000Y-99711000D01*
X181189000Y-99711000D01*
X181189000Y-100211000D01*
X180689000Y-100211000D01*
G37*
G36*
X181189000Y-100211000D02*
G01*
X181189000Y-99711000D01*
X181689000Y-99711000D01*
X181689000Y-100211000D01*
X181189000Y-100211000D01*
G37*
G36*
X181689000Y-100211000D02*
G01*
X181689000Y-99711000D01*
X182189000Y-99711000D01*
X182189000Y-100211000D01*
X181689000Y-100211000D01*
G37*
G36*
X182189000Y-100211000D02*
G01*
X182189000Y-99711000D01*
X182689000Y-99711000D01*
X182689000Y-100211000D01*
X182189000Y-100211000D01*
G37*
G36*
X182689000Y-100211000D02*
G01*
X182689000Y-99711000D01*
X183189000Y-99711000D01*
X183189000Y-100211000D01*
X182689000Y-100211000D01*
G37*
G36*
X184189000Y-100211000D02*
G01*
X184189000Y-99711000D01*
X184689000Y-99711000D01*
X184689000Y-100211000D01*
X184189000Y-100211000D01*
G37*
G36*
X185189000Y-100211000D02*
G01*
X185189000Y-99711000D01*
X185689000Y-99711000D01*
X185689000Y-100211000D01*
X185189000Y-100211000D01*
G37*
G36*
X186189000Y-100211000D02*
G01*
X186189000Y-99711000D01*
X186689000Y-99711000D01*
X186689000Y-100211000D01*
X186189000Y-100211000D01*
G37*
G36*
X171189000Y-99711000D02*
G01*
X171189000Y-99211000D01*
X171689000Y-99211000D01*
X171689000Y-99711000D01*
X171189000Y-99711000D01*
G37*
G36*
X172189000Y-99711000D02*
G01*
X172189000Y-99211000D01*
X172689000Y-99211000D01*
X172689000Y-99711000D01*
X172189000Y-99711000D01*
G37*
G36*
X173689000Y-99711000D02*
G01*
X173689000Y-99211000D01*
X174189000Y-99211000D01*
X174189000Y-99711000D01*
X173689000Y-99711000D01*
G37*
G36*
X174189000Y-99711000D02*
G01*
X174189000Y-99211000D01*
X174689000Y-99211000D01*
X174689000Y-99711000D01*
X174189000Y-99711000D01*
G37*
G36*
X175689000Y-99711000D02*
G01*
X175689000Y-99211000D01*
X176189000Y-99211000D01*
X176189000Y-99711000D01*
X175689000Y-99711000D01*
G37*
G36*
X177189000Y-99711000D02*
G01*
X177189000Y-99211000D01*
X177689000Y-99211000D01*
X177689000Y-99711000D01*
X177189000Y-99711000D01*
G37*
G36*
X177689000Y-99711000D02*
G01*
X177689000Y-99211000D01*
X178189000Y-99211000D01*
X178189000Y-99711000D01*
X177689000Y-99711000D01*
G37*
G36*
X181689000Y-99711000D02*
G01*
X181689000Y-99211000D01*
X182189000Y-99211000D01*
X182189000Y-99711000D01*
X181689000Y-99711000D01*
G37*
G36*
X183689000Y-99711000D02*
G01*
X183689000Y-99211000D01*
X184189000Y-99211000D01*
X184189000Y-99711000D01*
X183689000Y-99711000D01*
G37*
G36*
X184689000Y-99711000D02*
G01*
X184689000Y-99211000D01*
X185189000Y-99211000D01*
X185189000Y-99711000D01*
X184689000Y-99711000D01*
G37*
G36*
X185689000Y-99711000D02*
G01*
X185689000Y-99211000D01*
X186189000Y-99211000D01*
X186189000Y-99711000D01*
X185689000Y-99711000D01*
G37*
G36*
X186189000Y-99711000D02*
G01*
X186189000Y-99211000D01*
X186689000Y-99211000D01*
X186689000Y-99711000D01*
X186189000Y-99711000D01*
G37*
G36*
X170689000Y-99211000D02*
G01*
X170689000Y-98711000D01*
X171189000Y-98711000D01*
X171189000Y-99211000D01*
X170689000Y-99211000D01*
G37*
G36*
X171189000Y-99211000D02*
G01*
X171189000Y-98711000D01*
X171689000Y-98711000D01*
X171689000Y-99211000D01*
X171189000Y-99211000D01*
G37*
G36*
X171689000Y-99211000D02*
G01*
X171689000Y-98711000D01*
X172189000Y-98711000D01*
X172189000Y-99211000D01*
X171689000Y-99211000D01*
G37*
G36*
X173689000Y-99211000D02*
G01*
X173689000Y-98711000D01*
X174189000Y-98711000D01*
X174189000Y-99211000D01*
X173689000Y-99211000D01*
G37*
G36*
X175189000Y-99211000D02*
G01*
X175189000Y-98711000D01*
X175689000Y-98711000D01*
X175689000Y-99211000D01*
X175189000Y-99211000D01*
G37*
G36*
X175689000Y-99211000D02*
G01*
X175689000Y-98711000D01*
X176189000Y-98711000D01*
X176189000Y-99211000D01*
X175689000Y-99211000D01*
G37*
G36*
X176689000Y-99211000D02*
G01*
X176689000Y-98711000D01*
X177189000Y-98711000D01*
X177189000Y-99211000D01*
X176689000Y-99211000D01*
G37*
G36*
X178189000Y-99211000D02*
G01*
X178189000Y-98711000D01*
X178689000Y-98711000D01*
X178689000Y-99211000D01*
X178189000Y-99211000D01*
G37*
G36*
X178689000Y-99211000D02*
G01*
X178689000Y-98711000D01*
X179189000Y-98711000D01*
X179189000Y-99211000D01*
X178689000Y-99211000D01*
G37*
G36*
X179189000Y-99211000D02*
G01*
X179189000Y-98711000D01*
X179689000Y-98711000D01*
X179689000Y-99211000D01*
X179189000Y-99211000D01*
G37*
G36*
X179689000Y-99211000D02*
G01*
X179689000Y-98711000D01*
X180189000Y-98711000D01*
X180189000Y-99211000D01*
X179689000Y-99211000D01*
G37*
G36*
X181189000Y-99211000D02*
G01*
X181189000Y-98711000D01*
X181689000Y-98711000D01*
X181689000Y-99211000D01*
X181189000Y-99211000D01*
G37*
G36*
X182689000Y-99211000D02*
G01*
X182689000Y-98711000D01*
X183189000Y-98711000D01*
X183189000Y-99211000D01*
X182689000Y-99211000D01*
G37*
G36*
X185689000Y-99211000D02*
G01*
X185689000Y-98711000D01*
X186189000Y-98711000D01*
X186189000Y-99211000D01*
X185689000Y-99211000D01*
G37*
G36*
X170689000Y-98711000D02*
G01*
X170689000Y-98211000D01*
X171189000Y-98211000D01*
X171189000Y-98711000D01*
X170689000Y-98711000D01*
G37*
G36*
X171189000Y-98711000D02*
G01*
X171189000Y-98211000D01*
X171689000Y-98211000D01*
X171689000Y-98711000D01*
X171189000Y-98711000D01*
G37*
G36*
X172189000Y-98711000D02*
G01*
X172189000Y-98211000D01*
X172689000Y-98211000D01*
X172689000Y-98711000D01*
X172189000Y-98711000D01*
G37*
G36*
X172689000Y-98711000D02*
G01*
X172689000Y-98211000D01*
X173189000Y-98211000D01*
X173189000Y-98711000D01*
X172689000Y-98711000D01*
G37*
G36*
X174189000Y-98711000D02*
G01*
X174189000Y-98211000D01*
X174689000Y-98211000D01*
X174689000Y-98711000D01*
X174189000Y-98711000D01*
G37*
G36*
X175189000Y-98711000D02*
G01*
X175189000Y-98211000D01*
X175689000Y-98211000D01*
X175689000Y-98711000D01*
X175189000Y-98711000D01*
G37*
G36*
X176189000Y-98711000D02*
G01*
X176189000Y-98211000D01*
X176689000Y-98211000D01*
X176689000Y-98711000D01*
X176189000Y-98711000D01*
G37*
G36*
X177189000Y-98711000D02*
G01*
X177189000Y-98211000D01*
X177689000Y-98211000D01*
X177689000Y-98711000D01*
X177189000Y-98711000D01*
G37*
G36*
X177689000Y-98711000D02*
G01*
X177689000Y-98211000D01*
X178189000Y-98211000D01*
X178189000Y-98711000D01*
X177689000Y-98711000D01*
G37*
G36*
X179189000Y-98711000D02*
G01*
X179189000Y-98211000D01*
X179689000Y-98211000D01*
X179689000Y-98711000D01*
X179189000Y-98711000D01*
G37*
G36*
X182189000Y-98711000D02*
G01*
X182189000Y-98211000D01*
X182689000Y-98211000D01*
X182689000Y-98711000D01*
X182189000Y-98711000D01*
G37*
G36*
X183189000Y-98711000D02*
G01*
X183189000Y-98211000D01*
X183689000Y-98211000D01*
X183689000Y-98711000D01*
X183189000Y-98711000D01*
G37*
G36*
X183689000Y-98711000D02*
G01*
X183689000Y-98211000D01*
X184189000Y-98211000D01*
X184189000Y-98711000D01*
X183689000Y-98711000D01*
G37*
G36*
X185189000Y-98711000D02*
G01*
X185189000Y-98211000D01*
X185689000Y-98211000D01*
X185689000Y-98711000D01*
X185189000Y-98711000D01*
G37*
G36*
X185689000Y-98711000D02*
G01*
X185689000Y-98211000D01*
X186189000Y-98211000D01*
X186189000Y-98711000D01*
X185689000Y-98711000D01*
G37*
G36*
X186689000Y-98711000D02*
G01*
X186689000Y-98211000D01*
X187189000Y-98211000D01*
X187189000Y-98711000D01*
X186689000Y-98711000D01*
G37*
G36*
X170689000Y-98211000D02*
G01*
X170689000Y-97711000D01*
X171189000Y-97711000D01*
X171189000Y-98211000D01*
X170689000Y-98211000D01*
G37*
G36*
X171189000Y-98211000D02*
G01*
X171189000Y-97711000D01*
X171689000Y-97711000D01*
X171689000Y-98211000D01*
X171189000Y-98211000D01*
G37*
G36*
X171689000Y-98211000D02*
G01*
X171689000Y-97711000D01*
X172189000Y-97711000D01*
X172189000Y-98211000D01*
X171689000Y-98211000D01*
G37*
G36*
X172189000Y-98211000D02*
G01*
X172189000Y-97711000D01*
X172689000Y-97711000D01*
X172689000Y-98211000D01*
X172189000Y-98211000D01*
G37*
G36*
X172689000Y-98211000D02*
G01*
X172689000Y-97711000D01*
X173189000Y-97711000D01*
X173189000Y-98211000D01*
X172689000Y-98211000D01*
G37*
G36*
X174689000Y-98211000D02*
G01*
X174689000Y-97711000D01*
X175189000Y-97711000D01*
X175189000Y-98211000D01*
X174689000Y-98211000D01*
G37*
G36*
X175689000Y-98211000D02*
G01*
X175689000Y-97711000D01*
X176189000Y-97711000D01*
X176189000Y-98211000D01*
X175689000Y-98211000D01*
G37*
G36*
X176189000Y-98211000D02*
G01*
X176189000Y-97711000D01*
X176689000Y-97711000D01*
X176689000Y-98211000D01*
X176189000Y-98211000D01*
G37*
G36*
X176689000Y-98211000D02*
G01*
X176689000Y-97711000D01*
X177189000Y-97711000D01*
X177189000Y-98211000D01*
X176689000Y-98211000D01*
G37*
G36*
X177189000Y-98211000D02*
G01*
X177189000Y-97711000D01*
X177689000Y-97711000D01*
X177689000Y-98211000D01*
X177189000Y-98211000D01*
G37*
G36*
X179189000Y-98211000D02*
G01*
X179189000Y-97711000D01*
X179689000Y-97711000D01*
X179689000Y-98211000D01*
X179189000Y-98211000D01*
G37*
G36*
X179689000Y-98211000D02*
G01*
X179689000Y-97711000D01*
X180189000Y-97711000D01*
X180189000Y-98211000D01*
X179689000Y-98211000D01*
G37*
G36*
X181189000Y-98211000D02*
G01*
X181189000Y-97711000D01*
X181689000Y-97711000D01*
X181689000Y-98211000D01*
X181189000Y-98211000D01*
G37*
G36*
X182689000Y-98211000D02*
G01*
X182689000Y-97711000D01*
X183189000Y-97711000D01*
X183189000Y-98211000D01*
X182689000Y-98211000D01*
G37*
G36*
X183189000Y-98211000D02*
G01*
X183189000Y-97711000D01*
X183689000Y-97711000D01*
X183689000Y-98211000D01*
X183189000Y-98211000D01*
G37*
G36*
X184689000Y-98211000D02*
G01*
X184689000Y-97711000D01*
X185189000Y-97711000D01*
X185189000Y-98211000D01*
X184689000Y-98211000D01*
G37*
G36*
X185689000Y-98211000D02*
G01*
X185689000Y-97711000D01*
X186189000Y-97711000D01*
X186189000Y-98211000D01*
X185689000Y-98211000D01*
G37*
G36*
X186189000Y-98211000D02*
G01*
X186189000Y-97711000D01*
X186689000Y-97711000D01*
X186689000Y-98211000D01*
X186189000Y-98211000D01*
G37*
G36*
X186689000Y-98211000D02*
G01*
X186689000Y-97711000D01*
X187189000Y-97711000D01*
X187189000Y-98211000D01*
X186689000Y-98211000D01*
G37*
G36*
X171189000Y-97711000D02*
G01*
X171189000Y-97211000D01*
X171689000Y-97211000D01*
X171689000Y-97711000D01*
X171189000Y-97711000D01*
G37*
G36*
X171689000Y-97711000D02*
G01*
X171689000Y-97211000D01*
X172189000Y-97211000D01*
X172189000Y-97711000D01*
X171689000Y-97711000D01*
G37*
G36*
X172689000Y-97711000D02*
G01*
X172689000Y-97211000D01*
X173189000Y-97211000D01*
X173189000Y-97711000D01*
X172689000Y-97711000D01*
G37*
G36*
X174189000Y-97711000D02*
G01*
X174189000Y-97211000D01*
X174689000Y-97211000D01*
X174689000Y-97711000D01*
X174189000Y-97711000D01*
G37*
G36*
X174689000Y-97711000D02*
G01*
X174689000Y-97211000D01*
X175189000Y-97211000D01*
X175189000Y-97711000D01*
X174689000Y-97711000D01*
G37*
G36*
X176189000Y-97711000D02*
G01*
X176189000Y-97211000D01*
X176689000Y-97211000D01*
X176689000Y-97711000D01*
X176189000Y-97711000D01*
G37*
G36*
X176689000Y-97711000D02*
G01*
X176689000Y-97211000D01*
X177189000Y-97211000D01*
X177189000Y-97711000D01*
X176689000Y-97711000D01*
G37*
G36*
X177689000Y-97711000D02*
G01*
X177689000Y-97211000D01*
X178189000Y-97211000D01*
X178189000Y-97711000D01*
X177689000Y-97711000D01*
G37*
G36*
X178689000Y-97711000D02*
G01*
X178689000Y-97211000D01*
X179189000Y-97211000D01*
X179189000Y-97711000D01*
X178689000Y-97711000D01*
G37*
G36*
X179189000Y-97711000D02*
G01*
X179189000Y-97211000D01*
X179689000Y-97211000D01*
X179689000Y-97711000D01*
X179189000Y-97711000D01*
G37*
G36*
X181189000Y-97711000D02*
G01*
X181189000Y-97211000D01*
X181689000Y-97211000D01*
X181689000Y-97711000D01*
X181189000Y-97711000D01*
G37*
G36*
X183189000Y-97711000D02*
G01*
X183189000Y-97211000D01*
X183689000Y-97211000D01*
X183689000Y-97711000D01*
X183189000Y-97711000D01*
G37*
G36*
X183689000Y-97711000D02*
G01*
X183689000Y-97211000D01*
X184189000Y-97211000D01*
X184189000Y-97711000D01*
X183689000Y-97711000D01*
G37*
G36*
X184189000Y-97711000D02*
G01*
X184189000Y-97211000D01*
X184689000Y-97211000D01*
X184689000Y-97711000D01*
X184189000Y-97711000D01*
G37*
G36*
X184689000Y-97711000D02*
G01*
X184689000Y-97211000D01*
X185189000Y-97211000D01*
X185189000Y-97711000D01*
X184689000Y-97711000D01*
G37*
G36*
X185189000Y-97711000D02*
G01*
X185189000Y-97211000D01*
X185689000Y-97211000D01*
X185689000Y-97711000D01*
X185189000Y-97711000D01*
G37*
G36*
X186689000Y-97711000D02*
G01*
X186689000Y-97211000D01*
X187189000Y-97211000D01*
X187189000Y-97711000D01*
X186689000Y-97711000D01*
G37*
G36*
X171689000Y-97211000D02*
G01*
X171689000Y-96711000D01*
X172189000Y-96711000D01*
X172189000Y-97211000D01*
X171689000Y-97211000D01*
G37*
G36*
X172189000Y-97211000D02*
G01*
X172189000Y-96711000D01*
X172689000Y-96711000D01*
X172689000Y-97211000D01*
X172189000Y-97211000D01*
G37*
G36*
X173189000Y-97211000D02*
G01*
X173189000Y-96711000D01*
X173689000Y-96711000D01*
X173689000Y-97211000D01*
X173189000Y-97211000D01*
G37*
G36*
X173689000Y-97211000D02*
G01*
X173689000Y-96711000D01*
X174189000Y-96711000D01*
X174189000Y-97211000D01*
X173689000Y-97211000D01*
G37*
G36*
X175189000Y-97211000D02*
G01*
X175189000Y-96711000D01*
X175689000Y-96711000D01*
X175689000Y-97211000D01*
X175189000Y-97211000D01*
G37*
G36*
X176189000Y-97211000D02*
G01*
X176189000Y-96711000D01*
X176689000Y-96711000D01*
X176689000Y-97211000D01*
X176189000Y-97211000D01*
G37*
G36*
X176689000Y-97211000D02*
G01*
X176689000Y-96711000D01*
X177189000Y-96711000D01*
X177189000Y-97211000D01*
X176689000Y-97211000D01*
G37*
G36*
X177189000Y-97211000D02*
G01*
X177189000Y-96711000D01*
X177689000Y-96711000D01*
X177689000Y-97211000D01*
X177189000Y-97211000D01*
G37*
G36*
X177689000Y-97211000D02*
G01*
X177689000Y-96711000D01*
X178189000Y-96711000D01*
X178189000Y-97211000D01*
X177689000Y-97211000D01*
G37*
G36*
X178689000Y-97211000D02*
G01*
X178689000Y-96711000D01*
X179189000Y-96711000D01*
X179189000Y-97211000D01*
X178689000Y-97211000D01*
G37*
G36*
X181689000Y-97211000D02*
G01*
X181689000Y-96711000D01*
X182189000Y-96711000D01*
X182189000Y-97211000D01*
X181689000Y-97211000D01*
G37*
G36*
X185189000Y-97211000D02*
G01*
X185189000Y-96711000D01*
X185689000Y-96711000D01*
X185689000Y-97211000D01*
X185189000Y-97211000D01*
G37*
G36*
X186189000Y-97211000D02*
G01*
X186189000Y-96711000D01*
X186689000Y-96711000D01*
X186689000Y-97211000D01*
X186189000Y-97211000D01*
G37*
G36*
X186689000Y-97211000D02*
G01*
X186689000Y-96711000D01*
X187189000Y-96711000D01*
X187189000Y-97211000D01*
X186689000Y-97211000D01*
G37*
G36*
X171689000Y-96711000D02*
G01*
X171689000Y-96211000D01*
X172189000Y-96211000D01*
X172189000Y-96711000D01*
X171689000Y-96711000D01*
G37*
G36*
X172189000Y-96711000D02*
G01*
X172189000Y-96211000D01*
X172689000Y-96211000D01*
X172689000Y-96711000D01*
X172189000Y-96711000D01*
G37*
G36*
X172689000Y-96711000D02*
G01*
X172689000Y-96211000D01*
X173189000Y-96211000D01*
X173189000Y-96711000D01*
X172689000Y-96711000D01*
G37*
G36*
X173189000Y-96711000D02*
G01*
X173189000Y-96211000D01*
X173689000Y-96211000D01*
X173689000Y-96711000D01*
X173189000Y-96711000D01*
G37*
G36*
X173689000Y-96711000D02*
G01*
X173689000Y-96211000D01*
X174189000Y-96211000D01*
X174189000Y-96711000D01*
X173689000Y-96711000D01*
G37*
G36*
X176689000Y-96711000D02*
G01*
X176689000Y-96211000D01*
X177189000Y-96211000D01*
X177189000Y-96711000D01*
X176689000Y-96711000D01*
G37*
G36*
X178189000Y-96711000D02*
G01*
X178189000Y-96211000D01*
X178689000Y-96211000D01*
X178689000Y-96711000D01*
X178189000Y-96711000D01*
G37*
G36*
X179189000Y-96711000D02*
G01*
X179189000Y-96211000D01*
X179689000Y-96211000D01*
X179689000Y-96711000D01*
X179189000Y-96711000D01*
G37*
G36*
X179689000Y-96711000D02*
G01*
X179689000Y-96211000D01*
X180189000Y-96211000D01*
X180189000Y-96711000D01*
X179689000Y-96711000D01*
G37*
G36*
X180189000Y-96711000D02*
G01*
X180189000Y-96211000D01*
X180689000Y-96211000D01*
X180689000Y-96711000D01*
X180189000Y-96711000D01*
G37*
G36*
X180689000Y-96711000D02*
G01*
X180689000Y-96211000D01*
X181189000Y-96211000D01*
X181189000Y-96711000D01*
X180689000Y-96711000D01*
G37*
G36*
X181189000Y-96711000D02*
G01*
X181189000Y-96211000D01*
X181689000Y-96211000D01*
X181689000Y-96711000D01*
X181189000Y-96711000D01*
G37*
G36*
X182189000Y-96711000D02*
G01*
X182189000Y-96211000D01*
X182689000Y-96211000D01*
X182689000Y-96711000D01*
X182189000Y-96711000D01*
G37*
G36*
X183689000Y-96711000D02*
G01*
X183689000Y-96211000D01*
X184189000Y-96211000D01*
X184189000Y-96711000D01*
X183689000Y-96711000D01*
G37*
G36*
X184189000Y-96711000D02*
G01*
X184189000Y-96211000D01*
X184689000Y-96211000D01*
X184689000Y-96711000D01*
X184189000Y-96711000D01*
G37*
G36*
X184689000Y-96711000D02*
G01*
X184689000Y-96211000D01*
X185189000Y-96211000D01*
X185189000Y-96711000D01*
X184689000Y-96711000D01*
G37*
G36*
X185189000Y-96711000D02*
G01*
X185189000Y-96211000D01*
X185689000Y-96211000D01*
X185689000Y-96711000D01*
X185189000Y-96711000D01*
G37*
G36*
X185689000Y-96711000D02*
G01*
X185689000Y-96211000D01*
X186189000Y-96211000D01*
X186189000Y-96711000D01*
X185689000Y-96711000D01*
G37*
G36*
X186689000Y-96711000D02*
G01*
X186689000Y-96211000D01*
X187189000Y-96211000D01*
X187189000Y-96711000D01*
X186689000Y-96711000D01*
G37*
G36*
X174689000Y-96211000D02*
G01*
X174689000Y-95711000D01*
X175189000Y-95711000D01*
X175189000Y-96211000D01*
X174689000Y-96211000D01*
G37*
G36*
X175189000Y-96211000D02*
G01*
X175189000Y-95711000D01*
X175689000Y-95711000D01*
X175689000Y-96211000D01*
X175189000Y-96211000D01*
G37*
G36*
X176189000Y-96211000D02*
G01*
X176189000Y-95711000D01*
X176689000Y-95711000D01*
X176689000Y-96211000D01*
X176189000Y-96211000D01*
G37*
G36*
X177689000Y-96211000D02*
G01*
X177689000Y-95711000D01*
X178189000Y-95711000D01*
X178189000Y-96211000D01*
X177689000Y-96211000D01*
G37*
G36*
X179189000Y-96211000D02*
G01*
X179189000Y-95711000D01*
X179689000Y-95711000D01*
X179689000Y-96211000D01*
X179189000Y-96211000D01*
G37*
G36*
X180689000Y-96211000D02*
G01*
X180689000Y-95711000D01*
X181189000Y-95711000D01*
X181189000Y-96211000D01*
X180689000Y-96211000D01*
G37*
G36*
X182689000Y-96211000D02*
G01*
X182689000Y-95711000D01*
X183189000Y-95711000D01*
X183189000Y-96211000D01*
X182689000Y-96211000D01*
G37*
G36*
X170689000Y-95711000D02*
G01*
X170689000Y-95211000D01*
X171189000Y-95211000D01*
X171189000Y-95711000D01*
X170689000Y-95711000D01*
G37*
G36*
X171189000Y-95711000D02*
G01*
X171189000Y-95211000D01*
X171689000Y-95211000D01*
X171689000Y-95711000D01*
X171189000Y-95711000D01*
G37*
G36*
X171689000Y-95711000D02*
G01*
X171689000Y-95211000D01*
X172189000Y-95211000D01*
X172189000Y-95711000D01*
X171689000Y-95711000D01*
G37*
G36*
X172189000Y-95711000D02*
G01*
X172189000Y-95211000D01*
X172689000Y-95211000D01*
X172689000Y-95711000D01*
X172189000Y-95711000D01*
G37*
G36*
X172689000Y-95711000D02*
G01*
X172689000Y-95211000D01*
X173189000Y-95211000D01*
X173189000Y-95711000D01*
X172689000Y-95711000D01*
G37*
G36*
X173189000Y-95711000D02*
G01*
X173189000Y-95211000D01*
X173689000Y-95211000D01*
X173689000Y-95711000D01*
X173189000Y-95711000D01*
G37*
G36*
X173689000Y-95711000D02*
G01*
X173689000Y-95211000D01*
X174189000Y-95211000D01*
X174189000Y-95711000D01*
X173689000Y-95711000D01*
G37*
G36*
X174689000Y-95711000D02*
G01*
X174689000Y-95211000D01*
X175189000Y-95211000D01*
X175189000Y-95711000D01*
X174689000Y-95711000D01*
G37*
G36*
X175689000Y-95711000D02*
G01*
X175689000Y-95211000D01*
X176189000Y-95211000D01*
X176189000Y-95711000D01*
X175689000Y-95711000D01*
G37*
G36*
X176689000Y-95711000D02*
G01*
X176689000Y-95211000D01*
X177189000Y-95211000D01*
X177189000Y-95711000D01*
X176689000Y-95711000D01*
G37*
G36*
X177689000Y-95711000D02*
G01*
X177689000Y-95211000D01*
X178189000Y-95211000D01*
X178189000Y-95711000D01*
X177689000Y-95711000D01*
G37*
G36*
X178689000Y-95711000D02*
G01*
X178689000Y-95211000D01*
X179189000Y-95211000D01*
X179189000Y-95711000D01*
X178689000Y-95711000D01*
G37*
G36*
X179689000Y-95711000D02*
G01*
X179689000Y-95211000D01*
X180189000Y-95211000D01*
X180189000Y-95711000D01*
X179689000Y-95711000D01*
G37*
G36*
X180689000Y-95711000D02*
G01*
X180689000Y-95211000D01*
X181189000Y-95211000D01*
X181189000Y-95711000D01*
X180689000Y-95711000D01*
G37*
G36*
X181689000Y-95711000D02*
G01*
X181689000Y-95211000D01*
X182189000Y-95211000D01*
X182189000Y-95711000D01*
X181689000Y-95711000D01*
G37*
G36*
X182689000Y-95711000D02*
G01*
X182689000Y-95211000D01*
X183189000Y-95211000D01*
X183189000Y-95711000D01*
X182689000Y-95711000D01*
G37*
G36*
X183689000Y-95711000D02*
G01*
X183689000Y-95211000D01*
X184189000Y-95211000D01*
X184189000Y-95711000D01*
X183689000Y-95711000D01*
G37*
G36*
X184189000Y-95711000D02*
G01*
X184189000Y-95211000D01*
X184689000Y-95211000D01*
X184689000Y-95711000D01*
X184189000Y-95711000D01*
G37*
G36*
X184689000Y-95711000D02*
G01*
X184689000Y-95211000D01*
X185189000Y-95211000D01*
X185189000Y-95711000D01*
X184689000Y-95711000D01*
G37*
G36*
X185189000Y-95711000D02*
G01*
X185189000Y-95211000D01*
X185689000Y-95211000D01*
X185689000Y-95711000D01*
X185189000Y-95711000D01*
G37*
G36*
X185689000Y-95711000D02*
G01*
X185689000Y-95211000D01*
X186189000Y-95211000D01*
X186189000Y-95711000D01*
X185689000Y-95711000D01*
G37*
G36*
X186189000Y-95711000D02*
G01*
X186189000Y-95211000D01*
X186689000Y-95211000D01*
X186689000Y-95711000D01*
X186189000Y-95711000D01*
G37*
G36*
X186689000Y-95711000D02*
G01*
X186689000Y-95211000D01*
X187189000Y-95211000D01*
X187189000Y-95711000D01*
X186689000Y-95711000D01*
G37*
G36*
X170689000Y-95211000D02*
G01*
X170689000Y-94711000D01*
X171189000Y-94711000D01*
X171189000Y-95211000D01*
X170689000Y-95211000D01*
G37*
G36*
X173689000Y-95211000D02*
G01*
X173689000Y-94711000D01*
X174189000Y-94711000D01*
X174189000Y-95211000D01*
X173689000Y-95211000D01*
G37*
G36*
X174689000Y-95211000D02*
G01*
X174689000Y-94711000D01*
X175189000Y-94711000D01*
X175189000Y-95211000D01*
X174689000Y-95211000D01*
G37*
G36*
X176689000Y-95211000D02*
G01*
X176689000Y-94711000D01*
X177189000Y-94711000D01*
X177189000Y-95211000D01*
X176689000Y-95211000D01*
G37*
G36*
X178189000Y-95211000D02*
G01*
X178189000Y-94711000D01*
X178689000Y-94711000D01*
X178689000Y-95211000D01*
X178189000Y-95211000D01*
G37*
G36*
X178689000Y-95211000D02*
G01*
X178689000Y-94711000D01*
X179189000Y-94711000D01*
X179189000Y-95211000D01*
X178689000Y-95211000D01*
G37*
G36*
X179189000Y-95211000D02*
G01*
X179189000Y-94711000D01*
X179689000Y-94711000D01*
X179689000Y-95211000D01*
X179189000Y-95211000D01*
G37*
G36*
X179689000Y-95211000D02*
G01*
X179689000Y-94711000D01*
X180189000Y-94711000D01*
X180189000Y-95211000D01*
X179689000Y-95211000D01*
G37*
G36*
X180689000Y-95211000D02*
G01*
X180689000Y-94711000D01*
X181189000Y-94711000D01*
X181189000Y-95211000D01*
X180689000Y-95211000D01*
G37*
G36*
X181189000Y-95211000D02*
G01*
X181189000Y-94711000D01*
X181689000Y-94711000D01*
X181689000Y-95211000D01*
X181189000Y-95211000D01*
G37*
G36*
X182189000Y-95211000D02*
G01*
X182189000Y-94711000D01*
X182689000Y-94711000D01*
X182689000Y-95211000D01*
X182189000Y-95211000D01*
G37*
G36*
X182689000Y-95211000D02*
G01*
X182689000Y-94711000D01*
X183189000Y-94711000D01*
X183189000Y-95211000D01*
X182689000Y-95211000D01*
G37*
G36*
X183689000Y-95211000D02*
G01*
X183689000Y-94711000D01*
X184189000Y-94711000D01*
X184189000Y-95211000D01*
X183689000Y-95211000D01*
G37*
G36*
X186689000Y-95211000D02*
G01*
X186689000Y-94711000D01*
X187189000Y-94711000D01*
X187189000Y-95211000D01*
X186689000Y-95211000D01*
G37*
G36*
X170689000Y-94711000D02*
G01*
X170689000Y-94211000D01*
X171189000Y-94211000D01*
X171189000Y-94711000D01*
X170689000Y-94711000D01*
G37*
G36*
X171689000Y-94711000D02*
G01*
X171689000Y-94211000D01*
X172189000Y-94211000D01*
X172189000Y-94711000D01*
X171689000Y-94711000D01*
G37*
G36*
X172189000Y-94711000D02*
G01*
X172189000Y-94211000D01*
X172689000Y-94211000D01*
X172689000Y-94711000D01*
X172189000Y-94711000D01*
G37*
G36*
X172689000Y-94711000D02*
G01*
X172689000Y-94211000D01*
X173189000Y-94211000D01*
X173189000Y-94711000D01*
X172689000Y-94711000D01*
G37*
G36*
X173689000Y-94711000D02*
G01*
X173689000Y-94211000D01*
X174189000Y-94211000D01*
X174189000Y-94711000D01*
X173689000Y-94711000D01*
G37*
G36*
X174689000Y-94711000D02*
G01*
X174689000Y-94211000D01*
X175189000Y-94211000D01*
X175189000Y-94711000D01*
X174689000Y-94711000D01*
G37*
G36*
X176189000Y-94711000D02*
G01*
X176189000Y-94211000D01*
X176689000Y-94211000D01*
X176689000Y-94711000D01*
X176189000Y-94711000D01*
G37*
G36*
X177689000Y-94711000D02*
G01*
X177689000Y-94211000D01*
X178189000Y-94211000D01*
X178189000Y-94711000D01*
X177689000Y-94711000D01*
G37*
G36*
X179189000Y-94711000D02*
G01*
X179189000Y-94211000D01*
X179689000Y-94211000D01*
X179689000Y-94711000D01*
X179189000Y-94711000D01*
G37*
G36*
X182189000Y-94711000D02*
G01*
X182189000Y-94211000D01*
X182689000Y-94211000D01*
X182689000Y-94711000D01*
X182189000Y-94711000D01*
G37*
G36*
X182689000Y-94711000D02*
G01*
X182689000Y-94211000D01*
X183189000Y-94211000D01*
X183189000Y-94711000D01*
X182689000Y-94711000D01*
G37*
G36*
X183689000Y-94711000D02*
G01*
X183689000Y-94211000D01*
X184189000Y-94211000D01*
X184189000Y-94711000D01*
X183689000Y-94711000D01*
G37*
G36*
X184689000Y-94711000D02*
G01*
X184689000Y-94211000D01*
X185189000Y-94211000D01*
X185189000Y-94711000D01*
X184689000Y-94711000D01*
G37*
G36*
X185189000Y-94711000D02*
G01*
X185189000Y-94211000D01*
X185689000Y-94211000D01*
X185689000Y-94711000D01*
X185189000Y-94711000D01*
G37*
G36*
X185689000Y-94711000D02*
G01*
X185689000Y-94211000D01*
X186189000Y-94211000D01*
X186189000Y-94711000D01*
X185689000Y-94711000D01*
G37*
G36*
X186689000Y-94711000D02*
G01*
X186689000Y-94211000D01*
X187189000Y-94211000D01*
X187189000Y-94711000D01*
X186689000Y-94711000D01*
G37*
G36*
X170689000Y-94211000D02*
G01*
X170689000Y-93711000D01*
X171189000Y-93711000D01*
X171189000Y-94211000D01*
X170689000Y-94211000D01*
G37*
G36*
X171689000Y-94211000D02*
G01*
X171689000Y-93711000D01*
X172189000Y-93711000D01*
X172189000Y-94211000D01*
X171689000Y-94211000D01*
G37*
G36*
X172189000Y-94211000D02*
G01*
X172189000Y-93711000D01*
X172689000Y-93711000D01*
X172689000Y-94211000D01*
X172189000Y-94211000D01*
G37*
G36*
X172689000Y-94211000D02*
G01*
X172689000Y-93711000D01*
X173189000Y-93711000D01*
X173189000Y-94211000D01*
X172689000Y-94211000D01*
G37*
G36*
X173689000Y-94211000D02*
G01*
X173689000Y-93711000D01*
X174189000Y-93711000D01*
X174189000Y-94211000D01*
X173689000Y-94211000D01*
G37*
G36*
X174689000Y-94211000D02*
G01*
X174689000Y-93711000D01*
X175189000Y-93711000D01*
X175189000Y-94211000D01*
X174689000Y-94211000D01*
G37*
G36*
X175689000Y-94211000D02*
G01*
X175689000Y-93711000D01*
X176189000Y-93711000D01*
X176189000Y-94211000D01*
X175689000Y-94211000D01*
G37*
G36*
X176189000Y-94211000D02*
G01*
X176189000Y-93711000D01*
X176689000Y-93711000D01*
X176689000Y-94211000D01*
X176189000Y-94211000D01*
G37*
G36*
X176689000Y-94211000D02*
G01*
X176689000Y-93711000D01*
X177189000Y-93711000D01*
X177189000Y-94211000D01*
X176689000Y-94211000D01*
G37*
G36*
X177189000Y-94211000D02*
G01*
X177189000Y-93711000D01*
X177689000Y-93711000D01*
X177689000Y-94211000D01*
X177189000Y-94211000D01*
G37*
G36*
X178689000Y-94211000D02*
G01*
X178689000Y-93711000D01*
X179189000Y-93711000D01*
X179189000Y-94211000D01*
X178689000Y-94211000D01*
G37*
G36*
X179189000Y-94211000D02*
G01*
X179189000Y-93711000D01*
X179689000Y-93711000D01*
X179689000Y-94211000D01*
X179189000Y-94211000D01*
G37*
G36*
X179689000Y-94211000D02*
G01*
X179689000Y-93711000D01*
X180189000Y-93711000D01*
X180189000Y-94211000D01*
X179689000Y-94211000D01*
G37*
G36*
X182689000Y-94211000D02*
G01*
X182689000Y-93711000D01*
X183189000Y-93711000D01*
X183189000Y-94211000D01*
X182689000Y-94211000D01*
G37*
G36*
X183689000Y-94211000D02*
G01*
X183689000Y-93711000D01*
X184189000Y-93711000D01*
X184189000Y-94211000D01*
X183689000Y-94211000D01*
G37*
G36*
X184689000Y-94211000D02*
G01*
X184689000Y-93711000D01*
X185189000Y-93711000D01*
X185189000Y-94211000D01*
X184689000Y-94211000D01*
G37*
G36*
X185189000Y-94211000D02*
G01*
X185189000Y-93711000D01*
X185689000Y-93711000D01*
X185689000Y-94211000D01*
X185189000Y-94211000D01*
G37*
G36*
X185689000Y-94211000D02*
G01*
X185689000Y-93711000D01*
X186189000Y-93711000D01*
X186189000Y-94211000D01*
X185689000Y-94211000D01*
G37*
G36*
X186689000Y-94211000D02*
G01*
X186689000Y-93711000D01*
X187189000Y-93711000D01*
X187189000Y-94211000D01*
X186689000Y-94211000D01*
G37*
G36*
X170689000Y-93711000D02*
G01*
X170689000Y-93211000D01*
X171189000Y-93211000D01*
X171189000Y-93711000D01*
X170689000Y-93711000D01*
G37*
G36*
X171689000Y-93711000D02*
G01*
X171689000Y-93211000D01*
X172189000Y-93211000D01*
X172189000Y-93711000D01*
X171689000Y-93711000D01*
G37*
G36*
X172189000Y-93711000D02*
G01*
X172189000Y-93211000D01*
X172689000Y-93211000D01*
X172689000Y-93711000D01*
X172189000Y-93711000D01*
G37*
G36*
X172689000Y-93711000D02*
G01*
X172689000Y-93211000D01*
X173189000Y-93211000D01*
X173189000Y-93711000D01*
X172689000Y-93711000D01*
G37*
G36*
X173689000Y-93711000D02*
G01*
X173689000Y-93211000D01*
X174189000Y-93211000D01*
X174189000Y-93711000D01*
X173689000Y-93711000D01*
G37*
G36*
X177689000Y-93711000D02*
G01*
X177689000Y-93211000D01*
X178189000Y-93211000D01*
X178189000Y-93711000D01*
X177689000Y-93711000D01*
G37*
G36*
X178189000Y-93711000D02*
G01*
X178189000Y-93211000D01*
X178689000Y-93211000D01*
X178689000Y-93711000D01*
X178189000Y-93711000D01*
G37*
G36*
X179189000Y-93711000D02*
G01*
X179189000Y-93211000D01*
X179689000Y-93211000D01*
X179689000Y-93711000D01*
X179189000Y-93711000D01*
G37*
G36*
X180189000Y-93711000D02*
G01*
X180189000Y-93211000D01*
X180689000Y-93211000D01*
X180689000Y-93711000D01*
X180189000Y-93711000D01*
G37*
G36*
X181189000Y-93711000D02*
G01*
X181189000Y-93211000D01*
X181689000Y-93211000D01*
X181689000Y-93711000D01*
X181189000Y-93711000D01*
G37*
G36*
X181689000Y-93711000D02*
G01*
X181689000Y-93211000D01*
X182189000Y-93211000D01*
X182189000Y-93711000D01*
X181689000Y-93711000D01*
G37*
G36*
X182189000Y-93711000D02*
G01*
X182189000Y-93211000D01*
X182689000Y-93211000D01*
X182689000Y-93711000D01*
X182189000Y-93711000D01*
G37*
G36*
X182689000Y-93711000D02*
G01*
X182689000Y-93211000D01*
X183189000Y-93211000D01*
X183189000Y-93711000D01*
X182689000Y-93711000D01*
G37*
G36*
X183689000Y-93711000D02*
G01*
X183689000Y-93211000D01*
X184189000Y-93211000D01*
X184189000Y-93711000D01*
X183689000Y-93711000D01*
G37*
G36*
X184689000Y-93711000D02*
G01*
X184689000Y-93211000D01*
X185189000Y-93211000D01*
X185189000Y-93711000D01*
X184689000Y-93711000D01*
G37*
G36*
X185189000Y-93711000D02*
G01*
X185189000Y-93211000D01*
X185689000Y-93211000D01*
X185689000Y-93711000D01*
X185189000Y-93711000D01*
G37*
G36*
X185689000Y-93711000D02*
G01*
X185689000Y-93211000D01*
X186189000Y-93211000D01*
X186189000Y-93711000D01*
X185689000Y-93711000D01*
G37*
G36*
X186689000Y-93711000D02*
G01*
X186689000Y-93211000D01*
X187189000Y-93211000D01*
X187189000Y-93711000D01*
X186689000Y-93711000D01*
G37*
G36*
X170689000Y-93211000D02*
G01*
X170689000Y-92711000D01*
X171189000Y-92711000D01*
X171189000Y-93211000D01*
X170689000Y-93211000D01*
G37*
G36*
X173689000Y-93211000D02*
G01*
X173689000Y-92711000D01*
X174189000Y-92711000D01*
X174189000Y-93211000D01*
X173689000Y-93211000D01*
G37*
G36*
X175689000Y-93211000D02*
G01*
X175689000Y-92711000D01*
X176189000Y-92711000D01*
X176189000Y-93211000D01*
X175689000Y-93211000D01*
G37*
G36*
X176689000Y-93211000D02*
G01*
X176689000Y-92711000D01*
X177189000Y-92711000D01*
X177189000Y-93211000D01*
X176689000Y-93211000D01*
G37*
G36*
X178189000Y-93211000D02*
G01*
X178189000Y-92711000D01*
X178689000Y-92711000D01*
X178689000Y-93211000D01*
X178189000Y-93211000D01*
G37*
G36*
X178689000Y-93211000D02*
G01*
X178689000Y-92711000D01*
X179189000Y-92711000D01*
X179189000Y-93211000D01*
X178689000Y-93211000D01*
G37*
G36*
X179189000Y-93211000D02*
G01*
X179189000Y-92711000D01*
X179689000Y-92711000D01*
X179689000Y-93211000D01*
X179189000Y-93211000D01*
G37*
G36*
X179689000Y-93211000D02*
G01*
X179689000Y-92711000D01*
X180189000Y-92711000D01*
X180189000Y-93211000D01*
X179689000Y-93211000D01*
G37*
G36*
X180189000Y-93211000D02*
G01*
X180189000Y-92711000D01*
X180689000Y-92711000D01*
X180689000Y-93211000D01*
X180189000Y-93211000D01*
G37*
G36*
X180689000Y-93211000D02*
G01*
X180689000Y-92711000D01*
X181189000Y-92711000D01*
X181189000Y-93211000D01*
X180689000Y-93211000D01*
G37*
G36*
X182189000Y-93211000D02*
G01*
X182189000Y-92711000D01*
X182689000Y-92711000D01*
X182689000Y-93211000D01*
X182189000Y-93211000D01*
G37*
G36*
X183689000Y-93211000D02*
G01*
X183689000Y-92711000D01*
X184189000Y-92711000D01*
X184189000Y-93211000D01*
X183689000Y-93211000D01*
G37*
G36*
X186689000Y-93211000D02*
G01*
X186689000Y-92711000D01*
X187189000Y-92711000D01*
X187189000Y-93211000D01*
X186689000Y-93211000D01*
G37*
G36*
X170689000Y-92711000D02*
G01*
X170689000Y-92211000D01*
X171189000Y-92211000D01*
X171189000Y-92711000D01*
X170689000Y-92711000D01*
G37*
G36*
X171189000Y-92711000D02*
G01*
X171189000Y-92211000D01*
X171689000Y-92211000D01*
X171689000Y-92711000D01*
X171189000Y-92711000D01*
G37*
G36*
X171689000Y-92711000D02*
G01*
X171689000Y-92211000D01*
X172189000Y-92211000D01*
X172189000Y-92711000D01*
X171689000Y-92711000D01*
G37*
G36*
X172189000Y-92711000D02*
G01*
X172189000Y-92211000D01*
X172689000Y-92211000D01*
X172689000Y-92711000D01*
X172189000Y-92711000D01*
G37*
G36*
X172689000Y-92711000D02*
G01*
X172689000Y-92211000D01*
X173189000Y-92211000D01*
X173189000Y-92711000D01*
X172689000Y-92711000D01*
G37*
G36*
X173189000Y-92711000D02*
G01*
X173189000Y-92211000D01*
X173689000Y-92211000D01*
X173689000Y-92711000D01*
X173189000Y-92711000D01*
G37*
G36*
X173689000Y-92711000D02*
G01*
X173689000Y-92211000D01*
X174189000Y-92211000D01*
X174189000Y-92711000D01*
X173689000Y-92711000D01*
G37*
G36*
X175189000Y-92711000D02*
G01*
X175189000Y-92211000D01*
X175689000Y-92211000D01*
X175689000Y-92711000D01*
X175189000Y-92711000D01*
G37*
G36*
X176689000Y-92711000D02*
G01*
X176689000Y-92211000D01*
X177189000Y-92211000D01*
X177189000Y-92711000D01*
X176689000Y-92711000D01*
G37*
G36*
X177189000Y-92711000D02*
G01*
X177189000Y-92211000D01*
X177689000Y-92211000D01*
X177689000Y-92711000D01*
X177189000Y-92711000D01*
G37*
G36*
X178189000Y-92711000D02*
G01*
X178189000Y-92211000D01*
X178689000Y-92211000D01*
X178689000Y-92711000D01*
X178189000Y-92711000D01*
G37*
G36*
X178689000Y-92711000D02*
G01*
X178689000Y-92211000D01*
X179189000Y-92211000D01*
X179189000Y-92711000D01*
X178689000Y-92711000D01*
G37*
G36*
X180189000Y-92711000D02*
G01*
X180189000Y-92211000D01*
X180689000Y-92211000D01*
X180689000Y-92711000D01*
X180189000Y-92711000D01*
G37*
G36*
X181189000Y-92711000D02*
G01*
X181189000Y-92211000D01*
X181689000Y-92211000D01*
X181689000Y-92711000D01*
X181189000Y-92711000D01*
G37*
G36*
X181689000Y-92711000D02*
G01*
X181689000Y-92211000D01*
X182189000Y-92211000D01*
X182189000Y-92711000D01*
X181689000Y-92711000D01*
G37*
G36*
X183689000Y-92711000D02*
G01*
X183689000Y-92211000D01*
X184189000Y-92211000D01*
X184189000Y-92711000D01*
X183689000Y-92711000D01*
G37*
G36*
X184189000Y-92711000D02*
G01*
X184189000Y-92211000D01*
X184689000Y-92211000D01*
X184689000Y-92711000D01*
X184189000Y-92711000D01*
G37*
G36*
X184689000Y-92711000D02*
G01*
X184689000Y-92211000D01*
X185189000Y-92211000D01*
X185189000Y-92711000D01*
X184689000Y-92711000D01*
G37*
G36*
X185189000Y-92711000D02*
G01*
X185189000Y-92211000D01*
X185689000Y-92211000D01*
X185689000Y-92711000D01*
X185189000Y-92711000D01*
G37*
G36*
X185689000Y-92711000D02*
G01*
X185689000Y-92211000D01*
X186189000Y-92211000D01*
X186189000Y-92711000D01*
X185689000Y-92711000D01*
G37*
G36*
X186189000Y-92711000D02*
G01*
X186189000Y-92211000D01*
X186689000Y-92211000D01*
X186689000Y-92711000D01*
X186189000Y-92711000D01*
G37*
G36*
X186689000Y-92711000D02*
G01*
X186689000Y-92211000D01*
X187189000Y-92211000D01*
X187189000Y-92711000D01*
X186689000Y-92711000D01*
G37*
D11*
X188474714Y-91413380D02*
X188569952Y-91365761D01*
X188617571Y-91318142D01*
X188665190Y-91222904D01*
X188665190Y-90937190D01*
X188617571Y-90841952D01*
X188569952Y-90794333D01*
X188474714Y-90746714D01*
X188331857Y-90746714D01*
X188236619Y-90794333D01*
X188189000Y-90841952D01*
X188141380Y-90937190D01*
X188141380Y-91222904D01*
X188189000Y-91318142D01*
X188236619Y-91365761D01*
X188331857Y-91413380D01*
X188474714Y-91413380D01*
X187808047Y-90746714D02*
X187569952Y-91413380D01*
X187331857Y-90746714D02*
X187569952Y-91413380D01*
X187665190Y-91651476D01*
X187712809Y-91699095D01*
X187808047Y-91746714D01*
X187046142Y-90746714D02*
X186808047Y-91413380D01*
X186569952Y-90746714D01*
X186189000Y-91413380D02*
X186189000Y-90746714D01*
X186189000Y-90413380D02*
X186236619Y-90461000D01*
X186189000Y-90508619D01*
X186141380Y-90461000D01*
X186189000Y-90413380D01*
X186189000Y-90508619D01*
X185712809Y-90746714D02*
X185712809Y-91413380D01*
X185712809Y-90841952D02*
X185665190Y-90794333D01*
X185569952Y-90746714D01*
X185427095Y-90746714D01*
X185331857Y-90794333D01*
X185284238Y-90889571D01*
X185284238Y-91413380D01*
X184379476Y-91413380D02*
X184379476Y-90413380D01*
X184379476Y-91365761D02*
X184474714Y-91413380D01*
X184665190Y-91413380D01*
X184760428Y-91365761D01*
X184808047Y-91318142D01*
X184855666Y-91222904D01*
X184855666Y-90937190D01*
X184808047Y-90841952D01*
X184760428Y-90794333D01*
X184665190Y-90746714D01*
X184474714Y-90746714D01*
X184379476Y-90794333D01*
X183950904Y-91365761D02*
X183855666Y-91413380D01*
X183665190Y-91413380D01*
X183569952Y-91365761D01*
X183522333Y-91270523D01*
X183522333Y-91222904D01*
X183569952Y-91127666D01*
X183665190Y-91080047D01*
X183808047Y-91080047D01*
X183903285Y-91032428D01*
X183950904Y-90937190D01*
X183950904Y-90889571D01*
X183903285Y-90794333D01*
X183808047Y-90746714D01*
X183665190Y-90746714D01*
X183569952Y-90794333D01*
X183093761Y-91413380D02*
X183093761Y-90413380D01*
X182998523Y-91032428D02*
X182712809Y-91413380D01*
X182712809Y-90746714D02*
X183093761Y-91127666D01*
X181855666Y-91413380D02*
X181855666Y-90889571D01*
X181903285Y-90794333D01*
X181998523Y-90746714D01*
X182189000Y-90746714D01*
X182284238Y-90794333D01*
X181855666Y-91365761D02*
X181950904Y-91413380D01*
X182189000Y-91413380D01*
X182284238Y-91365761D01*
X182331857Y-91270523D01*
X182331857Y-91175285D01*
X182284238Y-91080047D01*
X182189000Y-91032428D01*
X181950904Y-91032428D01*
X181855666Y-90984809D01*
X180950904Y-91413380D02*
X180950904Y-90889571D01*
X180998523Y-90794333D01*
X181093761Y-90746714D01*
X181284238Y-90746714D01*
X181379476Y-90794333D01*
X180950904Y-91365761D02*
X181046142Y-91413380D01*
X181284238Y-91413380D01*
X181379476Y-91365761D01*
X181427095Y-91270523D01*
X181427095Y-91175285D01*
X181379476Y-91080047D01*
X181284238Y-91032428D01*
X181046142Y-91032428D01*
X180950904Y-90984809D01*
X180046142Y-91413380D02*
X180046142Y-90413380D01*
X180046142Y-91365761D02*
X180141380Y-91413380D01*
X180331857Y-91413380D01*
X180427095Y-91365761D01*
X180474714Y-91318142D01*
X180522333Y-91222904D01*
X180522333Y-90937190D01*
X180474714Y-90841952D01*
X180427095Y-90794333D01*
X180331857Y-90746714D01*
X180141380Y-90746714D01*
X180046142Y-90794333D01*
X179189000Y-91365761D02*
X179284238Y-91413380D01*
X179474714Y-91413380D01*
X179569952Y-91365761D01*
X179617571Y-91270523D01*
X179617571Y-90889571D01*
X179569952Y-90794333D01*
X179474714Y-90746714D01*
X179284238Y-90746714D01*
X179189000Y-90794333D01*
X179141380Y-90889571D01*
X179141380Y-90984809D01*
X179617571Y-91080047D01*
X178712809Y-90746714D02*
X178712809Y-91413380D01*
X178712809Y-90841952D02*
X178665190Y-90794333D01*
X178569952Y-90746714D01*
X178427095Y-90746714D01*
X178331857Y-90794333D01*
X178284238Y-90889571D01*
X178284238Y-91413380D01*
X177093761Y-90365761D02*
X177950904Y-91651476D01*
X176189000Y-91318142D02*
X176236619Y-91365761D01*
X176379476Y-91413380D01*
X176474714Y-91413380D01*
X176617571Y-91365761D01*
X176712809Y-91270523D01*
X176760428Y-91175285D01*
X176808047Y-90984809D01*
X176808047Y-90841952D01*
X176760428Y-90651476D01*
X176712809Y-90556238D01*
X176617571Y-90461000D01*
X176474714Y-90413380D01*
X176379476Y-90413380D01*
X176236619Y-90461000D01*
X176189000Y-90508619D01*
X175331857Y-91413380D02*
X175331857Y-90889571D01*
X175379476Y-90794333D01*
X175474714Y-90746714D01*
X175665190Y-90746714D01*
X175760428Y-90794333D01*
X175331857Y-91365761D02*
X175427095Y-91413380D01*
X175665190Y-91413380D01*
X175760428Y-91365761D01*
X175808047Y-91270523D01*
X175808047Y-91175285D01*
X175760428Y-91080047D01*
X175665190Y-91032428D01*
X175427095Y-91032428D01*
X175331857Y-90984809D01*
X174855666Y-91413380D02*
X174855666Y-90413380D01*
X174855666Y-90794333D02*
X174760428Y-90746714D01*
X174569952Y-90746714D01*
X174474714Y-90794333D01*
X174427095Y-90841952D01*
X174379476Y-90937190D01*
X174379476Y-91222904D01*
X174427095Y-91318142D01*
X174474714Y-91365761D01*
X174569952Y-91413380D01*
X174760428Y-91413380D01*
X174855666Y-91365761D01*
X173808047Y-91413380D02*
X173903285Y-91365761D01*
X173950904Y-91270523D01*
X173950904Y-90413380D01*
X173046142Y-91365761D02*
X173141380Y-91413380D01*
X173331857Y-91413380D01*
X173427095Y-91365761D01*
X173474714Y-91270523D01*
X173474714Y-90889571D01*
X173427095Y-90794333D01*
X173331857Y-90746714D01*
X173141380Y-90746714D01*
X173046142Y-90794333D01*
X172998523Y-90889571D01*
X172998523Y-90984809D01*
X173474714Y-91080047D01*
X172712809Y-90746714D02*
X172331857Y-90746714D01*
X172569952Y-90413380D02*
X172569952Y-91270523D01*
X172522333Y-91365761D01*
X172427095Y-91413380D01*
X172331857Y-91413380D01*
X171617571Y-91365761D02*
X171712809Y-91413380D01*
X171903285Y-91413380D01*
X171998523Y-91365761D01*
X172046142Y-91270523D01*
X172046142Y-90889571D01*
X171998523Y-90794333D01*
X171903285Y-90746714D01*
X171712809Y-90746714D01*
X171617571Y-90794333D01*
X171569952Y-90889571D01*
X171569952Y-90984809D01*
X172046142Y-91080047D01*
X171189000Y-91365761D02*
X171093761Y-91413380D01*
X170903285Y-91413380D01*
X170808047Y-91365761D01*
X170760428Y-91270523D01*
X170760428Y-91222904D01*
X170808047Y-91127666D01*
X170903285Y-91080047D01*
X171046142Y-91080047D01*
X171141380Y-91032428D01*
X171189000Y-90937190D01*
X171189000Y-90889571D01*
X171141380Y-90794333D01*
X171046142Y-90746714D01*
X170903285Y-90746714D01*
X170808047Y-90794333D01*
X170474714Y-90746714D02*
X170093761Y-90746714D01*
X170331857Y-90413380D02*
X170331857Y-91270523D01*
X170284238Y-91365761D01*
X170189000Y-91413380D01*
X170093761Y-91413380D01*
X169379476Y-91365761D02*
X169474714Y-91413380D01*
X169665190Y-91413380D01*
X169760428Y-91365761D01*
X169808047Y-91270523D01*
X169808047Y-90889571D01*
X169760428Y-90794333D01*
X169665190Y-90746714D01*
X169474714Y-90746714D01*
X169379476Y-90794333D01*
X169331857Y-90889571D01*
X169331857Y-90984809D01*
X169808047Y-91080047D01*
X168903285Y-91413380D02*
X168903285Y-90746714D01*
X168903285Y-90937190D02*
X168855666Y-90841952D01*
X168808047Y-90794333D01*
X168712809Y-90746714D01*
X168617571Y-90746714D01*
M02*
