M48
; DRILL file {KiCad 5.1.5-52549c5~86~ubuntu19.10.1} date on. 01. april 2020 kl. 17.55 +0200
; FORMAT={-:-/ absolute / inch / decimal}
; #@! TF.CreationDate,2020-04-01T17:55:38+02:00
; #@! TF.GenerationSoftware,Kicad,Pcbnew,5.1.5-52549c5~86~ubuntu19.10.1
; #@! TF.FileFunction,Plated,1,2,PTH
FMAT,2
INCH
T1C0.0118
T2C0.0157
T3C0.0315
T4C0.0394
T5C0.0400
T6C0.1200
%
G90
G05
T1
X4.59Y-3.605
X4.59Y-3.785
X4.62Y-3.705
X4.62Y-3.765
X4.625Y-3.11
X4.65Y-3.1325
X4.675Y-3.11
X4.695Y-3.81
X4.7Y-2.985
X4.7Y-3.1325
X4.7Y-3.885
X4.72Y-3.78
X4.725Y-3.865
X4.745Y-3.705
X4.75Y-3.885
X5.015Y-3.605
X5.015Y-3.785
X5.045Y-3.705
X5.045Y-3.765
X5.05Y-3.01
X5.05Y-3.11
X5.075Y-3.035
X5.075Y-3.1325
X5.1Y-3.06
X5.1Y-3.11
X5.12Y-3.81
X5.125Y-2.985
X5.125Y-3.1325
X5.125Y-3.885
X5.145Y-3.78
X5.15Y-3.865
X5.17Y-3.705
X5.1775Y-3.885
X5.44Y-3.605
X5.44Y-3.785
X5.47Y-3.705
X5.47Y-3.765
X5.475Y-3.01
X5.475Y-3.11
X5.5Y-3.035
X5.5Y-3.1325
X5.525Y-3.06
X5.525Y-3.11
X5.545Y-3.81
X5.55Y-2.985
X5.55Y-3.135
X5.55Y-3.885
X5.57Y-3.78
X5.575Y-3.865
X5.595Y-3.705
X5.6025Y-3.885
X5.865Y-3.605
X5.865Y-3.785
X5.895Y-3.705
X5.895Y-3.765
X5.9Y-3.01
X5.9Y-3.11
X5.925Y-3.035
X5.925Y-3.1325
X5.95Y-3.06
X5.95Y-3.11
X5.97Y-3.81
X5.975Y-2.985
X5.975Y-3.1325
X5.975Y-3.885
X5.995Y-3.78
X6.0Y-3.865
X6.02Y-3.705
X6.0275Y-3.885
X6.13Y-2.965
X6.21Y-3.045
X6.29Y-3.605
X6.29Y-3.785
X6.32Y-3.705
X6.32Y-3.765
X6.325Y-3.11
X6.35Y-3.135
X6.375Y-3.11
X6.3925Y-3.81
X6.3975Y-3.885
X6.4Y-3.135
X6.4175Y-3.78
X6.4225Y-3.865
X6.4425Y-3.705
X6.45Y-3.885
X6.47Y-4.76
X6.57Y-4.76
X6.67Y-4.76
X6.77Y-4.76
X6.97Y-4.76
X7.07Y-4.76
X7.17Y-4.76
X7.27Y-4.76
X7.37Y-4.76
X7.47Y-4.76
X7.57Y-4.76
X7.67Y-4.76
T2
X4.4382Y-3.9632
X4.515Y-3.8865
X4.94Y-3.89
X5.365Y-3.89
X5.79Y-3.895
T3
X5.79Y-3.135
X5.79Y-3.235
X5.79Y-3.335
X5.79Y-3.435
X5.79Y-3.535
X5.79Y-3.635
X5.79Y-3.735
X5.79Y-3.835
X6.09Y-3.135
X6.09Y-3.235
X6.09Y-3.335
X6.09Y-3.435
X6.09Y-3.535
X6.09Y-3.635
X6.09Y-3.735
X6.09Y-3.835
X4.94Y-3.135
X4.94Y-3.235
X4.94Y-3.335
X4.94Y-3.435
X4.94Y-3.535
X4.94Y-3.635
X4.94Y-3.735
X4.94Y-3.835
X5.24Y-3.135
X5.24Y-3.235
X5.24Y-3.335
X5.24Y-3.435
X5.24Y-3.535
X5.24Y-3.635
X5.24Y-3.735
X5.24Y-3.835
X5.365Y-3.135
X5.365Y-3.235
X5.365Y-3.335
X5.365Y-3.435
X5.365Y-3.535
X5.365Y-3.635
X5.365Y-3.735
X5.365Y-3.835
X5.665Y-3.135
X5.665Y-3.235
X5.665Y-3.335
X5.665Y-3.435
X5.665Y-3.535
X5.665Y-3.635
X5.665Y-3.735
X5.665Y-3.835
X4.515Y-3.135
X4.515Y-3.235
X4.515Y-3.335
X4.515Y-3.435
X4.515Y-3.535
X4.515Y-3.635
X4.515Y-3.735
X4.515Y-3.835
X4.815Y-3.135
X4.815Y-3.235
X4.815Y-3.335
X4.815Y-3.435
X4.815Y-3.535
X4.815Y-3.635
X4.815Y-3.735
X4.815Y-3.835
X6.215Y-3.135
X6.215Y-3.235
X6.215Y-3.335
X6.215Y-3.435
X6.215Y-3.535
X6.215Y-3.635
X6.215Y-3.735
X6.215Y-3.835
X6.515Y-3.135
X6.515Y-3.235
X6.515Y-3.335
X6.515Y-3.435
X6.515Y-3.535
X6.515Y-3.635
X6.515Y-3.735
X6.515Y-3.835
T4
X4.81Y-2.605
X4.91Y-2.605
X5.01Y-2.605
X5.11Y-2.605
X5.355Y-2.605
X5.455Y-2.605
X5.555Y-2.605
X5.655Y-2.605
X5.755Y-2.605
T5
X5.87Y-2.79
X5.97Y-2.79
X6.07Y-2.79
X6.17Y-2.79
X6.27Y-2.79
X6.37Y-2.79
X6.47Y-2.79
X6.57Y-2.79
X4.81Y-2.79
X4.91Y-2.79
X5.01Y-2.79
X5.11Y-2.79
X5.21Y-2.79
X5.31Y-2.79
X5.41Y-2.79
X5.51Y-2.79
X5.61Y-2.79
X5.71Y-2.79
X5.565Y-5.065
X5.565Y-5.165
X5.665Y-5.065
X5.665Y-5.165
X5.765Y-5.065
X5.765Y-5.165
X5.865Y-5.065
X5.865Y-5.165
X5.965Y-5.065
X5.965Y-5.165
X6.065Y-5.065
X6.065Y-5.165
X6.165Y-5.065
X6.165Y-5.165
X6.265Y-5.065
X6.265Y-5.165
X6.365Y-5.065
X6.365Y-5.165
X6.465Y-5.065
X6.465Y-5.165
X6.565Y-5.065
X6.565Y-5.165
X6.665Y-5.065
X6.665Y-5.165
X6.765Y-5.065
X6.765Y-5.165
X6.865Y-5.065
X6.865Y-5.165
X6.965Y-5.065
X6.965Y-5.165
X7.065Y-5.065
X7.065Y-5.165
X7.165Y-5.065
X7.165Y-5.165
X7.265Y-5.065
X7.265Y-5.165
X7.365Y-5.065
X7.365Y-5.165
X7.465Y-5.065
X7.465Y-5.165
X7.77Y-2.79
X7.77Y-2.89
X7.77Y-2.99
X7.77Y-3.09
X7.77Y-3.19
X7.77Y-3.29
X7.77Y-3.39
X7.77Y-3.49
X7.77Y-3.59
X7.77Y-3.69
X7.77Y-3.79
X7.77Y-3.89
X7.77Y-3.99
X7.77Y-4.09
X7.77Y-4.19
X7.77Y-4.29
X7.77Y-4.39
X7.77Y-4.49
X7.87Y-2.79
X7.87Y-2.89
X7.87Y-2.99
X7.87Y-3.09
X7.87Y-3.19
X7.87Y-3.29
X7.87Y-3.39
X7.87Y-3.49
X7.87Y-3.59
X7.87Y-3.69
X7.87Y-3.79
X7.87Y-3.89
X7.87Y-3.99
X7.87Y-4.09
X7.87Y-4.19
X7.87Y-4.29
X7.87Y-4.39
X7.87Y-4.49
X6.77Y-2.79
X6.87Y-2.79
X6.97Y-2.79
X7.07Y-2.79
X7.17Y-2.79
X7.27Y-2.79
X7.37Y-2.79
X7.47Y-2.79
X4.57Y-4.13
X4.57Y-4.23
X4.67Y-4.13
X4.67Y-4.23
X4.77Y-4.13
X4.77Y-4.23
X4.87Y-4.13
X4.87Y-4.23
X4.97Y-4.13
X4.97Y-4.23
X5.07Y-4.13
X5.07Y-4.23
X5.17Y-4.13
X5.17Y-4.23
X5.27Y-4.13
X5.27Y-4.23
X5.37Y-4.13
X5.37Y-4.23
X5.47Y-4.13
X5.47Y-4.23
X5.57Y-4.13
X5.57Y-4.23
X5.67Y-4.13
X5.67Y-4.23
X5.77Y-4.13
X5.77Y-4.23
X5.87Y-4.13
X5.87Y-4.23
X5.97Y-4.13
X5.97Y-4.23
X6.07Y-4.13
X6.07Y-4.23
X6.17Y-4.13
X6.17Y-4.23
X6.27Y-4.13
X6.27Y-4.23
X6.37Y-4.13
X6.37Y-4.23
X6.47Y-4.13
X6.47Y-4.23
X6.07Y-4.69
X6.17Y-4.69
X6.27Y-4.69
X6.37Y-4.69
X6.47Y-4.69
X6.57Y-4.69
X6.67Y-4.69
X6.77Y-4.69
X6.97Y-4.69
X7.07Y-4.69
X7.17Y-4.69
X7.27Y-4.69
X7.37Y-4.69
X7.47Y-4.69
X7.57Y-4.69
X7.67Y-4.69
X5.17Y-4.69
X5.27Y-4.69
X5.37Y-4.69
X5.47Y-4.69
X5.57Y-4.69
X5.67Y-4.69
X5.77Y-4.69
X5.87Y-4.69
T6
X7.87Y-5.5
X4.62Y-4.69
X4.44Y-5.5
X6.67Y-3.39
X7.87Y-4.69
X6.67Y-4.49
X7.62Y-2.79
X4.67Y-2.79
T0
M30
