G04 #@! TF.GenerationSoftware,KiCad,Pcbnew,5.1.5-52549c5~86~ubuntu19.10.1*
G04 #@! TF.CreationDate,2020-04-01T18:08:25+02:00*
G04 #@! TF.ProjectId,KabeltesterMEGA,4b616265-6c74-4657-9374-65724d454741,rev?*
G04 #@! TF.SameCoordinates,Original*
G04 #@! TF.FileFunction,Legend,Top*
G04 #@! TF.FilePolarity,Positive*
%FSLAX46Y46*%
G04 Gerber Fmt 4.6, Leading zero omitted, Abs format (unit mm)*
G04 Created by KiCad (PCBNEW 5.1.5-52549c5~86~ubuntu19.10.1) date 2020-04-01 18:08:25*
%MOMM*%
%LPD*%
G04 APERTURE LIST*
%ADD10C,0.100000*%
%ADD11C,0.150000*%
%ADD12C,0.300000*%
%ADD13C,0.010000*%
%ADD14C,0.120000*%
G04 APERTURE END LIST*
D10*
X145567476Y-68116500D02*
X145491285Y-68078404D01*
X145377000Y-68078404D01*
X145262714Y-68116500D01*
X145186523Y-68192690D01*
X145148428Y-68268880D01*
X145110333Y-68421261D01*
X145110333Y-68535547D01*
X145148428Y-68687928D01*
X145186523Y-68764119D01*
X145262714Y-68840309D01*
X145377000Y-68878404D01*
X145453190Y-68878404D01*
X145567476Y-68840309D01*
X145605571Y-68802214D01*
X145605571Y-68535547D01*
X145453190Y-68535547D01*
X145948428Y-68878404D02*
X145948428Y-68078404D01*
X146405571Y-68878404D01*
X146405571Y-68078404D01*
X146786523Y-68878404D02*
X146786523Y-68078404D01*
X146977000Y-68078404D01*
X147091285Y-68116500D01*
X147167476Y-68192690D01*
X147205571Y-68268880D01*
X147243666Y-68421261D01*
X147243666Y-68535547D01*
X147205571Y-68687928D01*
X147167476Y-68764119D01*
X147091285Y-68840309D01*
X146977000Y-68878404D01*
X146786523Y-68878404D01*
X140411285Y-68903809D02*
X140525571Y-68941904D01*
X140716047Y-68941904D01*
X140792238Y-68903809D01*
X140830333Y-68865714D01*
X140868428Y-68789523D01*
X140868428Y-68713333D01*
X140830333Y-68637142D01*
X140792238Y-68599047D01*
X140716047Y-68560952D01*
X140563666Y-68522857D01*
X140487476Y-68484761D01*
X140449380Y-68446666D01*
X140411285Y-68370476D01*
X140411285Y-68294285D01*
X140449380Y-68218095D01*
X140487476Y-68180000D01*
X140563666Y-68141904D01*
X140754142Y-68141904D01*
X140868428Y-68180000D01*
X141135095Y-68141904D02*
X141325571Y-68941904D01*
X141477952Y-68370476D01*
X141630333Y-68941904D01*
X141820809Y-68141904D01*
X138042714Y-68941904D02*
X138042714Y-68141904D01*
X138233190Y-68141904D01*
X138347476Y-68180000D01*
X138423666Y-68256190D01*
X138461761Y-68332380D01*
X138499857Y-68484761D01*
X138499857Y-68599047D01*
X138461761Y-68751428D01*
X138423666Y-68827619D01*
X138347476Y-68903809D01*
X138233190Y-68941904D01*
X138042714Y-68941904D01*
X138728428Y-68141904D02*
X139185571Y-68141904D01*
X138957000Y-68941904D02*
X138957000Y-68141904D01*
X135540809Y-68865714D02*
X135502714Y-68903809D01*
X135388428Y-68941904D01*
X135312238Y-68941904D01*
X135197952Y-68903809D01*
X135121761Y-68827619D01*
X135083666Y-68751428D01*
X135045571Y-68599047D01*
X135045571Y-68484761D01*
X135083666Y-68332380D01*
X135121761Y-68256190D01*
X135197952Y-68180000D01*
X135312238Y-68141904D01*
X135388428Y-68141904D01*
X135502714Y-68180000D01*
X135540809Y-68218095D01*
X136264619Y-68941904D02*
X135883666Y-68941904D01*
X135883666Y-68141904D01*
X136531285Y-68941904D02*
X136531285Y-68141904D01*
X136988428Y-68941904D02*
X136645571Y-68484761D01*
X136988428Y-68141904D02*
X136531285Y-68599047D01*
X123742571Y-68840309D02*
X123856857Y-68878404D01*
X124047333Y-68878404D01*
X124123523Y-68840309D01*
X124161619Y-68802214D01*
X124199714Y-68726023D01*
X124199714Y-68649833D01*
X124161619Y-68573642D01*
X124123523Y-68535547D01*
X124047333Y-68497452D01*
X123894952Y-68459357D01*
X123818761Y-68421261D01*
X123780666Y-68383166D01*
X123742571Y-68306976D01*
X123742571Y-68230785D01*
X123780666Y-68154595D01*
X123818761Y-68116500D01*
X123894952Y-68078404D01*
X124085428Y-68078404D01*
X124199714Y-68116500D01*
X124542571Y-68878404D02*
X124542571Y-68078404D01*
X124733047Y-68078404D01*
X124847333Y-68116500D01*
X124923523Y-68192690D01*
X124961619Y-68268880D01*
X124999714Y-68421261D01*
X124999714Y-68535547D01*
X124961619Y-68687928D01*
X124923523Y-68764119D01*
X124847333Y-68840309D01*
X124733047Y-68878404D01*
X124542571Y-68878404D01*
X125304476Y-68649833D02*
X125685428Y-68649833D01*
X125228285Y-68878404D02*
X125494952Y-68078404D01*
X125761619Y-68878404D01*
X121221619Y-68840309D02*
X121335904Y-68878404D01*
X121526380Y-68878404D01*
X121602571Y-68840309D01*
X121640666Y-68802214D01*
X121678761Y-68726023D01*
X121678761Y-68649833D01*
X121640666Y-68573642D01*
X121602571Y-68535547D01*
X121526380Y-68497452D01*
X121374000Y-68459357D01*
X121297809Y-68421261D01*
X121259714Y-68383166D01*
X121221619Y-68306976D01*
X121221619Y-68230785D01*
X121259714Y-68154595D01*
X121297809Y-68116500D01*
X121374000Y-68078404D01*
X121564476Y-68078404D01*
X121678761Y-68116500D01*
X122478761Y-68802214D02*
X122440666Y-68840309D01*
X122326380Y-68878404D01*
X122250190Y-68878404D01*
X122135904Y-68840309D01*
X122059714Y-68764119D01*
X122021619Y-68687928D01*
X121983523Y-68535547D01*
X121983523Y-68421261D01*
X122021619Y-68268880D01*
X122059714Y-68192690D01*
X122135904Y-68116500D01*
X122250190Y-68078404D01*
X122326380Y-68078404D01*
X122440666Y-68116500D01*
X122478761Y-68154595D01*
X123202571Y-68878404D02*
X122821619Y-68878404D01*
X122821619Y-68078404D01*
D11*
X147510500Y-67881500D02*
X147510500Y-69151500D01*
X134683500Y-67945000D02*
X134683500Y-69215000D01*
D10*
X142417928Y-68573642D02*
X143027452Y-68573642D01*
X142722690Y-68878404D02*
X142722690Y-68268880D01*
X143789357Y-68078404D02*
X143408404Y-68078404D01*
X143370309Y-68459357D01*
X143408404Y-68421261D01*
X143484595Y-68383166D01*
X143675071Y-68383166D01*
X143751261Y-68421261D01*
X143789357Y-68459357D01*
X143827452Y-68535547D01*
X143827452Y-68726023D01*
X143789357Y-68802214D01*
X143751261Y-68840309D01*
X143675071Y-68878404D01*
X143484595Y-68878404D01*
X143408404Y-68840309D01*
X143370309Y-68802214D01*
X144056023Y-68078404D02*
X144322690Y-68878404D01*
X144589357Y-68078404D01*
X129184476Y-68116500D02*
X129108285Y-68078404D01*
X128994000Y-68078404D01*
X128879714Y-68116500D01*
X128803523Y-68192690D01*
X128765428Y-68268880D01*
X128727333Y-68421261D01*
X128727333Y-68535547D01*
X128765428Y-68687928D01*
X128803523Y-68764119D01*
X128879714Y-68840309D01*
X128994000Y-68878404D01*
X129070190Y-68878404D01*
X129184476Y-68840309D01*
X129222571Y-68802214D01*
X129222571Y-68535547D01*
X129070190Y-68535547D01*
X129565428Y-68878404D02*
X129565428Y-68078404D01*
X130022571Y-68878404D01*
X130022571Y-68078404D01*
X130403523Y-68878404D02*
X130403523Y-68078404D01*
X130594000Y-68078404D01*
X130708285Y-68116500D01*
X130784476Y-68192690D01*
X130822571Y-68268880D01*
X130860666Y-68421261D01*
X130860666Y-68535547D01*
X130822571Y-68687928D01*
X130784476Y-68764119D01*
X130708285Y-68840309D01*
X130594000Y-68878404D01*
X130403523Y-68878404D01*
X126034928Y-68573642D02*
X126644452Y-68573642D01*
X126339690Y-68878404D02*
X126339690Y-68268880D01*
X127406357Y-68078404D02*
X127025404Y-68078404D01*
X126987309Y-68459357D01*
X127025404Y-68421261D01*
X127101595Y-68383166D01*
X127292071Y-68383166D01*
X127368261Y-68421261D01*
X127406357Y-68459357D01*
X127444452Y-68535547D01*
X127444452Y-68726023D01*
X127406357Y-68802214D01*
X127368261Y-68840309D01*
X127292071Y-68878404D01*
X127101595Y-68878404D01*
X127025404Y-68840309D01*
X126987309Y-68802214D01*
X127673023Y-68078404D02*
X127939690Y-68878404D01*
X128206357Y-68078404D01*
D11*
X120840500Y-67945000D02*
X120840500Y-69088000D01*
X131127500Y-67945000D02*
X131127500Y-69215000D01*
X135509000Y-111760000D02*
X149987000Y-111760000D01*
X148677380Y-117101809D02*
X149677380Y-116768476D01*
X148677380Y-116435142D01*
X149677380Y-116101809D02*
X149010714Y-116101809D01*
X148677380Y-116101809D02*
X148725000Y-116149428D01*
X148772619Y-116101809D01*
X148725000Y-116054190D01*
X148677380Y-116101809D01*
X148772619Y-116101809D01*
X149010714Y-115625619D02*
X149677380Y-115625619D01*
X149105952Y-115625619D02*
X149058333Y-115578000D01*
X149010714Y-115482761D01*
X149010714Y-115339904D01*
X149058333Y-115244666D01*
X149153571Y-115197047D01*
X149677380Y-115197047D01*
X136850380Y-116554095D02*
X136374190Y-116887428D01*
X136850380Y-117125523D02*
X135850380Y-117125523D01*
X135850380Y-116744571D01*
X135898000Y-116649333D01*
X135945619Y-116601714D01*
X136040857Y-116554095D01*
X136183714Y-116554095D01*
X136278952Y-116601714D01*
X136326571Y-116649333D01*
X136374190Y-116744571D01*
X136374190Y-117125523D01*
X136802761Y-115744571D02*
X136850380Y-115839809D01*
X136850380Y-116030285D01*
X136802761Y-116125523D01*
X136707523Y-116173142D01*
X136326571Y-116173142D01*
X136231333Y-116125523D01*
X136183714Y-116030285D01*
X136183714Y-115839809D01*
X136231333Y-115744571D01*
X136326571Y-115696952D01*
X136421809Y-115696952D01*
X136517047Y-116173142D01*
X136802761Y-115316000D02*
X136850380Y-115220761D01*
X136850380Y-115030285D01*
X136802761Y-114935047D01*
X136707523Y-114887428D01*
X136659904Y-114887428D01*
X136564666Y-114935047D01*
X136517047Y-115030285D01*
X136517047Y-115173142D01*
X136469428Y-115268380D01*
X136374190Y-115316000D01*
X136326571Y-115316000D01*
X136231333Y-115268380D01*
X136183714Y-115173142D01*
X136183714Y-115030285D01*
X136231333Y-114935047D01*
X136802761Y-114077904D02*
X136850380Y-114173142D01*
X136850380Y-114363619D01*
X136802761Y-114458857D01*
X136707523Y-114506476D01*
X136326571Y-114506476D01*
X136231333Y-114458857D01*
X136183714Y-114363619D01*
X136183714Y-114173142D01*
X136231333Y-114077904D01*
X136326571Y-114030285D01*
X136421809Y-114030285D01*
X136517047Y-114506476D01*
X136183714Y-113744571D02*
X136183714Y-113363619D01*
X135850380Y-113601714D02*
X136707523Y-113601714D01*
X136802761Y-113554095D01*
X136850380Y-113458857D01*
X136850380Y-113363619D01*
X139009428Y-117077904D02*
X139009428Y-116316000D01*
X139390380Y-116696952D02*
X138628476Y-116696952D01*
X138390380Y-115935047D02*
X138390380Y-115316000D01*
X138771333Y-115649333D01*
X138771333Y-115506476D01*
X138818952Y-115411238D01*
X138866571Y-115363619D01*
X138961809Y-115316000D01*
X139199904Y-115316000D01*
X139295142Y-115363619D01*
X139342761Y-115411238D01*
X139390380Y-115506476D01*
X139390380Y-115792190D01*
X139342761Y-115887428D01*
X139295142Y-115935047D01*
X138390380Y-115030285D02*
X139390380Y-114696952D01*
X138390380Y-114363619D01*
X138390380Y-114125523D02*
X138390380Y-113506476D01*
X138771333Y-113839809D01*
X138771333Y-113696952D01*
X138818952Y-113601714D01*
X138866571Y-113554095D01*
X138961809Y-113506476D01*
X139199904Y-113506476D01*
X139295142Y-113554095D01*
X139342761Y-113601714D01*
X139390380Y-113696952D01*
X139390380Y-113982666D01*
X139342761Y-114077904D01*
X139295142Y-114125523D01*
X141422428Y-117109714D02*
X141422428Y-116347809D01*
X141803380Y-116728761D02*
X141041476Y-116728761D01*
X140803380Y-115395428D02*
X140803380Y-115871619D01*
X141279571Y-115919238D01*
X141231952Y-115871619D01*
X141184333Y-115776380D01*
X141184333Y-115538285D01*
X141231952Y-115443047D01*
X141279571Y-115395428D01*
X141374809Y-115347809D01*
X141612904Y-115347809D01*
X141708142Y-115395428D01*
X141755761Y-115443047D01*
X141803380Y-115538285D01*
X141803380Y-115776380D01*
X141755761Y-115871619D01*
X141708142Y-115919238D01*
X140803380Y-115062095D02*
X141803380Y-114728761D01*
X140803380Y-114395428D01*
X146058000Y-116585904D02*
X146010380Y-116681142D01*
X146010380Y-116824000D01*
X146058000Y-116966857D01*
X146153238Y-117062095D01*
X146248476Y-117109714D01*
X146438952Y-117157333D01*
X146581809Y-117157333D01*
X146772285Y-117109714D01*
X146867523Y-117062095D01*
X146962761Y-116966857D01*
X147010380Y-116824000D01*
X147010380Y-116728761D01*
X146962761Y-116585904D01*
X146915142Y-116538285D01*
X146581809Y-116538285D01*
X146581809Y-116728761D01*
X147010380Y-116109714D02*
X146010380Y-116109714D01*
X147010380Y-115538285D01*
X146010380Y-115538285D01*
X147010380Y-115062095D02*
X146010380Y-115062095D01*
X146010380Y-114824000D01*
X146058000Y-114681142D01*
X146153238Y-114585904D01*
X146248476Y-114538285D01*
X146438952Y-114490666D01*
X146581809Y-114490666D01*
X146772285Y-114538285D01*
X146867523Y-114585904D01*
X146962761Y-114681142D01*
X147010380Y-114824000D01*
X147010380Y-115062095D01*
X143518000Y-116585904D02*
X143470380Y-116681142D01*
X143470380Y-116824000D01*
X143518000Y-116966857D01*
X143613238Y-117062095D01*
X143708476Y-117109714D01*
X143898952Y-117157333D01*
X144041809Y-117157333D01*
X144232285Y-117109714D01*
X144327523Y-117062095D01*
X144422761Y-116966857D01*
X144470380Y-116824000D01*
X144470380Y-116728761D01*
X144422761Y-116585904D01*
X144375142Y-116538285D01*
X144041809Y-116538285D01*
X144041809Y-116728761D01*
X144470380Y-116109714D02*
X143470380Y-116109714D01*
X144470380Y-115538285D01*
X143470380Y-115538285D01*
X144470380Y-115062095D02*
X143470380Y-115062095D01*
X143470380Y-114824000D01*
X143518000Y-114681142D01*
X143613238Y-114585904D01*
X143708476Y-114538285D01*
X143898952Y-114490666D01*
X144041809Y-114490666D01*
X144232285Y-114538285D01*
X144327523Y-114585904D01*
X144422761Y-114681142D01*
X144470380Y-114824000D01*
X144470380Y-115062095D01*
X195453000Y-124333000D02*
X198628000Y-121158000D01*
X153289000Y-124333000D02*
X195453000Y-124333000D01*
X153908380Y-123896380D02*
X153908380Y-122896380D01*
X154384571Y-123229714D02*
X154384571Y-123896380D01*
X154384571Y-123324952D02*
X154432190Y-123277333D01*
X154527428Y-123229714D01*
X154670285Y-123229714D01*
X154765523Y-123277333D01*
X154813142Y-123372571D01*
X154813142Y-123896380D01*
X155289333Y-123229714D02*
X155289333Y-124229714D01*
X155289333Y-123277333D02*
X155384571Y-123229714D01*
X155575047Y-123229714D01*
X155670285Y-123277333D01*
X155717904Y-123324952D01*
X155765523Y-123420190D01*
X155765523Y-123705904D01*
X155717904Y-123801142D01*
X155670285Y-123848761D01*
X155575047Y-123896380D01*
X155384571Y-123896380D01*
X155289333Y-123848761D01*
X156622666Y-123229714D02*
X156622666Y-123896380D01*
X156194095Y-123229714D02*
X156194095Y-123753523D01*
X156241714Y-123848761D01*
X156336952Y-123896380D01*
X156479809Y-123896380D01*
X156575047Y-123848761D01*
X156622666Y-123801142D01*
X156956000Y-123229714D02*
X157336952Y-123229714D01*
X157098857Y-122896380D02*
X157098857Y-123753523D01*
X157146476Y-123848761D01*
X157241714Y-123896380D01*
X157336952Y-123896380D01*
X157622666Y-123848761D02*
X157717904Y-123896380D01*
X157908380Y-123896380D01*
X158003619Y-123848761D01*
X158051238Y-123753523D01*
X158051238Y-123705904D01*
X158003619Y-123610666D01*
X157908380Y-123563047D01*
X157765523Y-123563047D01*
X157670285Y-123515428D01*
X157622666Y-123420190D01*
X157622666Y-123372571D01*
X157670285Y-123277333D01*
X157765523Y-123229714D01*
X157908380Y-123229714D01*
X158003619Y-123277333D01*
X176942761Y-121927952D02*
X176847523Y-121880333D01*
X176799904Y-121832714D01*
X176752285Y-121737476D01*
X176752285Y-121689857D01*
X176799904Y-121594619D01*
X176847523Y-121547000D01*
X176942761Y-121499380D01*
X177133238Y-121499380D01*
X177228476Y-121547000D01*
X177276095Y-121594619D01*
X177323714Y-121689857D01*
X177323714Y-121737476D01*
X177276095Y-121832714D01*
X177228476Y-121880333D01*
X177133238Y-121927952D01*
X176942761Y-121927952D01*
X176847523Y-121975571D01*
X176799904Y-122023190D01*
X176752285Y-122118428D01*
X176752285Y-122308904D01*
X176799904Y-122404142D01*
X176847523Y-122451761D01*
X176942761Y-122499380D01*
X177133238Y-122499380D01*
X177228476Y-122451761D01*
X177276095Y-122404142D01*
X177323714Y-122308904D01*
X177323714Y-122118428D01*
X177276095Y-122023190D01*
X177228476Y-121975571D01*
X177133238Y-121927952D01*
X179387523Y-122499380D02*
X179578000Y-122499380D01*
X179673238Y-122451761D01*
X179720857Y-122404142D01*
X179816095Y-122261285D01*
X179863714Y-122070809D01*
X179863714Y-121689857D01*
X179816095Y-121594619D01*
X179768476Y-121547000D01*
X179673238Y-121499380D01*
X179482761Y-121499380D01*
X179387523Y-121547000D01*
X179339904Y-121594619D01*
X179292285Y-121689857D01*
X179292285Y-121927952D01*
X179339904Y-122023190D01*
X179387523Y-122070809D01*
X179482761Y-122118428D01*
X179673238Y-122118428D01*
X179768476Y-122070809D01*
X179816095Y-122023190D01*
X179863714Y-121927952D01*
X181927523Y-122499380D02*
X181356095Y-122499380D01*
X181641809Y-122499380D02*
X181641809Y-121499380D01*
X181546571Y-121642238D01*
X181451333Y-121737476D01*
X181356095Y-121785095D01*
X182546571Y-121499380D02*
X182641809Y-121499380D01*
X182737047Y-121547000D01*
X182784666Y-121594619D01*
X182832285Y-121689857D01*
X182879904Y-121880333D01*
X182879904Y-122118428D01*
X182832285Y-122308904D01*
X182784666Y-122404142D01*
X182737047Y-122451761D01*
X182641809Y-122499380D01*
X182546571Y-122499380D01*
X182451333Y-122451761D01*
X182403714Y-122404142D01*
X182356095Y-122308904D01*
X182308476Y-122118428D01*
X182308476Y-121880333D01*
X182356095Y-121689857D01*
X182403714Y-121594619D01*
X182451333Y-121547000D01*
X182546571Y-121499380D01*
X184467523Y-122499380D02*
X183896095Y-122499380D01*
X184181809Y-122499380D02*
X184181809Y-121499380D01*
X184086571Y-121642238D01*
X183991333Y-121737476D01*
X183896095Y-121785095D01*
X185419904Y-122499380D02*
X184848476Y-122499380D01*
X185134190Y-122499380D02*
X185134190Y-121499380D01*
X185038952Y-121642238D01*
X184943714Y-121737476D01*
X184848476Y-121785095D01*
X194627523Y-122499380D02*
X194056095Y-122499380D01*
X194341809Y-122499380D02*
X194341809Y-121499380D01*
X194246571Y-121642238D01*
X194151333Y-121737476D01*
X194056095Y-121785095D01*
X195532285Y-121499380D02*
X195056095Y-121499380D01*
X195008476Y-121975571D01*
X195056095Y-121927952D01*
X195151333Y-121880333D01*
X195389428Y-121880333D01*
X195484666Y-121927952D01*
X195532285Y-121975571D01*
X195579904Y-122070809D01*
X195579904Y-122308904D01*
X195532285Y-122404142D01*
X195484666Y-122451761D01*
X195389428Y-122499380D01*
X195151333Y-122499380D01*
X195056095Y-122451761D01*
X195008476Y-122404142D01*
X187007523Y-122499380D02*
X186436095Y-122499380D01*
X186721809Y-122499380D02*
X186721809Y-121499380D01*
X186626571Y-121642238D01*
X186531333Y-121737476D01*
X186436095Y-121785095D01*
X187388476Y-121594619D02*
X187436095Y-121547000D01*
X187531333Y-121499380D01*
X187769428Y-121499380D01*
X187864666Y-121547000D01*
X187912285Y-121594619D01*
X187959904Y-121689857D01*
X187959904Y-121785095D01*
X187912285Y-121927952D01*
X187340857Y-122499380D01*
X187959904Y-122499380D01*
X189547523Y-122499380D02*
X188976095Y-122499380D01*
X189261809Y-122499380D02*
X189261809Y-121499380D01*
X189166571Y-121642238D01*
X189071333Y-121737476D01*
X188976095Y-121785095D01*
X189880857Y-121499380D02*
X190499904Y-121499380D01*
X190166571Y-121880333D01*
X190309428Y-121880333D01*
X190404666Y-121927952D01*
X190452285Y-121975571D01*
X190499904Y-122070809D01*
X190499904Y-122308904D01*
X190452285Y-122404142D01*
X190404666Y-122451761D01*
X190309428Y-122499380D01*
X190023714Y-122499380D01*
X189928476Y-122451761D01*
X189880857Y-122404142D01*
X192087523Y-122499380D02*
X191516095Y-122499380D01*
X191801809Y-122499380D02*
X191801809Y-121499380D01*
X191706571Y-121642238D01*
X191611333Y-121737476D01*
X191516095Y-121785095D01*
X192944666Y-121832714D02*
X192944666Y-122499380D01*
X192706571Y-121451761D02*
X192468476Y-122166047D01*
X193087523Y-122166047D01*
X164528476Y-121832714D02*
X164528476Y-122499380D01*
X164290380Y-121451761D02*
X164052285Y-122166047D01*
X164671333Y-122166047D01*
X167116095Y-121499380D02*
X166639904Y-121499380D01*
X166592285Y-121975571D01*
X166639904Y-121927952D01*
X166735142Y-121880333D01*
X166973238Y-121880333D01*
X167068476Y-121927952D01*
X167116095Y-121975571D01*
X167163714Y-122070809D01*
X167163714Y-122308904D01*
X167116095Y-122404142D01*
X167068476Y-122451761D01*
X166973238Y-122499380D01*
X166735142Y-122499380D01*
X166639904Y-122451761D01*
X166592285Y-122404142D01*
X169608476Y-121499380D02*
X169418000Y-121499380D01*
X169322761Y-121547000D01*
X169275142Y-121594619D01*
X169179904Y-121737476D01*
X169132285Y-121927952D01*
X169132285Y-122308904D01*
X169179904Y-122404142D01*
X169227523Y-122451761D01*
X169322761Y-122499380D01*
X169513238Y-122499380D01*
X169608476Y-122451761D01*
X169656095Y-122404142D01*
X169703714Y-122308904D01*
X169703714Y-122070809D01*
X169656095Y-121975571D01*
X169608476Y-121927952D01*
X169513238Y-121880333D01*
X169322761Y-121880333D01*
X169227523Y-121927952D01*
X169179904Y-121975571D01*
X169132285Y-122070809D01*
X171624666Y-121499380D02*
X172291333Y-121499380D01*
X171862761Y-122499380D01*
X161464666Y-121499380D02*
X162083714Y-121499380D01*
X161750380Y-121880333D01*
X161893238Y-121880333D01*
X161988476Y-121927952D01*
X162036095Y-121975571D01*
X162083714Y-122070809D01*
X162083714Y-122308904D01*
X162036095Y-122404142D01*
X161988476Y-122451761D01*
X161893238Y-122499380D01*
X161607523Y-122499380D01*
X161512285Y-122451761D01*
X161464666Y-122404142D01*
X158972285Y-121594619D02*
X159019904Y-121547000D01*
X159115142Y-121499380D01*
X159353238Y-121499380D01*
X159448476Y-121547000D01*
X159496095Y-121594619D01*
X159543714Y-121689857D01*
X159543714Y-121785095D01*
X159496095Y-121927952D01*
X158924666Y-122499380D01*
X159543714Y-122499380D01*
X157003714Y-122499380D02*
X156432285Y-122499380D01*
X156718000Y-122499380D02*
X156718000Y-121499380D01*
X156622761Y-121642238D01*
X156527523Y-121737476D01*
X156432285Y-121785095D01*
X154130380Y-121499380D02*
X154225619Y-121499380D01*
X154320857Y-121547000D01*
X154368476Y-121594619D01*
X154416095Y-121689857D01*
X154463714Y-121880333D01*
X154463714Y-122118428D01*
X154416095Y-122308904D01*
X154368476Y-122404142D01*
X154320857Y-122451761D01*
X154225619Y-122499380D01*
X154130380Y-122499380D01*
X154035142Y-122451761D01*
X153987523Y-122404142D01*
X153939904Y-122308904D01*
X153892285Y-122118428D01*
X153892285Y-121880333D01*
X153939904Y-121689857D01*
X153987523Y-121594619D01*
X154035142Y-121547000D01*
X154130380Y-121499380D01*
X170942000Y-76962000D02*
X190500000Y-76962000D01*
X188722000Y-106934000D02*
X188722000Y-107315000D01*
X188722000Y-79121000D02*
X188722000Y-106934000D01*
X191516000Y-76327000D02*
X188722000Y-79121000D01*
X191516000Y-76327000D02*
X191516000Y-72009000D01*
X190063380Y-106822619D02*
X189063380Y-106822619D01*
X189396714Y-106346428D02*
X190063380Y-106346428D01*
X189491952Y-106346428D02*
X189444333Y-106298809D01*
X189396714Y-106203571D01*
X189396714Y-106060714D01*
X189444333Y-105965476D01*
X189539571Y-105917857D01*
X190063380Y-105917857D01*
X189396714Y-105441666D02*
X190396714Y-105441666D01*
X189444333Y-105441666D02*
X189396714Y-105346428D01*
X189396714Y-105155952D01*
X189444333Y-105060714D01*
X189491952Y-105013095D01*
X189587190Y-104965476D01*
X189872904Y-104965476D01*
X189968142Y-105013095D01*
X190015761Y-105060714D01*
X190063380Y-105155952D01*
X190063380Y-105346428D01*
X190015761Y-105441666D01*
X189396714Y-104108333D02*
X190063380Y-104108333D01*
X189396714Y-104536904D02*
X189920523Y-104536904D01*
X190015761Y-104489285D01*
X190063380Y-104394047D01*
X190063380Y-104251190D01*
X190015761Y-104155952D01*
X189968142Y-104108333D01*
X189396714Y-103775000D02*
X189396714Y-103394047D01*
X189063380Y-103632142D02*
X189920523Y-103632142D01*
X190015761Y-103584523D01*
X190063380Y-103489285D01*
X190063380Y-103394047D01*
X190015761Y-103108333D02*
X190063380Y-103013095D01*
X190063380Y-102822619D01*
X190015761Y-102727380D01*
X189920523Y-102679761D01*
X189872904Y-102679761D01*
X189777666Y-102727380D01*
X189730047Y-102822619D01*
X189730047Y-102965476D01*
X189682428Y-103060714D01*
X189587190Y-103108333D01*
X189539571Y-103108333D01*
X189444333Y-103060714D01*
X189396714Y-102965476D01*
X189396714Y-102822619D01*
X189444333Y-102727380D01*
X193246476Y-103338380D02*
X193865523Y-103338380D01*
X193532190Y-103719333D01*
X193675047Y-103719333D01*
X193770285Y-103766952D01*
X193817904Y-103814571D01*
X193865523Y-103909809D01*
X193865523Y-104147904D01*
X193817904Y-104243142D01*
X193770285Y-104290761D01*
X193675047Y-104338380D01*
X193389333Y-104338380D01*
X193294095Y-104290761D01*
X193246476Y-104243142D01*
X194198857Y-103338380D02*
X194865523Y-103338380D01*
X194436952Y-104338380D01*
X190706476Y-105878380D02*
X191325523Y-105878380D01*
X190992190Y-106259333D01*
X191135047Y-106259333D01*
X191230285Y-106306952D01*
X191277904Y-106354571D01*
X191325523Y-106449809D01*
X191325523Y-106687904D01*
X191277904Y-106783142D01*
X191230285Y-106830761D01*
X191135047Y-106878380D01*
X190849333Y-106878380D01*
X190754095Y-106830761D01*
X190706476Y-106783142D01*
X191896952Y-106306952D02*
X191801714Y-106259333D01*
X191754095Y-106211714D01*
X191706476Y-106116476D01*
X191706476Y-106068857D01*
X191754095Y-105973619D01*
X191801714Y-105926000D01*
X191896952Y-105878380D01*
X192087428Y-105878380D01*
X192182666Y-105926000D01*
X192230285Y-105973619D01*
X192277904Y-106068857D01*
X192277904Y-106116476D01*
X192230285Y-106211714D01*
X192182666Y-106259333D01*
X192087428Y-106306952D01*
X191896952Y-106306952D01*
X191801714Y-106354571D01*
X191754095Y-106402190D01*
X191706476Y-106497428D01*
X191706476Y-106687904D01*
X191754095Y-106783142D01*
X191801714Y-106830761D01*
X191896952Y-106878380D01*
X192087428Y-106878380D01*
X192182666Y-106830761D01*
X192230285Y-106783142D01*
X192277904Y-106687904D01*
X192277904Y-106497428D01*
X192230285Y-106402190D01*
X192182666Y-106354571D01*
X192087428Y-106306952D01*
X190706476Y-103338380D02*
X191325523Y-103338380D01*
X190992190Y-103719333D01*
X191135047Y-103719333D01*
X191230285Y-103766952D01*
X191277904Y-103814571D01*
X191325523Y-103909809D01*
X191325523Y-104147904D01*
X191277904Y-104243142D01*
X191230285Y-104290761D01*
X191135047Y-104338380D01*
X190849333Y-104338380D01*
X190754095Y-104290761D01*
X190706476Y-104243142D01*
X192182666Y-103338380D02*
X191992190Y-103338380D01*
X191896952Y-103386000D01*
X191849333Y-103433619D01*
X191754095Y-103576476D01*
X191706476Y-103766952D01*
X191706476Y-104147904D01*
X191754095Y-104243142D01*
X191801714Y-104290761D01*
X191896952Y-104338380D01*
X192087428Y-104338380D01*
X192182666Y-104290761D01*
X192230285Y-104243142D01*
X192277904Y-104147904D01*
X192277904Y-103909809D01*
X192230285Y-103814571D01*
X192182666Y-103766952D01*
X192087428Y-103719333D01*
X191896952Y-103719333D01*
X191801714Y-103766952D01*
X191754095Y-103814571D01*
X191706476Y-103909809D01*
X193246476Y-105878380D02*
X193865523Y-105878380D01*
X193532190Y-106259333D01*
X193675047Y-106259333D01*
X193770285Y-106306952D01*
X193817904Y-106354571D01*
X193865523Y-106449809D01*
X193865523Y-106687904D01*
X193817904Y-106783142D01*
X193770285Y-106830761D01*
X193675047Y-106878380D01*
X193389333Y-106878380D01*
X193294095Y-106830761D01*
X193246476Y-106783142D01*
X194341714Y-106878380D02*
X194532190Y-106878380D01*
X194627428Y-106830761D01*
X194675047Y-106783142D01*
X194770285Y-106640285D01*
X194817904Y-106449809D01*
X194817904Y-106068857D01*
X194770285Y-105973619D01*
X194722666Y-105926000D01*
X194627428Y-105878380D01*
X194436952Y-105878380D01*
X194341714Y-105926000D01*
X194294095Y-105973619D01*
X194246476Y-106068857D01*
X194246476Y-106306952D01*
X194294095Y-106402190D01*
X194341714Y-106449809D01*
X194436952Y-106497428D01*
X194627428Y-106497428D01*
X194722666Y-106449809D01*
X194770285Y-106402190D01*
X194817904Y-106306952D01*
X193246476Y-98258380D02*
X193865523Y-98258380D01*
X193532190Y-98639333D01*
X193675047Y-98639333D01*
X193770285Y-98686952D01*
X193817904Y-98734571D01*
X193865523Y-98829809D01*
X193865523Y-99067904D01*
X193817904Y-99163142D01*
X193770285Y-99210761D01*
X193675047Y-99258380D01*
X193389333Y-99258380D01*
X193294095Y-99210761D01*
X193246476Y-99163142D01*
X194198857Y-98258380D02*
X194817904Y-98258380D01*
X194484571Y-98639333D01*
X194627428Y-98639333D01*
X194722666Y-98686952D01*
X194770285Y-98734571D01*
X194817904Y-98829809D01*
X194817904Y-99067904D01*
X194770285Y-99163142D01*
X194722666Y-99210761D01*
X194627428Y-99258380D01*
X194341714Y-99258380D01*
X194246476Y-99210761D01*
X194198857Y-99163142D01*
X190706476Y-100798380D02*
X191325523Y-100798380D01*
X190992190Y-101179333D01*
X191135047Y-101179333D01*
X191230285Y-101226952D01*
X191277904Y-101274571D01*
X191325523Y-101369809D01*
X191325523Y-101607904D01*
X191277904Y-101703142D01*
X191230285Y-101750761D01*
X191135047Y-101798380D01*
X190849333Y-101798380D01*
X190754095Y-101750761D01*
X190706476Y-101703142D01*
X192182666Y-101131714D02*
X192182666Y-101798380D01*
X191944571Y-100750761D02*
X191706476Y-101465047D01*
X192325523Y-101465047D01*
X190706476Y-98258380D02*
X191325523Y-98258380D01*
X190992190Y-98639333D01*
X191135047Y-98639333D01*
X191230285Y-98686952D01*
X191277904Y-98734571D01*
X191325523Y-98829809D01*
X191325523Y-99067904D01*
X191277904Y-99163142D01*
X191230285Y-99210761D01*
X191135047Y-99258380D01*
X190849333Y-99258380D01*
X190754095Y-99210761D01*
X190706476Y-99163142D01*
X191706476Y-98353619D02*
X191754095Y-98306000D01*
X191849333Y-98258380D01*
X192087428Y-98258380D01*
X192182666Y-98306000D01*
X192230285Y-98353619D01*
X192277904Y-98448857D01*
X192277904Y-98544095D01*
X192230285Y-98686952D01*
X191658857Y-99258380D01*
X192277904Y-99258380D01*
X193246476Y-100798380D02*
X193865523Y-100798380D01*
X193532190Y-101179333D01*
X193675047Y-101179333D01*
X193770285Y-101226952D01*
X193817904Y-101274571D01*
X193865523Y-101369809D01*
X193865523Y-101607904D01*
X193817904Y-101703142D01*
X193770285Y-101750761D01*
X193675047Y-101798380D01*
X193389333Y-101798380D01*
X193294095Y-101750761D01*
X193246476Y-101703142D01*
X194770285Y-100798380D02*
X194294095Y-100798380D01*
X194246476Y-101274571D01*
X194294095Y-101226952D01*
X194389333Y-101179333D01*
X194627428Y-101179333D01*
X194722666Y-101226952D01*
X194770285Y-101274571D01*
X194817904Y-101369809D01*
X194817904Y-101607904D01*
X194770285Y-101703142D01*
X194722666Y-101750761D01*
X194627428Y-101798380D01*
X194389333Y-101798380D01*
X194294095Y-101750761D01*
X194246476Y-101703142D01*
X193294095Y-93273619D02*
X193341714Y-93226000D01*
X193436952Y-93178380D01*
X193675047Y-93178380D01*
X193770285Y-93226000D01*
X193817904Y-93273619D01*
X193865523Y-93368857D01*
X193865523Y-93464095D01*
X193817904Y-93606952D01*
X193246476Y-94178380D01*
X193865523Y-94178380D01*
X194341714Y-94178380D02*
X194532190Y-94178380D01*
X194627428Y-94130761D01*
X194675047Y-94083142D01*
X194770285Y-93940285D01*
X194817904Y-93749809D01*
X194817904Y-93368857D01*
X194770285Y-93273619D01*
X194722666Y-93226000D01*
X194627428Y-93178380D01*
X194436952Y-93178380D01*
X194341714Y-93226000D01*
X194294095Y-93273619D01*
X194246476Y-93368857D01*
X194246476Y-93606952D01*
X194294095Y-93702190D01*
X194341714Y-93749809D01*
X194436952Y-93797428D01*
X194627428Y-93797428D01*
X194722666Y-93749809D01*
X194770285Y-93702190D01*
X194817904Y-93606952D01*
X190706476Y-95718380D02*
X191325523Y-95718380D01*
X190992190Y-96099333D01*
X191135047Y-96099333D01*
X191230285Y-96146952D01*
X191277904Y-96194571D01*
X191325523Y-96289809D01*
X191325523Y-96527904D01*
X191277904Y-96623142D01*
X191230285Y-96670761D01*
X191135047Y-96718380D01*
X190849333Y-96718380D01*
X190754095Y-96670761D01*
X190706476Y-96623142D01*
X191944571Y-95718380D02*
X192039809Y-95718380D01*
X192135047Y-95766000D01*
X192182666Y-95813619D01*
X192230285Y-95908857D01*
X192277904Y-96099333D01*
X192277904Y-96337428D01*
X192230285Y-96527904D01*
X192182666Y-96623142D01*
X192135047Y-96670761D01*
X192039809Y-96718380D01*
X191944571Y-96718380D01*
X191849333Y-96670761D01*
X191801714Y-96623142D01*
X191754095Y-96527904D01*
X191706476Y-96337428D01*
X191706476Y-96099333D01*
X191754095Y-95908857D01*
X191801714Y-95813619D01*
X191849333Y-95766000D01*
X191944571Y-95718380D01*
X190754095Y-93273619D02*
X190801714Y-93226000D01*
X190896952Y-93178380D01*
X191135047Y-93178380D01*
X191230285Y-93226000D01*
X191277904Y-93273619D01*
X191325523Y-93368857D01*
X191325523Y-93464095D01*
X191277904Y-93606952D01*
X190706476Y-94178380D01*
X191325523Y-94178380D01*
X191896952Y-93606952D02*
X191801714Y-93559333D01*
X191754095Y-93511714D01*
X191706476Y-93416476D01*
X191706476Y-93368857D01*
X191754095Y-93273619D01*
X191801714Y-93226000D01*
X191896952Y-93178380D01*
X192087428Y-93178380D01*
X192182666Y-93226000D01*
X192230285Y-93273619D01*
X192277904Y-93368857D01*
X192277904Y-93416476D01*
X192230285Y-93511714D01*
X192182666Y-93559333D01*
X192087428Y-93606952D01*
X191896952Y-93606952D01*
X191801714Y-93654571D01*
X191754095Y-93702190D01*
X191706476Y-93797428D01*
X191706476Y-93987904D01*
X191754095Y-94083142D01*
X191801714Y-94130761D01*
X191896952Y-94178380D01*
X192087428Y-94178380D01*
X192182666Y-94130761D01*
X192230285Y-94083142D01*
X192277904Y-93987904D01*
X192277904Y-93797428D01*
X192230285Y-93702190D01*
X192182666Y-93654571D01*
X192087428Y-93606952D01*
X193246476Y-95718380D02*
X193865523Y-95718380D01*
X193532190Y-96099333D01*
X193675047Y-96099333D01*
X193770285Y-96146952D01*
X193817904Y-96194571D01*
X193865523Y-96289809D01*
X193865523Y-96527904D01*
X193817904Y-96623142D01*
X193770285Y-96670761D01*
X193675047Y-96718380D01*
X193389333Y-96718380D01*
X193294095Y-96670761D01*
X193246476Y-96623142D01*
X194817904Y-96718380D02*
X194246476Y-96718380D01*
X194532190Y-96718380D02*
X194532190Y-95718380D01*
X194436952Y-95861238D01*
X194341714Y-95956476D01*
X194246476Y-96004095D01*
X193294095Y-88193619D02*
X193341714Y-88146000D01*
X193436952Y-88098380D01*
X193675047Y-88098380D01*
X193770285Y-88146000D01*
X193817904Y-88193619D01*
X193865523Y-88288857D01*
X193865523Y-88384095D01*
X193817904Y-88526952D01*
X193246476Y-89098380D01*
X193865523Y-89098380D01*
X194770285Y-88098380D02*
X194294095Y-88098380D01*
X194246476Y-88574571D01*
X194294095Y-88526952D01*
X194389333Y-88479333D01*
X194627428Y-88479333D01*
X194722666Y-88526952D01*
X194770285Y-88574571D01*
X194817904Y-88669809D01*
X194817904Y-88907904D01*
X194770285Y-89003142D01*
X194722666Y-89050761D01*
X194627428Y-89098380D01*
X194389333Y-89098380D01*
X194294095Y-89050761D01*
X194246476Y-89003142D01*
X190754095Y-90733619D02*
X190801714Y-90686000D01*
X190896952Y-90638380D01*
X191135047Y-90638380D01*
X191230285Y-90686000D01*
X191277904Y-90733619D01*
X191325523Y-90828857D01*
X191325523Y-90924095D01*
X191277904Y-91066952D01*
X190706476Y-91638380D01*
X191325523Y-91638380D01*
X192182666Y-90638380D02*
X191992190Y-90638380D01*
X191896952Y-90686000D01*
X191849333Y-90733619D01*
X191754095Y-90876476D01*
X191706476Y-91066952D01*
X191706476Y-91447904D01*
X191754095Y-91543142D01*
X191801714Y-91590761D01*
X191896952Y-91638380D01*
X192087428Y-91638380D01*
X192182666Y-91590761D01*
X192230285Y-91543142D01*
X192277904Y-91447904D01*
X192277904Y-91209809D01*
X192230285Y-91114571D01*
X192182666Y-91066952D01*
X192087428Y-91019333D01*
X191896952Y-91019333D01*
X191801714Y-91066952D01*
X191754095Y-91114571D01*
X191706476Y-91209809D01*
X190754095Y-88193619D02*
X190801714Y-88146000D01*
X190896952Y-88098380D01*
X191135047Y-88098380D01*
X191230285Y-88146000D01*
X191277904Y-88193619D01*
X191325523Y-88288857D01*
X191325523Y-88384095D01*
X191277904Y-88526952D01*
X190706476Y-89098380D01*
X191325523Y-89098380D01*
X192182666Y-88431714D02*
X192182666Y-89098380D01*
X191944571Y-88050761D02*
X191706476Y-88765047D01*
X192325523Y-88765047D01*
X193294095Y-90733619D02*
X193341714Y-90686000D01*
X193436952Y-90638380D01*
X193675047Y-90638380D01*
X193770285Y-90686000D01*
X193817904Y-90733619D01*
X193865523Y-90828857D01*
X193865523Y-90924095D01*
X193817904Y-91066952D01*
X193246476Y-91638380D01*
X193865523Y-91638380D01*
X194198857Y-90638380D02*
X194865523Y-90638380D01*
X194436952Y-91638380D01*
X193294095Y-83113619D02*
X193341714Y-83066000D01*
X193436952Y-83018380D01*
X193675047Y-83018380D01*
X193770285Y-83066000D01*
X193817904Y-83113619D01*
X193865523Y-83208857D01*
X193865523Y-83304095D01*
X193817904Y-83446952D01*
X193246476Y-84018380D01*
X193865523Y-84018380D01*
X194817904Y-84018380D02*
X194246476Y-84018380D01*
X194532190Y-84018380D02*
X194532190Y-83018380D01*
X194436952Y-83161238D01*
X194341714Y-83256476D01*
X194246476Y-83304095D01*
X190754095Y-85653619D02*
X190801714Y-85606000D01*
X190896952Y-85558380D01*
X191135047Y-85558380D01*
X191230285Y-85606000D01*
X191277904Y-85653619D01*
X191325523Y-85748857D01*
X191325523Y-85844095D01*
X191277904Y-85986952D01*
X190706476Y-86558380D01*
X191325523Y-86558380D01*
X191706476Y-85653619D02*
X191754095Y-85606000D01*
X191849333Y-85558380D01*
X192087428Y-85558380D01*
X192182666Y-85606000D01*
X192230285Y-85653619D01*
X192277904Y-85748857D01*
X192277904Y-85844095D01*
X192230285Y-85986952D01*
X191658857Y-86558380D01*
X192277904Y-86558380D01*
X190754095Y-83113619D02*
X190801714Y-83066000D01*
X190896952Y-83018380D01*
X191135047Y-83018380D01*
X191230285Y-83066000D01*
X191277904Y-83113619D01*
X191325523Y-83208857D01*
X191325523Y-83304095D01*
X191277904Y-83446952D01*
X190706476Y-84018380D01*
X191325523Y-84018380D01*
X191944571Y-83018380D02*
X192039809Y-83018380D01*
X192135047Y-83066000D01*
X192182666Y-83113619D01*
X192230285Y-83208857D01*
X192277904Y-83399333D01*
X192277904Y-83637428D01*
X192230285Y-83827904D01*
X192182666Y-83923142D01*
X192135047Y-83970761D01*
X192039809Y-84018380D01*
X191944571Y-84018380D01*
X191849333Y-83970761D01*
X191801714Y-83923142D01*
X191754095Y-83827904D01*
X191706476Y-83637428D01*
X191706476Y-83399333D01*
X191754095Y-83208857D01*
X191801714Y-83113619D01*
X191849333Y-83066000D01*
X191944571Y-83018380D01*
X193294095Y-85653619D02*
X193341714Y-85606000D01*
X193436952Y-85558380D01*
X193675047Y-85558380D01*
X193770285Y-85606000D01*
X193817904Y-85653619D01*
X193865523Y-85748857D01*
X193865523Y-85844095D01*
X193817904Y-85986952D01*
X193246476Y-86558380D01*
X193865523Y-86558380D01*
X194198857Y-85558380D02*
X194817904Y-85558380D01*
X194484571Y-85939333D01*
X194627428Y-85939333D01*
X194722666Y-85986952D01*
X194770285Y-86034571D01*
X194817904Y-86129809D01*
X194817904Y-86367904D01*
X194770285Y-86463142D01*
X194722666Y-86510761D01*
X194627428Y-86558380D01*
X194341714Y-86558380D01*
X194246476Y-86510761D01*
X194198857Y-86463142D01*
X193865523Y-81478380D02*
X193294095Y-81478380D01*
X193579809Y-81478380D02*
X193579809Y-80478380D01*
X193484571Y-80621238D01*
X193389333Y-80716476D01*
X193294095Y-80764095D01*
X194341714Y-81478380D02*
X194532190Y-81478380D01*
X194627428Y-81430761D01*
X194675047Y-81383142D01*
X194770285Y-81240285D01*
X194817904Y-81049809D01*
X194817904Y-80668857D01*
X194770285Y-80573619D01*
X194722666Y-80526000D01*
X194627428Y-80478380D01*
X194436952Y-80478380D01*
X194341714Y-80526000D01*
X194294095Y-80573619D01*
X194246476Y-80668857D01*
X194246476Y-80906952D01*
X194294095Y-81002190D01*
X194341714Y-81049809D01*
X194436952Y-81097428D01*
X194627428Y-81097428D01*
X194722666Y-81049809D01*
X194770285Y-81002190D01*
X194817904Y-80906952D01*
X191325523Y-81478380D02*
X190754095Y-81478380D01*
X191039809Y-81478380D02*
X191039809Y-80478380D01*
X190944571Y-80621238D01*
X190849333Y-80716476D01*
X190754095Y-80764095D01*
X191896952Y-80906952D02*
X191801714Y-80859333D01*
X191754095Y-80811714D01*
X191706476Y-80716476D01*
X191706476Y-80668857D01*
X191754095Y-80573619D01*
X191801714Y-80526000D01*
X191896952Y-80478380D01*
X192087428Y-80478380D01*
X192182666Y-80526000D01*
X192230285Y-80573619D01*
X192277904Y-80668857D01*
X192277904Y-80716476D01*
X192230285Y-80811714D01*
X192182666Y-80859333D01*
X192087428Y-80906952D01*
X191896952Y-80906952D01*
X191801714Y-80954571D01*
X191754095Y-81002190D01*
X191706476Y-81097428D01*
X191706476Y-81287904D01*
X191754095Y-81383142D01*
X191801714Y-81430761D01*
X191896952Y-81478380D01*
X192087428Y-81478380D01*
X192182666Y-81430761D01*
X192230285Y-81383142D01*
X192277904Y-81287904D01*
X192277904Y-81097428D01*
X192230285Y-81002190D01*
X192182666Y-80954571D01*
X192087428Y-80906952D01*
X193865523Y-78938380D02*
X193294095Y-78938380D01*
X193579809Y-78938380D02*
X193579809Y-77938380D01*
X193484571Y-78081238D01*
X193389333Y-78176476D01*
X193294095Y-78224095D01*
X194198857Y-77938380D02*
X194865523Y-77938380D01*
X194436952Y-78938380D01*
X191325523Y-78938380D02*
X190754095Y-78938380D01*
X191039809Y-78938380D02*
X191039809Y-77938380D01*
X190944571Y-78081238D01*
X190849333Y-78176476D01*
X190754095Y-78224095D01*
X192182666Y-77938380D02*
X191992190Y-77938380D01*
X191896952Y-77986000D01*
X191849333Y-78033619D01*
X191754095Y-78176476D01*
X191706476Y-78366952D01*
X191706476Y-78747904D01*
X191754095Y-78843142D01*
X191801714Y-78890761D01*
X191896952Y-78938380D01*
X192087428Y-78938380D01*
X192182666Y-78890761D01*
X192230285Y-78843142D01*
X192277904Y-78747904D01*
X192277904Y-78509809D01*
X192230285Y-78414571D01*
X192182666Y-78366952D01*
X192087428Y-78319333D01*
X191896952Y-78319333D01*
X191801714Y-78366952D01*
X191754095Y-78414571D01*
X191706476Y-78509809D01*
X174823380Y-74683857D02*
X174347190Y-75017190D01*
X174823380Y-75255285D02*
X173823380Y-75255285D01*
X173823380Y-74874333D01*
X173871000Y-74779095D01*
X173918619Y-74731476D01*
X174013857Y-74683857D01*
X174156714Y-74683857D01*
X174251952Y-74731476D01*
X174299571Y-74779095D01*
X174347190Y-74874333D01*
X174347190Y-75255285D01*
X173823380Y-74350523D02*
X174823380Y-73683857D01*
X173823380Y-73683857D02*
X174823380Y-74350523D01*
X173823380Y-73398142D02*
X173823380Y-72779095D01*
X174204333Y-73112428D01*
X174204333Y-72969571D01*
X174251952Y-72874333D01*
X174299571Y-72826714D01*
X174394809Y-72779095D01*
X174632904Y-72779095D01*
X174728142Y-72826714D01*
X174775761Y-72874333D01*
X174823380Y-72969571D01*
X174823380Y-73255285D01*
X174775761Y-73350523D01*
X174728142Y-73398142D01*
X171283380Y-75152095D02*
X171283380Y-74580666D01*
X172283380Y-74866380D02*
X171283380Y-74866380D01*
X171283380Y-74342571D02*
X172283380Y-73675904D01*
X171283380Y-73675904D02*
X172283380Y-74342571D01*
X171283380Y-73390190D02*
X171283380Y-72771142D01*
X171664333Y-73104476D01*
X171664333Y-72961619D01*
X171711952Y-72866380D01*
X171759571Y-72818761D01*
X171854809Y-72771142D01*
X172092904Y-72771142D01*
X172188142Y-72818761D01*
X172235761Y-72866380D01*
X172283380Y-72961619D01*
X172283380Y-73247333D01*
X172235761Y-73342571D01*
X172188142Y-73390190D01*
X179903380Y-74683857D02*
X179427190Y-75017190D01*
X179903380Y-75255285D02*
X178903380Y-75255285D01*
X178903380Y-74874333D01*
X178951000Y-74779095D01*
X178998619Y-74731476D01*
X179093857Y-74683857D01*
X179236714Y-74683857D01*
X179331952Y-74731476D01*
X179379571Y-74779095D01*
X179427190Y-74874333D01*
X179427190Y-75255285D01*
X178903380Y-74350523D02*
X179903380Y-73683857D01*
X178903380Y-73683857D02*
X179903380Y-74350523D01*
X178998619Y-73350523D02*
X178951000Y-73302904D01*
X178903380Y-73207666D01*
X178903380Y-72969571D01*
X178951000Y-72874333D01*
X178998619Y-72826714D01*
X179093857Y-72779095D01*
X179189095Y-72779095D01*
X179331952Y-72826714D01*
X179903380Y-73398142D01*
X179903380Y-72779095D01*
X176363380Y-75152095D02*
X176363380Y-74580666D01*
X177363380Y-74866380D02*
X176363380Y-74866380D01*
X176363380Y-74342571D02*
X177363380Y-73675904D01*
X176363380Y-73675904D02*
X177363380Y-74342571D01*
X176458619Y-73342571D02*
X176411000Y-73294952D01*
X176363380Y-73199714D01*
X176363380Y-72961619D01*
X176411000Y-72866380D01*
X176458619Y-72818761D01*
X176553857Y-72771142D01*
X176649095Y-72771142D01*
X176791952Y-72818761D01*
X177363380Y-73390190D01*
X177363380Y-72771142D01*
X181570380Y-75152095D02*
X181570380Y-74580666D01*
X182570380Y-74866380D02*
X181570380Y-74866380D01*
X181570380Y-74342571D02*
X182570380Y-73675904D01*
X181570380Y-73675904D02*
X182570380Y-74342571D01*
X182570380Y-72771142D02*
X182570380Y-73342571D01*
X182570380Y-73056857D02*
X181570380Y-73056857D01*
X181713238Y-73152095D01*
X181808476Y-73247333D01*
X181856095Y-73342571D01*
X185110380Y-74683857D02*
X184634190Y-75017190D01*
X185110380Y-75255285D02*
X184110380Y-75255285D01*
X184110380Y-74874333D01*
X184158000Y-74779095D01*
X184205619Y-74731476D01*
X184300857Y-74683857D01*
X184443714Y-74683857D01*
X184538952Y-74731476D01*
X184586571Y-74779095D01*
X184634190Y-74874333D01*
X184634190Y-75255285D01*
X184110380Y-74350523D02*
X185110380Y-73683857D01*
X184110380Y-73683857D02*
X185110380Y-74350523D01*
X185110380Y-72779095D02*
X185110380Y-73350523D01*
X185110380Y-73064809D02*
X184110380Y-73064809D01*
X184253238Y-73160047D01*
X184348476Y-73255285D01*
X184396095Y-73350523D01*
X187475761Y-75231476D02*
X187523380Y-75088619D01*
X187523380Y-74850523D01*
X187475761Y-74755285D01*
X187428142Y-74707666D01*
X187332904Y-74660047D01*
X187237666Y-74660047D01*
X187142428Y-74707666D01*
X187094809Y-74755285D01*
X187047190Y-74850523D01*
X186999571Y-75041000D01*
X186951952Y-75136238D01*
X186904333Y-75183857D01*
X186809095Y-75231476D01*
X186713857Y-75231476D01*
X186618619Y-75183857D01*
X186571000Y-75136238D01*
X186523380Y-75041000D01*
X186523380Y-74802904D01*
X186571000Y-74660047D01*
X187428142Y-73660047D02*
X187475761Y-73707666D01*
X187523380Y-73850523D01*
X187523380Y-73945761D01*
X187475761Y-74088619D01*
X187380523Y-74183857D01*
X187285285Y-74231476D01*
X187094809Y-74279095D01*
X186951952Y-74279095D01*
X186761476Y-74231476D01*
X186666238Y-74183857D01*
X186571000Y-74088619D01*
X186523380Y-73945761D01*
X186523380Y-73850523D01*
X186571000Y-73707666D01*
X186618619Y-73660047D01*
X187523380Y-72755285D02*
X187523380Y-73231476D01*
X186523380Y-73231476D01*
X190142761Y-75255285D02*
X190190380Y-75112428D01*
X190190380Y-74874333D01*
X190142761Y-74779095D01*
X190095142Y-74731476D01*
X189999904Y-74683857D01*
X189904666Y-74683857D01*
X189809428Y-74731476D01*
X189761809Y-74779095D01*
X189714190Y-74874333D01*
X189666571Y-75064809D01*
X189618952Y-75160047D01*
X189571333Y-75207666D01*
X189476095Y-75255285D01*
X189380857Y-75255285D01*
X189285619Y-75207666D01*
X189238000Y-75160047D01*
X189190380Y-75064809D01*
X189190380Y-74826714D01*
X189238000Y-74683857D01*
X190190380Y-74255285D02*
X189190380Y-74255285D01*
X189190380Y-74017190D01*
X189238000Y-73874333D01*
X189333238Y-73779095D01*
X189428476Y-73731476D01*
X189618952Y-73683857D01*
X189761809Y-73683857D01*
X189952285Y-73731476D01*
X190047523Y-73779095D01*
X190142761Y-73874333D01*
X190190380Y-74017190D01*
X190190380Y-74255285D01*
X189904666Y-73302904D02*
X189904666Y-72826714D01*
X190190380Y-73398142D02*
X189190380Y-73064809D01*
X190190380Y-72731476D01*
X137818761Y-74644142D02*
X137866380Y-74501285D01*
X137866380Y-74263190D01*
X137818761Y-74167952D01*
X137771142Y-74120333D01*
X137675904Y-74072714D01*
X137580666Y-74072714D01*
X137485428Y-74120333D01*
X137437809Y-74167952D01*
X137390190Y-74263190D01*
X137342571Y-74453666D01*
X137294952Y-74548904D01*
X137247333Y-74596523D01*
X137152095Y-74644142D01*
X137056857Y-74644142D01*
X136961619Y-74596523D01*
X136914000Y-74548904D01*
X136866380Y-74453666D01*
X136866380Y-74215571D01*
X136914000Y-74072714D01*
X136866380Y-73739380D02*
X137866380Y-73501285D01*
X137152095Y-73310809D01*
X137866380Y-73120333D01*
X136866380Y-72882238D01*
X135326380Y-74302857D02*
X134326380Y-74302857D01*
X134326380Y-74064761D01*
X134374000Y-73921904D01*
X134469238Y-73826666D01*
X134564476Y-73779047D01*
X134754952Y-73731428D01*
X134897809Y-73731428D01*
X135088285Y-73779047D01*
X135183523Y-73826666D01*
X135278761Y-73921904D01*
X135326380Y-74064761D01*
X135326380Y-74302857D01*
X134326380Y-73445714D02*
X134326380Y-72874285D01*
X135326380Y-73160000D02*
X134326380Y-73160000D01*
X132691142Y-74636238D02*
X132738761Y-74683857D01*
X132786380Y-74826714D01*
X132786380Y-74921952D01*
X132738761Y-75064809D01*
X132643523Y-75160047D01*
X132548285Y-75207666D01*
X132357809Y-75255285D01*
X132214952Y-75255285D01*
X132024476Y-75207666D01*
X131929238Y-75160047D01*
X131834000Y-75064809D01*
X131786380Y-74921952D01*
X131786380Y-74826714D01*
X131834000Y-74683857D01*
X131881619Y-74636238D01*
X132786380Y-73731476D02*
X132786380Y-74207666D01*
X131786380Y-74207666D01*
X132786380Y-73398142D02*
X131786380Y-73398142D01*
X132786380Y-72826714D02*
X132214952Y-73255285D01*
X131786380Y-72826714D02*
X132357809Y-73398142D01*
X129294000Y-74802904D02*
X129246380Y-74898142D01*
X129246380Y-75041000D01*
X129294000Y-75183857D01*
X129389238Y-75279095D01*
X129484476Y-75326714D01*
X129674952Y-75374333D01*
X129817809Y-75374333D01*
X130008285Y-75326714D01*
X130103523Y-75279095D01*
X130198761Y-75183857D01*
X130246380Y-75041000D01*
X130246380Y-74945761D01*
X130198761Y-74802904D01*
X130151142Y-74755285D01*
X129817809Y-74755285D01*
X129817809Y-74945761D01*
X130246380Y-74326714D02*
X129246380Y-74326714D01*
X130246380Y-73755285D01*
X129246380Y-73755285D01*
X130246380Y-73279095D02*
X129246380Y-73279095D01*
X129246380Y-73041000D01*
X129294000Y-72898142D01*
X129389238Y-72802904D01*
X129484476Y-72755285D01*
X129674952Y-72707666D01*
X129817809Y-72707666D01*
X130008285Y-72755285D01*
X130103523Y-72802904D01*
X130198761Y-72898142D01*
X130246380Y-73041000D01*
X130246380Y-73279095D01*
X125118761Y-75255285D02*
X125166380Y-75112428D01*
X125166380Y-74874333D01*
X125118761Y-74779095D01*
X125071142Y-74731476D01*
X124975904Y-74683857D01*
X124880666Y-74683857D01*
X124785428Y-74731476D01*
X124737809Y-74779095D01*
X124690190Y-74874333D01*
X124642571Y-75064809D01*
X124594952Y-75160047D01*
X124547333Y-75207666D01*
X124452095Y-75255285D01*
X124356857Y-75255285D01*
X124261619Y-75207666D01*
X124214000Y-75160047D01*
X124166380Y-75064809D01*
X124166380Y-74826714D01*
X124214000Y-74683857D01*
X125166380Y-74255285D02*
X124166380Y-74255285D01*
X124166380Y-74017190D01*
X124214000Y-73874333D01*
X124309238Y-73779095D01*
X124404476Y-73731476D01*
X124594952Y-73683857D01*
X124737809Y-73683857D01*
X124928285Y-73731476D01*
X125023523Y-73779095D01*
X125118761Y-73874333D01*
X125166380Y-74017190D01*
X125166380Y-74255285D01*
X124880666Y-73302904D02*
X124880666Y-72826714D01*
X125166380Y-73398142D02*
X124166380Y-73064809D01*
X125166380Y-72731476D01*
X122451761Y-75231476D02*
X122499380Y-75088619D01*
X122499380Y-74850523D01*
X122451761Y-74755285D01*
X122404142Y-74707666D01*
X122308904Y-74660047D01*
X122213666Y-74660047D01*
X122118428Y-74707666D01*
X122070809Y-74755285D01*
X122023190Y-74850523D01*
X121975571Y-75041000D01*
X121927952Y-75136238D01*
X121880333Y-75183857D01*
X121785095Y-75231476D01*
X121689857Y-75231476D01*
X121594619Y-75183857D01*
X121547000Y-75136238D01*
X121499380Y-75041000D01*
X121499380Y-74802904D01*
X121547000Y-74660047D01*
X122404142Y-73660047D02*
X122451761Y-73707666D01*
X122499380Y-73850523D01*
X122499380Y-73945761D01*
X122451761Y-74088619D01*
X122356523Y-74183857D01*
X122261285Y-74231476D01*
X122070809Y-74279095D01*
X121927952Y-74279095D01*
X121737476Y-74231476D01*
X121642238Y-74183857D01*
X121547000Y-74088619D01*
X121499380Y-73945761D01*
X121499380Y-73850523D01*
X121547000Y-73707666D01*
X121594619Y-73660047D01*
X122499380Y-72755285D02*
X122499380Y-73231476D01*
X121499380Y-73231476D01*
X142946380Y-77834809D02*
X141946380Y-77834809D01*
X142660666Y-77501476D01*
X141946380Y-77168142D01*
X142946380Y-77168142D01*
X142279714Y-76263380D02*
X142946380Y-76263380D01*
X142279714Y-76691952D02*
X142803523Y-76691952D01*
X142898761Y-76644333D01*
X142946380Y-76549095D01*
X142946380Y-76406238D01*
X142898761Y-76311000D01*
X142851142Y-76263380D01*
X142946380Y-75882428D02*
X142279714Y-75358619D01*
X142279714Y-75882428D02*
X142946380Y-75358619D01*
X142898761Y-75025285D02*
X142946380Y-74882428D01*
X142946380Y-74644333D01*
X142898761Y-74549095D01*
X142851142Y-74501476D01*
X142755904Y-74453857D01*
X142660666Y-74453857D01*
X142565428Y-74501476D01*
X142517809Y-74549095D01*
X142470190Y-74644333D01*
X142422571Y-74834809D01*
X142374952Y-74930047D01*
X142327333Y-74977666D01*
X142232095Y-75025285D01*
X142136857Y-75025285D01*
X142041619Y-74977666D01*
X141994000Y-74930047D01*
X141946380Y-74834809D01*
X141946380Y-74596714D01*
X141994000Y-74453857D01*
X142946380Y-72739571D02*
X142946380Y-73311000D01*
X142946380Y-73025285D02*
X141946380Y-73025285D01*
X142089238Y-73120523D01*
X142184476Y-73215761D01*
X142232095Y-73311000D01*
X145486380Y-77834809D02*
X144486380Y-77834809D01*
X145200666Y-77501476D01*
X144486380Y-77168142D01*
X145486380Y-77168142D01*
X144819714Y-76263380D02*
X145486380Y-76263380D01*
X144819714Y-76691952D02*
X145343523Y-76691952D01*
X145438761Y-76644333D01*
X145486380Y-76549095D01*
X145486380Y-76406238D01*
X145438761Y-76311000D01*
X145391142Y-76263380D01*
X145486380Y-75882428D02*
X144819714Y-75358619D01*
X144819714Y-75882428D02*
X145486380Y-75358619D01*
X145438761Y-75025285D02*
X145486380Y-74882428D01*
X145486380Y-74644333D01*
X145438761Y-74549095D01*
X145391142Y-74501476D01*
X145295904Y-74453857D01*
X145200666Y-74453857D01*
X145105428Y-74501476D01*
X145057809Y-74549095D01*
X145010190Y-74644333D01*
X144962571Y-74834809D01*
X144914952Y-74930047D01*
X144867333Y-74977666D01*
X144772095Y-75025285D01*
X144676857Y-75025285D01*
X144581619Y-74977666D01*
X144534000Y-74930047D01*
X144486380Y-74834809D01*
X144486380Y-74596714D01*
X144534000Y-74453857D01*
X144581619Y-73311000D02*
X144534000Y-73263380D01*
X144486380Y-73168142D01*
X144486380Y-72930047D01*
X144534000Y-72834809D01*
X144581619Y-72787190D01*
X144676857Y-72739571D01*
X144772095Y-72739571D01*
X144914952Y-72787190D01*
X145486380Y-73358619D01*
X145486380Y-72739571D01*
X149550380Y-77834809D02*
X148550380Y-77834809D01*
X149264666Y-77501476D01*
X148550380Y-77168142D01*
X149550380Y-77168142D01*
X148883714Y-76263380D02*
X149550380Y-76263380D01*
X148883714Y-76691952D02*
X149407523Y-76691952D01*
X149502761Y-76644333D01*
X149550380Y-76549095D01*
X149550380Y-76406238D01*
X149502761Y-76311000D01*
X149455142Y-76263380D01*
X149550380Y-75882428D02*
X148883714Y-75358619D01*
X148883714Y-75882428D02*
X149550380Y-75358619D01*
X149502761Y-75025285D02*
X149550380Y-74882428D01*
X149550380Y-74644333D01*
X149502761Y-74549095D01*
X149455142Y-74501476D01*
X149359904Y-74453857D01*
X149264666Y-74453857D01*
X149169428Y-74501476D01*
X149121809Y-74549095D01*
X149074190Y-74644333D01*
X149026571Y-74834809D01*
X148978952Y-74930047D01*
X148931333Y-74977666D01*
X148836095Y-75025285D01*
X148740857Y-75025285D01*
X148645619Y-74977666D01*
X148598000Y-74930047D01*
X148550380Y-74834809D01*
X148550380Y-74596714D01*
X148598000Y-74453857D01*
X148550380Y-73358619D02*
X148550380Y-72739571D01*
X148931333Y-73072904D01*
X148931333Y-72930047D01*
X148978952Y-72834809D01*
X149026571Y-72787190D01*
X149121809Y-72739571D01*
X149359904Y-72739571D01*
X149455142Y-72787190D01*
X149502761Y-72834809D01*
X149550380Y-72930047D01*
X149550380Y-73215761D01*
X149502761Y-73311000D01*
X149455142Y-73358619D01*
X152090380Y-77834809D02*
X151090380Y-77834809D01*
X151804666Y-77501476D01*
X151090380Y-77168142D01*
X152090380Y-77168142D01*
X151423714Y-76263380D02*
X152090380Y-76263380D01*
X151423714Y-76691952D02*
X151947523Y-76691952D01*
X152042761Y-76644333D01*
X152090380Y-76549095D01*
X152090380Y-76406238D01*
X152042761Y-76311000D01*
X151995142Y-76263380D01*
X152090380Y-75882428D02*
X151423714Y-75358619D01*
X151423714Y-75882428D02*
X152090380Y-75358619D01*
X152042761Y-75025285D02*
X152090380Y-74882428D01*
X152090380Y-74644333D01*
X152042761Y-74549095D01*
X151995142Y-74501476D01*
X151899904Y-74453857D01*
X151804666Y-74453857D01*
X151709428Y-74501476D01*
X151661809Y-74549095D01*
X151614190Y-74644333D01*
X151566571Y-74834809D01*
X151518952Y-74930047D01*
X151471333Y-74977666D01*
X151376095Y-75025285D01*
X151280857Y-75025285D01*
X151185619Y-74977666D01*
X151138000Y-74930047D01*
X151090380Y-74834809D01*
X151090380Y-74596714D01*
X151138000Y-74453857D01*
X151423714Y-72834809D02*
X152090380Y-72834809D01*
X151042761Y-73072904D02*
X151757047Y-73311000D01*
X151757047Y-72691952D01*
X154630380Y-77834809D02*
X153630380Y-77834809D01*
X154344666Y-77501476D01*
X153630380Y-77168142D01*
X154630380Y-77168142D01*
X153963714Y-76263380D02*
X154630380Y-76263380D01*
X153963714Y-76691952D02*
X154487523Y-76691952D01*
X154582761Y-76644333D01*
X154630380Y-76549095D01*
X154630380Y-76406238D01*
X154582761Y-76311000D01*
X154535142Y-76263380D01*
X154630380Y-75882428D02*
X153963714Y-75358619D01*
X153963714Y-75882428D02*
X154630380Y-75358619D01*
X154582761Y-75025285D02*
X154630380Y-74882428D01*
X154630380Y-74644333D01*
X154582761Y-74549095D01*
X154535142Y-74501476D01*
X154439904Y-74453857D01*
X154344666Y-74453857D01*
X154249428Y-74501476D01*
X154201809Y-74549095D01*
X154154190Y-74644333D01*
X154106571Y-74834809D01*
X154058952Y-74930047D01*
X154011333Y-74977666D01*
X153916095Y-75025285D01*
X153820857Y-75025285D01*
X153725619Y-74977666D01*
X153678000Y-74930047D01*
X153630380Y-74834809D01*
X153630380Y-74596714D01*
X153678000Y-74453857D01*
X153630380Y-72787190D02*
X153630380Y-73263380D01*
X154106571Y-73311000D01*
X154058952Y-73263380D01*
X154011333Y-73168142D01*
X154011333Y-72930047D01*
X154058952Y-72834809D01*
X154106571Y-72787190D01*
X154201809Y-72739571D01*
X154439904Y-72739571D01*
X154535142Y-72787190D01*
X154582761Y-72834809D01*
X154630380Y-72930047D01*
X154630380Y-73168142D01*
X154582761Y-73263380D01*
X154535142Y-73311000D01*
X157170380Y-77001428D02*
X156170380Y-77001428D01*
X156884666Y-76668095D01*
X156170380Y-76334761D01*
X157170380Y-76334761D01*
X156503714Y-75430000D02*
X157170380Y-75430000D01*
X156503714Y-75858571D02*
X157027523Y-75858571D01*
X157122761Y-75810952D01*
X157170380Y-75715714D01*
X157170380Y-75572857D01*
X157122761Y-75477619D01*
X157075142Y-75430000D01*
X157170380Y-75049047D02*
X156503714Y-74525238D01*
X156503714Y-75049047D02*
X157170380Y-74525238D01*
X157075142Y-72810952D02*
X157122761Y-72858571D01*
X157170380Y-73001428D01*
X157170380Y-73096666D01*
X157122761Y-73239523D01*
X157027523Y-73334761D01*
X156932285Y-73382380D01*
X156741809Y-73430000D01*
X156598952Y-73430000D01*
X156408476Y-73382380D01*
X156313238Y-73334761D01*
X156218000Y-73239523D01*
X156170380Y-73096666D01*
X156170380Y-73001428D01*
X156218000Y-72858571D01*
X156265619Y-72810952D01*
X159710380Y-77001428D02*
X158710380Y-77001428D01*
X159424666Y-76668095D01*
X158710380Y-76334761D01*
X159710380Y-76334761D01*
X159043714Y-75430000D02*
X159710380Y-75430000D01*
X159043714Y-75858571D02*
X159567523Y-75858571D01*
X159662761Y-75810952D01*
X159710380Y-75715714D01*
X159710380Y-75572857D01*
X159662761Y-75477619D01*
X159615142Y-75430000D01*
X159710380Y-75049047D02*
X159043714Y-74525238D01*
X159043714Y-75049047D02*
X159710380Y-74525238D01*
X159186571Y-73049047D02*
X159234190Y-72906190D01*
X159281809Y-72858571D01*
X159377047Y-72810952D01*
X159519904Y-72810952D01*
X159615142Y-72858571D01*
X159662761Y-72906190D01*
X159710380Y-73001428D01*
X159710380Y-73382380D01*
X158710380Y-73382380D01*
X158710380Y-73049047D01*
X158758000Y-72953809D01*
X158805619Y-72906190D01*
X158900857Y-72858571D01*
X158996095Y-72858571D01*
X159091333Y-72906190D01*
X159138952Y-72953809D01*
X159186571Y-73049047D01*
X159186571Y-73382380D01*
X162250380Y-76930000D02*
X161250380Y-76930000D01*
X161964666Y-76596666D01*
X161250380Y-76263333D01*
X162250380Y-76263333D01*
X161583714Y-75358571D02*
X162250380Y-75358571D01*
X161583714Y-75787142D02*
X162107523Y-75787142D01*
X162202761Y-75739523D01*
X162250380Y-75644285D01*
X162250380Y-75501428D01*
X162202761Y-75406190D01*
X162155142Y-75358571D01*
X162250380Y-74977619D02*
X161583714Y-74453809D01*
X161583714Y-74977619D02*
X162250380Y-74453809D01*
X161964666Y-73358571D02*
X161964666Y-72882380D01*
X162250380Y-73453809D02*
X161250380Y-73120476D01*
X162250380Y-72787142D01*
X181848142Y-112853761D02*
X181848142Y-113520428D01*
X182895761Y-113520428D02*
X180895761Y-113520428D01*
X180895761Y-112568047D01*
X182895761Y-111520428D02*
X182800523Y-111710904D01*
X182705285Y-111806142D01*
X182514809Y-111901380D01*
X181943380Y-111901380D01*
X181752904Y-111806142D01*
X181657666Y-111710904D01*
X181562428Y-111520428D01*
X181562428Y-111234714D01*
X181657666Y-111044238D01*
X181752904Y-110949000D01*
X181943380Y-110853761D01*
X182514809Y-110853761D01*
X182705285Y-110949000D01*
X182800523Y-111044238D01*
X182895761Y-111234714D01*
X182895761Y-111520428D01*
X182895761Y-109996619D02*
X181562428Y-109996619D01*
X181943380Y-109996619D02*
X181752904Y-109901380D01*
X181657666Y-109806142D01*
X181562428Y-109615666D01*
X181562428Y-109425190D01*
X182324333Y-107329952D02*
X182324333Y-106377571D01*
X182895761Y-107520428D02*
X180895761Y-106853761D01*
X182895761Y-106187095D01*
X182895761Y-105520428D02*
X181562428Y-105520428D01*
X181943380Y-105520428D02*
X181752904Y-105425190D01*
X181657666Y-105329952D01*
X181562428Y-105139476D01*
X181562428Y-104949000D01*
X182895761Y-103425190D02*
X180895761Y-103425190D01*
X182800523Y-103425190D02*
X182895761Y-103615666D01*
X182895761Y-103996619D01*
X182800523Y-104187095D01*
X182705285Y-104282333D01*
X182514809Y-104377571D01*
X181943380Y-104377571D01*
X181752904Y-104282333D01*
X181657666Y-104187095D01*
X181562428Y-103996619D01*
X181562428Y-103615666D01*
X181657666Y-103425190D01*
X181562428Y-101615666D02*
X182895761Y-101615666D01*
X181562428Y-102472809D02*
X182610047Y-102472809D01*
X182800523Y-102377571D01*
X182895761Y-102187095D01*
X182895761Y-101901380D01*
X182800523Y-101710904D01*
X182705285Y-101615666D01*
X182895761Y-100663285D02*
X181562428Y-100663285D01*
X180895761Y-100663285D02*
X180991000Y-100758523D01*
X181086238Y-100663285D01*
X180991000Y-100568047D01*
X180895761Y-100663285D01*
X181086238Y-100663285D01*
X181562428Y-99710904D02*
X182895761Y-99710904D01*
X181752904Y-99710904D02*
X181657666Y-99615666D01*
X181562428Y-99425190D01*
X181562428Y-99139476D01*
X181657666Y-98949000D01*
X181848142Y-98853761D01*
X182895761Y-98853761D01*
X182895761Y-97615666D02*
X182800523Y-97806142D01*
X182705285Y-97901380D01*
X182514809Y-97996619D01*
X181943380Y-97996619D01*
X181752904Y-97901380D01*
X181657666Y-97806142D01*
X181562428Y-97615666D01*
X181562428Y-97329952D01*
X181657666Y-97139476D01*
X181752904Y-97044238D01*
X181943380Y-96949000D01*
X182514809Y-96949000D01*
X182705285Y-97044238D01*
X182800523Y-97139476D01*
X182895761Y-97329952D01*
X182895761Y-97615666D01*
X182895761Y-94568047D02*
X180895761Y-94568047D01*
X182324333Y-93901380D01*
X180895761Y-93234714D01*
X182895761Y-93234714D01*
X182800523Y-91520428D02*
X182895761Y-91710904D01*
X182895761Y-92091857D01*
X182800523Y-92282333D01*
X182610047Y-92377571D01*
X181848142Y-92377571D01*
X181657666Y-92282333D01*
X181562428Y-92091857D01*
X181562428Y-91710904D01*
X181657666Y-91520428D01*
X181848142Y-91425190D01*
X182038619Y-91425190D01*
X182229095Y-92377571D01*
X181562428Y-89710904D02*
X183181476Y-89710904D01*
X183371952Y-89806142D01*
X183467190Y-89901380D01*
X183562428Y-90091857D01*
X183562428Y-90377571D01*
X183467190Y-90568047D01*
X182800523Y-89710904D02*
X182895761Y-89901380D01*
X182895761Y-90282333D01*
X182800523Y-90472809D01*
X182705285Y-90568047D01*
X182514809Y-90663285D01*
X181943380Y-90663285D01*
X181752904Y-90568047D01*
X181657666Y-90472809D01*
X181562428Y-90282333D01*
X181562428Y-89901380D01*
X181657666Y-89710904D01*
X182895761Y-87901380D02*
X181848142Y-87901380D01*
X181657666Y-87996619D01*
X181562428Y-88187095D01*
X181562428Y-88568047D01*
X181657666Y-88758523D01*
X182800523Y-87901380D02*
X182895761Y-88091857D01*
X182895761Y-88568047D01*
X182800523Y-88758523D01*
X182610047Y-88853761D01*
X182419571Y-88853761D01*
X182229095Y-88758523D01*
X182133857Y-88568047D01*
X182133857Y-88091857D01*
X182038619Y-87901380D01*
X184896142Y-112933095D02*
X184991380Y-112647380D01*
X185086619Y-112552142D01*
X185277095Y-112456904D01*
X185562809Y-112456904D01*
X185753285Y-112552142D01*
X185848523Y-112647380D01*
X185943761Y-112837857D01*
X185943761Y-113599761D01*
X183943761Y-113599761D01*
X183943761Y-112933095D01*
X184039000Y-112742619D01*
X184134238Y-112647380D01*
X184324714Y-112552142D01*
X184515190Y-112552142D01*
X184705666Y-112647380D01*
X184800904Y-112742619D01*
X184896142Y-112933095D01*
X184896142Y-113599761D01*
X184610428Y-111790238D02*
X185943761Y-111314047D01*
X184610428Y-110837857D02*
X185943761Y-111314047D01*
X186419952Y-111504523D01*
X186515190Y-111599761D01*
X186610428Y-111790238D01*
X183943761Y-107218809D02*
X185943761Y-108742619D01*
X185943761Y-108171190D02*
X185848523Y-108361666D01*
X185658047Y-108552142D01*
X185277095Y-108647380D01*
X184610428Y-108647380D01*
X184229476Y-108552142D01*
X184039000Y-108361666D01*
X183943761Y-108171190D01*
X183943761Y-107790238D01*
X184039000Y-107599761D01*
X184229476Y-107409285D01*
X184610428Y-107314047D01*
X185277095Y-107314047D01*
X185658047Y-107409285D01*
X185848523Y-107599761D01*
X185943761Y-107790238D01*
X185943761Y-108171190D01*
X184610428Y-106647380D02*
X185943761Y-106171190D01*
X184610428Y-105695000D02*
X185943761Y-106171190D01*
X186419952Y-106361666D01*
X186515190Y-106456904D01*
X186610428Y-106647380D01*
X184610428Y-105123571D02*
X185943761Y-104647380D01*
X184610428Y-104171190D01*
X185943761Y-103409285D02*
X184610428Y-103409285D01*
X183943761Y-103409285D02*
X184039000Y-103504523D01*
X184134238Y-103409285D01*
X184039000Y-103314047D01*
X183943761Y-103409285D01*
X184134238Y-103409285D01*
X184610428Y-102456904D02*
X185943761Y-102456904D01*
X184800904Y-102456904D02*
X184705666Y-102361666D01*
X184610428Y-102171190D01*
X184610428Y-101885476D01*
X184705666Y-101695000D01*
X184896142Y-101599761D01*
X185943761Y-101599761D01*
X185943761Y-99790238D02*
X183943761Y-99790238D01*
X185848523Y-99790238D02*
X185943761Y-99980714D01*
X185943761Y-100361666D01*
X185848523Y-100552142D01*
X185753285Y-100647380D01*
X185562809Y-100742619D01*
X184991380Y-100742619D01*
X184800904Y-100647380D01*
X184705666Y-100552142D01*
X184610428Y-100361666D01*
X184610428Y-99980714D01*
X184705666Y-99790238D01*
X185848523Y-97409285D02*
X185943761Y-97123571D01*
X185943761Y-96647380D01*
X185848523Y-96456904D01*
X185753285Y-96361666D01*
X185562809Y-96266428D01*
X185372333Y-96266428D01*
X185181857Y-96361666D01*
X185086619Y-96456904D01*
X184991380Y-96647380D01*
X184896142Y-97028333D01*
X184800904Y-97218809D01*
X184705666Y-97314047D01*
X184515190Y-97409285D01*
X184324714Y-97409285D01*
X184134238Y-97314047D01*
X184039000Y-97218809D01*
X183943761Y-97028333D01*
X183943761Y-96552142D01*
X184039000Y-96266428D01*
X185943761Y-95409285D02*
X183943761Y-95409285D01*
X185181857Y-95218809D02*
X185943761Y-94647380D01*
X184610428Y-94647380D02*
X185372333Y-95409285D01*
X185943761Y-92933095D02*
X184896142Y-92933095D01*
X184705666Y-93028333D01*
X184610428Y-93218809D01*
X184610428Y-93599761D01*
X184705666Y-93790238D01*
X185848523Y-92933095D02*
X185943761Y-93123571D01*
X185943761Y-93599761D01*
X185848523Y-93790238D01*
X185658047Y-93885476D01*
X185467571Y-93885476D01*
X185277095Y-93790238D01*
X185181857Y-93599761D01*
X185181857Y-93123571D01*
X185086619Y-92933095D01*
X185943761Y-91123571D02*
X184896142Y-91123571D01*
X184705666Y-91218809D01*
X184610428Y-91409285D01*
X184610428Y-91790238D01*
X184705666Y-91980714D01*
X185848523Y-91123571D02*
X185943761Y-91314047D01*
X185943761Y-91790238D01*
X185848523Y-91980714D01*
X185658047Y-92075952D01*
X185467571Y-92075952D01*
X185277095Y-91980714D01*
X185181857Y-91790238D01*
X185181857Y-91314047D01*
X185086619Y-91123571D01*
X185943761Y-89314047D02*
X183943761Y-89314047D01*
X185848523Y-89314047D02*
X185943761Y-89504523D01*
X185943761Y-89885476D01*
X185848523Y-90075952D01*
X185753285Y-90171190D01*
X185562809Y-90266428D01*
X184991380Y-90266428D01*
X184800904Y-90171190D01*
X184705666Y-90075952D01*
X184610428Y-89885476D01*
X184610428Y-89504523D01*
X184705666Y-89314047D01*
X185848523Y-87599761D02*
X185943761Y-87790238D01*
X185943761Y-88171190D01*
X185848523Y-88361666D01*
X185658047Y-88456904D01*
X184896142Y-88456904D01*
X184705666Y-88361666D01*
X184610428Y-88171190D01*
X184610428Y-87790238D01*
X184705666Y-87599761D01*
X184896142Y-87504523D01*
X185086619Y-87504523D01*
X185277095Y-88456904D01*
X184610428Y-86647380D02*
X185943761Y-86647380D01*
X184800904Y-86647380D02*
X184705666Y-86552142D01*
X184610428Y-86361666D01*
X184610428Y-86075952D01*
X184705666Y-85885476D01*
X184896142Y-85790238D01*
X185943761Y-85790238D01*
X179903380Y-83780142D02*
X179427190Y-84113476D01*
X179903380Y-84351571D02*
X178903380Y-84351571D01*
X178903380Y-83970619D01*
X178951000Y-83875380D01*
X178998619Y-83827761D01*
X179093857Y-83780142D01*
X179236714Y-83780142D01*
X179331952Y-83827761D01*
X179379571Y-83875380D01*
X179427190Y-83970619D01*
X179427190Y-84351571D01*
X179855761Y-82970619D02*
X179903380Y-83065857D01*
X179903380Y-83256333D01*
X179855761Y-83351571D01*
X179760523Y-83399190D01*
X179379571Y-83399190D01*
X179284333Y-83351571D01*
X179236714Y-83256333D01*
X179236714Y-83065857D01*
X179284333Y-82970619D01*
X179379571Y-82923000D01*
X179474809Y-82923000D01*
X179570047Y-83399190D01*
X179236714Y-82589666D02*
X179903380Y-82351571D01*
X179236714Y-82113476D01*
X178998619Y-81018238D02*
X178951000Y-80970619D01*
X178903380Y-80875380D01*
X178903380Y-80637285D01*
X178951000Y-80542047D01*
X178998619Y-80494428D01*
X179093857Y-80446809D01*
X179189095Y-80446809D01*
X179331952Y-80494428D01*
X179903380Y-81065857D01*
X179903380Y-80446809D01*
D12*
X175360142Y-111967428D02*
X175360142Y-113396000D01*
X172360142Y-113396000D01*
X175360142Y-110967428D02*
X172360142Y-110967428D01*
X175360142Y-109253142D02*
X173645857Y-110538857D01*
X172360142Y-109253142D02*
X174074428Y-110967428D01*
X174217285Y-107967428D02*
X174217285Y-105681714D01*
X172360142Y-104538857D02*
X172360142Y-102681714D01*
X173503000Y-103681714D01*
X173503000Y-103253142D01*
X173645857Y-102967428D01*
X173788714Y-102824571D01*
X174074428Y-102681714D01*
X174788714Y-102681714D01*
X175074428Y-102824571D01*
X175217285Y-102967428D01*
X175360142Y-103253142D01*
X175360142Y-104110285D01*
X175217285Y-104396000D01*
X175074428Y-104538857D01*
X172360142Y-101681714D02*
X172360142Y-99681714D01*
X175360142Y-100967428D01*
X175074428Y-94538857D02*
X175217285Y-94681714D01*
X175360142Y-95110285D01*
X175360142Y-95396000D01*
X175217285Y-95824571D01*
X174931571Y-96110285D01*
X174645857Y-96253142D01*
X174074428Y-96396000D01*
X173645857Y-96396000D01*
X173074428Y-96253142D01*
X172788714Y-96110285D01*
X172503000Y-95824571D01*
X172360142Y-95396000D01*
X172360142Y-95110285D01*
X172503000Y-94681714D01*
X172645857Y-94538857D01*
X175360142Y-91967428D02*
X173788714Y-91967428D01*
X173503000Y-92110285D01*
X173360142Y-92396000D01*
X173360142Y-92967428D01*
X173503000Y-93253142D01*
X175217285Y-91967428D02*
X175360142Y-92253142D01*
X175360142Y-92967428D01*
X175217285Y-93253142D01*
X174931571Y-93396000D01*
X174645857Y-93396000D01*
X174360142Y-93253142D01*
X174217285Y-92967428D01*
X174217285Y-92253142D01*
X174074428Y-91967428D01*
X175360142Y-90538857D02*
X172360142Y-90538857D01*
X173503000Y-90538857D02*
X173360142Y-90253142D01*
X173360142Y-89681714D01*
X173503000Y-89396000D01*
X173645857Y-89253142D01*
X173931571Y-89110285D01*
X174788714Y-89110285D01*
X175074428Y-89253142D01*
X175217285Y-89396000D01*
X175360142Y-89681714D01*
X175360142Y-90253142D01*
X175217285Y-90538857D01*
X175360142Y-87396000D02*
X175217285Y-87681714D01*
X174931571Y-87824571D01*
X172360142Y-87824571D01*
X175217285Y-85110285D02*
X175360142Y-85396000D01*
X175360142Y-85967428D01*
X175217285Y-86253142D01*
X174931571Y-86396000D01*
X173788714Y-86396000D01*
X173503000Y-86253142D01*
X173360142Y-85967428D01*
X173360142Y-85396000D01*
X173503000Y-85110285D01*
X173788714Y-84967428D01*
X174074428Y-84967428D01*
X174360142Y-86396000D01*
X177160142Y-113681714D02*
X177160142Y-111967428D01*
X180160142Y-112824571D02*
X177160142Y-112824571D01*
X180017285Y-109824571D02*
X180160142Y-110110285D01*
X180160142Y-110681714D01*
X180017285Y-110967428D01*
X179731571Y-111110285D01*
X178588714Y-111110285D01*
X178303000Y-110967428D01*
X178160142Y-110681714D01*
X178160142Y-110110285D01*
X178303000Y-109824571D01*
X178588714Y-109681714D01*
X178874428Y-109681714D01*
X179160142Y-111110285D01*
X180017285Y-108538857D02*
X180160142Y-108253142D01*
X180160142Y-107681714D01*
X180017285Y-107396000D01*
X179731571Y-107253142D01*
X179588714Y-107253142D01*
X179303000Y-107396000D01*
X179160142Y-107681714D01*
X179160142Y-108110285D01*
X179017285Y-108396000D01*
X178731571Y-108538857D01*
X178588714Y-108538857D01*
X178303000Y-108396000D01*
X178160142Y-108110285D01*
X178160142Y-107681714D01*
X178303000Y-107396000D01*
X178160142Y-106396000D02*
X178160142Y-105253142D01*
X177160142Y-105967428D02*
X179731571Y-105967428D01*
X180017285Y-105824571D01*
X180160142Y-105538857D01*
X180160142Y-105253142D01*
X180017285Y-103110285D02*
X180160142Y-103396000D01*
X180160142Y-103967428D01*
X180017285Y-104253142D01*
X179731571Y-104396000D01*
X178588714Y-104396000D01*
X178303000Y-104253142D01*
X178160142Y-103967428D01*
X178160142Y-103396000D01*
X178303000Y-103110285D01*
X178588714Y-102967428D01*
X178874428Y-102967428D01*
X179160142Y-104396000D01*
X180160142Y-101681714D02*
X178160142Y-101681714D01*
X178731571Y-101681714D02*
X178445857Y-101538857D01*
X178303000Y-101396000D01*
X178160142Y-101110285D01*
X178160142Y-100824571D01*
X180017285Y-97681714D02*
X180160142Y-97253142D01*
X180160142Y-96538857D01*
X180017285Y-96253142D01*
X179874428Y-96110285D01*
X179588714Y-95967428D01*
X179303000Y-95967428D01*
X179017285Y-96110285D01*
X178874428Y-96253142D01*
X178731571Y-96538857D01*
X178588714Y-97110285D01*
X178445857Y-97396000D01*
X178303000Y-97538857D01*
X178017285Y-97681714D01*
X177731571Y-97681714D01*
X177445857Y-97538857D01*
X177303000Y-97396000D01*
X177160142Y-97110285D01*
X177160142Y-96396000D01*
X177303000Y-95967428D01*
X180160142Y-94681714D02*
X177160142Y-94681714D01*
X180160142Y-93396000D02*
X178588714Y-93396000D01*
X178303000Y-93538857D01*
X178160142Y-93824571D01*
X178160142Y-94253142D01*
X178303000Y-94538857D01*
X178445857Y-94681714D01*
X180160142Y-91967428D02*
X178160142Y-91967428D01*
X177160142Y-91967428D02*
X177303000Y-92110285D01*
X177445857Y-91967428D01*
X177303000Y-91824571D01*
X177160142Y-91967428D01*
X177445857Y-91967428D01*
X180017285Y-89396000D02*
X180160142Y-89681714D01*
X180160142Y-90253142D01*
X180017285Y-90538857D01*
X179731571Y-90681714D01*
X178588714Y-90681714D01*
X178303000Y-90538857D01*
X178160142Y-90253142D01*
X178160142Y-89681714D01*
X178303000Y-89396000D01*
X178588714Y-89253142D01*
X178874428Y-89253142D01*
X179160142Y-90681714D01*
X180160142Y-87538857D02*
X180017285Y-87824571D01*
X179731571Y-87967428D01*
X177160142Y-87967428D01*
X180160142Y-85110285D02*
X177160142Y-85110285D01*
X180017285Y-85110285D02*
X180160142Y-85396000D01*
X180160142Y-85967428D01*
X180017285Y-86253142D01*
X179874428Y-86396000D01*
X179588714Y-86538857D01*
X178731571Y-86538857D01*
X178445857Y-86396000D01*
X178303000Y-86253142D01*
X178160142Y-85967428D01*
X178160142Y-85396000D01*
X178303000Y-85110285D01*
D13*
G36*
X125387100Y-126936500D02*
G01*
X125077981Y-126936499D01*
X124976148Y-126936763D01*
X124895654Y-126937717D01*
X124832443Y-126939609D01*
X124782459Y-126942682D01*
X124741645Y-126947183D01*
X124705945Y-126953358D01*
X124672933Y-126961034D01*
X124532023Y-127009773D01*
X124403417Y-127080190D01*
X124288335Y-127171106D01*
X124188001Y-127281344D01*
X124103637Y-127409725D01*
X124036466Y-127555071D01*
X124025615Y-127584888D01*
X123983750Y-127704850D01*
X123980213Y-129148304D01*
X123976677Y-130591759D01*
X124081813Y-130600397D01*
X124155977Y-130603431D01*
X124241732Y-130602051D01*
X124332378Y-130596835D01*
X124421213Y-130588360D01*
X124501535Y-130577201D01*
X124566644Y-130563937D01*
X124592075Y-130556464D01*
X124722637Y-130498598D01*
X124842858Y-130419832D01*
X124949766Y-130323200D01*
X125040387Y-130211738D01*
X125111745Y-130088479D01*
X125152625Y-129984500D01*
X125158186Y-129963774D01*
X125162916Y-129938217D01*
X125166944Y-129905345D01*
X125170399Y-129862676D01*
X125173410Y-129807723D01*
X125176107Y-129738004D01*
X125178619Y-129651035D01*
X125181074Y-129544332D01*
X125183603Y-129415412D01*
X125184344Y-129374900D01*
X125189440Y-129158744D01*
X125196916Y-128964856D01*
X125207420Y-128790164D01*
X125221602Y-128631593D01*
X125240109Y-128486071D01*
X125263591Y-128350524D01*
X125292696Y-128221881D01*
X125328073Y-128097066D01*
X125370371Y-127973009D01*
X125420239Y-127846635D01*
X125478325Y-127714872D01*
X125545278Y-127574646D01*
X125578454Y-127508000D01*
X125731804Y-127225983D01*
X125897075Y-126966126D01*
X126074640Y-126727962D01*
X126264873Y-126511028D01*
X126468145Y-126314859D01*
X126668081Y-126151505D01*
X126889539Y-125999132D01*
X127119039Y-125869579D01*
X127358562Y-125761998D01*
X127610090Y-125675542D01*
X127875604Y-125609365D01*
X127984250Y-125588717D01*
X128048027Y-125580180D01*
X128137192Y-125572380D01*
X128251744Y-125565318D01*
X128391684Y-125558994D01*
X128557012Y-125553407D01*
X128747728Y-125548558D01*
X128963832Y-125544447D01*
X129205325Y-125541074D01*
X129472207Y-125538438D01*
X129764478Y-125536540D01*
X129765430Y-125536535D01*
X130441710Y-125533150D01*
X130441705Y-126436927D01*
X130441700Y-127340705D01*
X129924175Y-127346495D01*
X129792789Y-127348066D01*
X129683874Y-127349667D01*
X129594501Y-127351446D01*
X129521741Y-127353551D01*
X129462665Y-127356130D01*
X129414344Y-127359332D01*
X129373849Y-127363306D01*
X129338252Y-127368200D01*
X129304623Y-127374161D01*
X129280371Y-127379116D01*
X129063424Y-127436940D01*
X128861642Y-127515061D01*
X128674698Y-127613651D01*
X128502264Y-127732877D01*
X128362947Y-127854341D01*
X128219416Y-128007995D01*
X128099417Y-128169398D01*
X128001698Y-128340742D01*
X127925008Y-128524224D01*
X127868368Y-128720850D01*
X127863458Y-128746116D01*
X127859190Y-128777894D01*
X127855474Y-128818400D01*
X127852218Y-128869849D01*
X127849331Y-128934460D01*
X127846724Y-129014447D01*
X127844304Y-129112027D01*
X127841981Y-129229417D01*
X127839664Y-129368834D01*
X127838426Y-129451100D01*
X127836224Y-129597236D01*
X127834174Y-129720471D01*
X127832156Y-129823301D01*
X127830050Y-129908221D01*
X127827736Y-129977729D01*
X127825094Y-130034321D01*
X127822005Y-130080493D01*
X127818349Y-130118742D01*
X127814006Y-130151565D01*
X127808857Y-130181457D01*
X127802781Y-130210916D01*
X127801743Y-130215627D01*
X127741710Y-130430000D01*
X127659431Y-130632248D01*
X127555125Y-130822097D01*
X127429015Y-130999270D01*
X127281319Y-131163491D01*
X127112260Y-131314487D01*
X126922057Y-131451980D01*
X126714539Y-131573791D01*
X126663878Y-131602064D01*
X126630776Y-131623763D01*
X126617417Y-131637350D01*
X126619289Y-131640813D01*
X126795117Y-131708004D01*
X126949503Y-131776037D01*
X127086384Y-131846792D01*
X127209695Y-131922150D01*
X127214034Y-131925041D01*
X127370159Y-132044339D01*
X127508001Y-132180865D01*
X127626776Y-132333442D01*
X127725703Y-132500887D01*
X127803997Y-132682023D01*
X127860877Y-132875668D01*
X127868799Y-132911850D01*
X127878286Y-132961630D01*
X127886465Y-133014572D01*
X127893448Y-133072979D01*
X127899346Y-133139153D01*
X127904272Y-133215398D01*
X127908339Y-133304016D01*
X127911659Y-133407310D01*
X127914343Y-133527583D01*
X127916504Y-133667137D01*
X127918254Y-133828276D01*
X127919233Y-133946900D01*
X127920411Y-134097239D01*
X127921577Y-134224526D01*
X127922822Y-134331107D01*
X127924239Y-134419328D01*
X127925918Y-134491537D01*
X127927951Y-134550081D01*
X127930430Y-134597306D01*
X127933445Y-134635559D01*
X127937090Y-134667187D01*
X127941454Y-134694537D01*
X127946630Y-134719955D01*
X127949936Y-134734300D01*
X128010551Y-134937744D01*
X128091975Y-135127156D01*
X128193259Y-135301608D01*
X128313455Y-135460175D01*
X128451616Y-135601932D01*
X128606792Y-135725953D01*
X128778037Y-135831313D01*
X128964402Y-135917085D01*
X129164940Y-135982346D01*
X129248925Y-136002502D01*
X129329243Y-136017674D01*
X129418306Y-136029995D01*
X129518923Y-136039643D01*
X129633905Y-136046798D01*
X129766063Y-136051639D01*
X129918206Y-136054344D01*
X130075328Y-136055100D01*
X130454569Y-136055100D01*
X130451309Y-136959975D01*
X130448050Y-137864850D01*
X129495550Y-137866202D01*
X129337686Y-137866291D01*
X129183835Y-137866117D01*
X129036403Y-137865699D01*
X128897801Y-137865056D01*
X128770436Y-137864206D01*
X128656717Y-137863168D01*
X128559052Y-137861960D01*
X128479850Y-137860601D01*
X128421519Y-137859108D01*
X128389358Y-137857700D01*
X128115723Y-137827586D01*
X127847509Y-137772973D01*
X127585564Y-137694348D01*
X127330734Y-137592196D01*
X127083868Y-137467003D01*
X126845813Y-137319257D01*
X126617418Y-137149442D01*
X126399530Y-136958046D01*
X126192997Y-136745554D01*
X125998667Y-136512452D01*
X125963945Y-136466873D01*
X125783360Y-136206530D01*
X125624586Y-135935823D01*
X125488339Y-135656346D01*
X125375335Y-135369695D01*
X125286291Y-135077464D01*
X125232199Y-134837646D01*
X125226779Y-134807457D01*
X125222105Y-134776531D01*
X125218091Y-134742626D01*
X125214649Y-134703498D01*
X125211693Y-134656905D01*
X125209136Y-134600603D01*
X125206893Y-134532349D01*
X125204876Y-134449900D01*
X125202999Y-134351013D01*
X125201176Y-134233444D01*
X125199319Y-134094951D01*
X125197354Y-133934200D01*
X125195431Y-133774763D01*
X125193677Y-133638578D01*
X125192002Y-133523497D01*
X125190314Y-133427372D01*
X125188522Y-133348056D01*
X125186534Y-133283401D01*
X125184261Y-133231260D01*
X125181609Y-133189486D01*
X125178489Y-133155930D01*
X125174809Y-133128446D01*
X125170477Y-133104886D01*
X125165403Y-133083103D01*
X125160402Y-133064250D01*
X125106996Y-132913676D01*
X125033870Y-132778955D01*
X124941533Y-132660572D01*
X124830491Y-132559016D01*
X124701252Y-132474773D01*
X124554323Y-132408332D01*
X124440570Y-132372504D01*
X124395673Y-132361774D01*
X124338002Y-132349624D01*
X124274052Y-132337229D01*
X124210319Y-132325768D01*
X124153298Y-132316420D01*
X124109486Y-132310361D01*
X124088525Y-132308674D01*
X124087006Y-132321064D01*
X124085624Y-132357070D01*
X124084375Y-132414908D01*
X124083259Y-132492795D01*
X124082273Y-132588946D01*
X124081416Y-132701577D01*
X124080686Y-132828906D01*
X124080082Y-132969148D01*
X124079602Y-133120519D01*
X124079244Y-133281236D01*
X124079007Y-133449515D01*
X124078889Y-133623572D01*
X124078888Y-133801624D01*
X124079002Y-133981886D01*
X124079231Y-134162575D01*
X124079572Y-134341907D01*
X124080023Y-134518099D01*
X124080584Y-134689366D01*
X124081252Y-134853925D01*
X124082025Y-135009991D01*
X124082903Y-135155782D01*
X124083883Y-135289514D01*
X124084963Y-135409402D01*
X124086143Y-135513663D01*
X124087420Y-135600514D01*
X124088793Y-135668169D01*
X124090260Y-135714847D01*
X124091715Y-135737933D01*
X124115412Y-135875399D01*
X124152134Y-135992034D01*
X124202928Y-136089402D01*
X124268842Y-136169070D01*
X124350922Y-136232605D01*
X124450217Y-136281572D01*
X124456982Y-136284171D01*
X124509142Y-136302192D01*
X124562426Y-136316529D01*
X124620507Y-136327566D01*
X124687059Y-136335689D01*
X124765757Y-136341283D01*
X124860272Y-136344733D01*
X124974280Y-136346425D01*
X125053725Y-136346756D01*
X125387100Y-136347200D01*
X125387100Y-137858500D01*
X119443500Y-137858500D01*
X119443500Y-136359900D01*
X119694325Y-136359795D01*
X119781076Y-136359074D01*
X119867890Y-136357134D01*
X119948229Y-136354209D01*
X120015558Y-136350531D01*
X120059450Y-136346790D01*
X120217590Y-136320379D01*
X120355865Y-136278683D01*
X120475208Y-136220997D01*
X120576556Y-136146613D01*
X120660841Y-136054825D01*
X120729000Y-135944925D01*
X120781967Y-135816208D01*
X120788583Y-135795481D01*
X120797964Y-135764857D01*
X120806388Y-135736038D01*
X120813908Y-135707562D01*
X120820573Y-135677965D01*
X120826437Y-135645785D01*
X120831550Y-135609559D01*
X120835964Y-135567824D01*
X120839730Y-135519116D01*
X120842901Y-135461973D01*
X120845526Y-135394932D01*
X120847659Y-135316530D01*
X120849349Y-135225304D01*
X120850650Y-135119791D01*
X120851612Y-134998528D01*
X120852286Y-134860052D01*
X120852725Y-134702900D01*
X120852980Y-134525610D01*
X120853101Y-134326718D01*
X120853142Y-134104761D01*
X120853148Y-133960832D01*
X120853200Y-132444414D01*
X120710325Y-132452218D01*
X120514801Y-132472889D01*
X120334825Y-132512335D01*
X120171035Y-132569990D01*
X120024071Y-132645285D01*
X119894572Y-132737653D01*
X119783177Y-132846527D01*
X119690525Y-132971337D01*
X119617256Y-133111518D01*
X119564009Y-133266501D01*
X119531424Y-133435718D01*
X119524459Y-133505369D01*
X119516055Y-133616700D01*
X118325900Y-133616700D01*
X118325900Y-129374667D01*
X118970014Y-129377958D01*
X119614129Y-129381250D01*
X119630927Y-129533650D01*
X119652188Y-129693022D01*
X119678806Y-129830355D01*
X119711702Y-129948618D01*
X119751798Y-130050781D01*
X119800015Y-130139814D01*
X119834617Y-130190020D01*
X119921918Y-130286372D01*
X120028822Y-130368945D01*
X120155833Y-130437973D01*
X120303453Y-130493694D01*
X120472184Y-130536342D01*
X120628425Y-130561955D01*
X120691140Y-130569688D01*
X120747945Y-130575964D01*
X120792196Y-130580091D01*
X120815750Y-130581400D01*
X120853200Y-130581400D01*
X120853200Y-127304800D01*
X120145175Y-127304807D01*
X119935627Y-127305154D01*
X119748925Y-127306247D01*
X119582520Y-127308171D01*
X119433866Y-127311011D01*
X119300417Y-127314853D01*
X119179625Y-127319781D01*
X119068944Y-127325880D01*
X118965828Y-127333236D01*
X118867728Y-127341934D01*
X118789450Y-127350104D01*
X118524571Y-127386773D01*
X118281077Y-127435892D01*
X118057828Y-127498173D01*
X117853685Y-127574330D01*
X117667508Y-127665073D01*
X117498156Y-127771116D01*
X117344490Y-127893170D01*
X117205370Y-128031947D01*
X117079657Y-128188160D01*
X116966210Y-128362521D01*
X116865634Y-128552105D01*
X116781664Y-128746340D01*
X116705808Y-128961706D01*
X116638938Y-129194990D01*
X116581927Y-129442975D01*
X116535647Y-129702448D01*
X116516422Y-129838450D01*
X116508083Y-129902162D01*
X116500247Y-129960414D01*
X116493838Y-130006438D01*
X116490002Y-130032125D01*
X116483249Y-130073400D01*
X115189000Y-130073400D01*
X115189000Y-125526800D01*
X125387100Y-125526800D01*
X125387100Y-126936500D01*
G37*
X125387100Y-126936500D02*
X125077981Y-126936499D01*
X124976148Y-126936763D01*
X124895654Y-126937717D01*
X124832443Y-126939609D01*
X124782459Y-126942682D01*
X124741645Y-126947183D01*
X124705945Y-126953358D01*
X124672933Y-126961034D01*
X124532023Y-127009773D01*
X124403417Y-127080190D01*
X124288335Y-127171106D01*
X124188001Y-127281344D01*
X124103637Y-127409725D01*
X124036466Y-127555071D01*
X124025615Y-127584888D01*
X123983750Y-127704850D01*
X123980213Y-129148304D01*
X123976677Y-130591759D01*
X124081813Y-130600397D01*
X124155977Y-130603431D01*
X124241732Y-130602051D01*
X124332378Y-130596835D01*
X124421213Y-130588360D01*
X124501535Y-130577201D01*
X124566644Y-130563937D01*
X124592075Y-130556464D01*
X124722637Y-130498598D01*
X124842858Y-130419832D01*
X124949766Y-130323200D01*
X125040387Y-130211738D01*
X125111745Y-130088479D01*
X125152625Y-129984500D01*
X125158186Y-129963774D01*
X125162916Y-129938217D01*
X125166944Y-129905345D01*
X125170399Y-129862676D01*
X125173410Y-129807723D01*
X125176107Y-129738004D01*
X125178619Y-129651035D01*
X125181074Y-129544332D01*
X125183603Y-129415412D01*
X125184344Y-129374900D01*
X125189440Y-129158744D01*
X125196916Y-128964856D01*
X125207420Y-128790164D01*
X125221602Y-128631593D01*
X125240109Y-128486071D01*
X125263591Y-128350524D01*
X125292696Y-128221881D01*
X125328073Y-128097066D01*
X125370371Y-127973009D01*
X125420239Y-127846635D01*
X125478325Y-127714872D01*
X125545278Y-127574646D01*
X125578454Y-127508000D01*
X125731804Y-127225983D01*
X125897075Y-126966126D01*
X126074640Y-126727962D01*
X126264873Y-126511028D01*
X126468145Y-126314859D01*
X126668081Y-126151505D01*
X126889539Y-125999132D01*
X127119039Y-125869579D01*
X127358562Y-125761998D01*
X127610090Y-125675542D01*
X127875604Y-125609365D01*
X127984250Y-125588717D01*
X128048027Y-125580180D01*
X128137192Y-125572380D01*
X128251744Y-125565318D01*
X128391684Y-125558994D01*
X128557012Y-125553407D01*
X128747728Y-125548558D01*
X128963832Y-125544447D01*
X129205325Y-125541074D01*
X129472207Y-125538438D01*
X129764478Y-125536540D01*
X129765430Y-125536535D01*
X130441710Y-125533150D01*
X130441705Y-126436927D01*
X130441700Y-127340705D01*
X129924175Y-127346495D01*
X129792789Y-127348066D01*
X129683874Y-127349667D01*
X129594501Y-127351446D01*
X129521741Y-127353551D01*
X129462665Y-127356130D01*
X129414344Y-127359332D01*
X129373849Y-127363306D01*
X129338252Y-127368200D01*
X129304623Y-127374161D01*
X129280371Y-127379116D01*
X129063424Y-127436940D01*
X128861642Y-127515061D01*
X128674698Y-127613651D01*
X128502264Y-127732877D01*
X128362947Y-127854341D01*
X128219416Y-128007995D01*
X128099417Y-128169398D01*
X128001698Y-128340742D01*
X127925008Y-128524224D01*
X127868368Y-128720850D01*
X127863458Y-128746116D01*
X127859190Y-128777894D01*
X127855474Y-128818400D01*
X127852218Y-128869849D01*
X127849331Y-128934460D01*
X127846724Y-129014447D01*
X127844304Y-129112027D01*
X127841981Y-129229417D01*
X127839664Y-129368834D01*
X127838426Y-129451100D01*
X127836224Y-129597236D01*
X127834174Y-129720471D01*
X127832156Y-129823301D01*
X127830050Y-129908221D01*
X127827736Y-129977729D01*
X127825094Y-130034321D01*
X127822005Y-130080493D01*
X127818349Y-130118742D01*
X127814006Y-130151565D01*
X127808857Y-130181457D01*
X127802781Y-130210916D01*
X127801743Y-130215627D01*
X127741710Y-130430000D01*
X127659431Y-130632248D01*
X127555125Y-130822097D01*
X127429015Y-130999270D01*
X127281319Y-131163491D01*
X127112260Y-131314487D01*
X126922057Y-131451980D01*
X126714539Y-131573791D01*
X126663878Y-131602064D01*
X126630776Y-131623763D01*
X126617417Y-131637350D01*
X126619289Y-131640813D01*
X126795117Y-131708004D01*
X126949503Y-131776037D01*
X127086384Y-131846792D01*
X127209695Y-131922150D01*
X127214034Y-131925041D01*
X127370159Y-132044339D01*
X127508001Y-132180865D01*
X127626776Y-132333442D01*
X127725703Y-132500887D01*
X127803997Y-132682023D01*
X127860877Y-132875668D01*
X127868799Y-132911850D01*
X127878286Y-132961630D01*
X127886465Y-133014572D01*
X127893448Y-133072979D01*
X127899346Y-133139153D01*
X127904272Y-133215398D01*
X127908339Y-133304016D01*
X127911659Y-133407310D01*
X127914343Y-133527583D01*
X127916504Y-133667137D01*
X127918254Y-133828276D01*
X127919233Y-133946900D01*
X127920411Y-134097239D01*
X127921577Y-134224526D01*
X127922822Y-134331107D01*
X127924239Y-134419328D01*
X127925918Y-134491537D01*
X127927951Y-134550081D01*
X127930430Y-134597306D01*
X127933445Y-134635559D01*
X127937090Y-134667187D01*
X127941454Y-134694537D01*
X127946630Y-134719955D01*
X127949936Y-134734300D01*
X128010551Y-134937744D01*
X128091975Y-135127156D01*
X128193259Y-135301608D01*
X128313455Y-135460175D01*
X128451616Y-135601932D01*
X128606792Y-135725953D01*
X128778037Y-135831313D01*
X128964402Y-135917085D01*
X129164940Y-135982346D01*
X129248925Y-136002502D01*
X129329243Y-136017674D01*
X129418306Y-136029995D01*
X129518923Y-136039643D01*
X129633905Y-136046798D01*
X129766063Y-136051639D01*
X129918206Y-136054344D01*
X130075328Y-136055100D01*
X130454569Y-136055100D01*
X130451309Y-136959975D01*
X130448050Y-137864850D01*
X129495550Y-137866202D01*
X129337686Y-137866291D01*
X129183835Y-137866117D01*
X129036403Y-137865699D01*
X128897801Y-137865056D01*
X128770436Y-137864206D01*
X128656717Y-137863168D01*
X128559052Y-137861960D01*
X128479850Y-137860601D01*
X128421519Y-137859108D01*
X128389358Y-137857700D01*
X128115723Y-137827586D01*
X127847509Y-137772973D01*
X127585564Y-137694348D01*
X127330734Y-137592196D01*
X127083868Y-137467003D01*
X126845813Y-137319257D01*
X126617418Y-137149442D01*
X126399530Y-136958046D01*
X126192997Y-136745554D01*
X125998667Y-136512452D01*
X125963945Y-136466873D01*
X125783360Y-136206530D01*
X125624586Y-135935823D01*
X125488339Y-135656346D01*
X125375335Y-135369695D01*
X125286291Y-135077464D01*
X125232199Y-134837646D01*
X125226779Y-134807457D01*
X125222105Y-134776531D01*
X125218091Y-134742626D01*
X125214649Y-134703498D01*
X125211693Y-134656905D01*
X125209136Y-134600603D01*
X125206893Y-134532349D01*
X125204876Y-134449900D01*
X125202999Y-134351013D01*
X125201176Y-134233444D01*
X125199319Y-134094951D01*
X125197354Y-133934200D01*
X125195431Y-133774763D01*
X125193677Y-133638578D01*
X125192002Y-133523497D01*
X125190314Y-133427372D01*
X125188522Y-133348056D01*
X125186534Y-133283401D01*
X125184261Y-133231260D01*
X125181609Y-133189486D01*
X125178489Y-133155930D01*
X125174809Y-133128446D01*
X125170477Y-133104886D01*
X125165403Y-133083103D01*
X125160402Y-133064250D01*
X125106996Y-132913676D01*
X125033870Y-132778955D01*
X124941533Y-132660572D01*
X124830491Y-132559016D01*
X124701252Y-132474773D01*
X124554323Y-132408332D01*
X124440570Y-132372504D01*
X124395673Y-132361774D01*
X124338002Y-132349624D01*
X124274052Y-132337229D01*
X124210319Y-132325768D01*
X124153298Y-132316420D01*
X124109486Y-132310361D01*
X124088525Y-132308674D01*
X124087006Y-132321064D01*
X124085624Y-132357070D01*
X124084375Y-132414908D01*
X124083259Y-132492795D01*
X124082273Y-132588946D01*
X124081416Y-132701577D01*
X124080686Y-132828906D01*
X124080082Y-132969148D01*
X124079602Y-133120519D01*
X124079244Y-133281236D01*
X124079007Y-133449515D01*
X124078889Y-133623572D01*
X124078888Y-133801624D01*
X124079002Y-133981886D01*
X124079231Y-134162575D01*
X124079572Y-134341907D01*
X124080023Y-134518099D01*
X124080584Y-134689366D01*
X124081252Y-134853925D01*
X124082025Y-135009991D01*
X124082903Y-135155782D01*
X124083883Y-135289514D01*
X124084963Y-135409402D01*
X124086143Y-135513663D01*
X124087420Y-135600514D01*
X124088793Y-135668169D01*
X124090260Y-135714847D01*
X124091715Y-135737933D01*
X124115412Y-135875399D01*
X124152134Y-135992034D01*
X124202928Y-136089402D01*
X124268842Y-136169070D01*
X124350922Y-136232605D01*
X124450217Y-136281572D01*
X124456982Y-136284171D01*
X124509142Y-136302192D01*
X124562426Y-136316529D01*
X124620507Y-136327566D01*
X124687059Y-136335689D01*
X124765757Y-136341283D01*
X124860272Y-136344733D01*
X124974280Y-136346425D01*
X125053725Y-136346756D01*
X125387100Y-136347200D01*
X125387100Y-137858500D01*
X119443500Y-137858500D01*
X119443500Y-136359900D01*
X119694325Y-136359795D01*
X119781076Y-136359074D01*
X119867890Y-136357134D01*
X119948229Y-136354209D01*
X120015558Y-136350531D01*
X120059450Y-136346790D01*
X120217590Y-136320379D01*
X120355865Y-136278683D01*
X120475208Y-136220997D01*
X120576556Y-136146613D01*
X120660841Y-136054825D01*
X120729000Y-135944925D01*
X120781967Y-135816208D01*
X120788583Y-135795481D01*
X120797964Y-135764857D01*
X120806388Y-135736038D01*
X120813908Y-135707562D01*
X120820573Y-135677965D01*
X120826437Y-135645785D01*
X120831550Y-135609559D01*
X120835964Y-135567824D01*
X120839730Y-135519116D01*
X120842901Y-135461973D01*
X120845526Y-135394932D01*
X120847659Y-135316530D01*
X120849349Y-135225304D01*
X120850650Y-135119791D01*
X120851612Y-134998528D01*
X120852286Y-134860052D01*
X120852725Y-134702900D01*
X120852980Y-134525610D01*
X120853101Y-134326718D01*
X120853142Y-134104761D01*
X120853148Y-133960832D01*
X120853200Y-132444414D01*
X120710325Y-132452218D01*
X120514801Y-132472889D01*
X120334825Y-132512335D01*
X120171035Y-132569990D01*
X120024071Y-132645285D01*
X119894572Y-132737653D01*
X119783177Y-132846527D01*
X119690525Y-132971337D01*
X119617256Y-133111518D01*
X119564009Y-133266501D01*
X119531424Y-133435718D01*
X119524459Y-133505369D01*
X119516055Y-133616700D01*
X118325900Y-133616700D01*
X118325900Y-129374667D01*
X118970014Y-129377958D01*
X119614129Y-129381250D01*
X119630927Y-129533650D01*
X119652188Y-129693022D01*
X119678806Y-129830355D01*
X119711702Y-129948618D01*
X119751798Y-130050781D01*
X119800015Y-130139814D01*
X119834617Y-130190020D01*
X119921918Y-130286372D01*
X120028822Y-130368945D01*
X120155833Y-130437973D01*
X120303453Y-130493694D01*
X120472184Y-130536342D01*
X120628425Y-130561955D01*
X120691140Y-130569688D01*
X120747945Y-130575964D01*
X120792196Y-130580091D01*
X120815750Y-130581400D01*
X120853200Y-130581400D01*
X120853200Y-127304800D01*
X120145175Y-127304807D01*
X119935627Y-127305154D01*
X119748925Y-127306247D01*
X119582520Y-127308171D01*
X119433866Y-127311011D01*
X119300417Y-127314853D01*
X119179625Y-127319781D01*
X119068944Y-127325880D01*
X118965828Y-127333236D01*
X118867728Y-127341934D01*
X118789450Y-127350104D01*
X118524571Y-127386773D01*
X118281077Y-127435892D01*
X118057828Y-127498173D01*
X117853685Y-127574330D01*
X117667508Y-127665073D01*
X117498156Y-127771116D01*
X117344490Y-127893170D01*
X117205370Y-128031947D01*
X117079657Y-128188160D01*
X116966210Y-128362521D01*
X116865634Y-128552105D01*
X116781664Y-128746340D01*
X116705808Y-128961706D01*
X116638938Y-129194990D01*
X116581927Y-129442975D01*
X116535647Y-129702448D01*
X116516422Y-129838450D01*
X116508083Y-129902162D01*
X116500247Y-129960414D01*
X116493838Y-130006438D01*
X116490002Y-130032125D01*
X116483249Y-130073400D01*
X115189000Y-130073400D01*
X115189000Y-125526800D01*
X125387100Y-125526800D01*
X125387100Y-126936500D01*
D11*
X202184000Y-139700000D02*
G75*
G03X202184000Y-139700000I-2286000J0D01*
G01*
X115062000Y-139700000D02*
G75*
G03X115062000Y-139700000I-2286000J0D01*
G01*
D14*
X116241000Y-98739000D02*
X117491000Y-98739000D01*
X116241000Y-78299000D02*
X116241000Y-98739000D01*
X120741000Y-78299000D02*
X116241000Y-78299000D01*
X120741000Y-98739000D02*
X120741000Y-78299000D01*
X119491000Y-98739000D02*
X120741000Y-98739000D01*
X117491000Y-98739000D02*
G75*
G02X119491000Y-98739000I1000000J0D01*
G01*
X159421000Y-98739000D02*
X160671000Y-98739000D01*
X159421000Y-78299000D02*
X159421000Y-98739000D01*
X163921000Y-78299000D02*
X159421000Y-78299000D01*
X163921000Y-98739000D02*
X163921000Y-78299000D01*
X162671000Y-98739000D02*
X163921000Y-98739000D01*
X160671000Y-98739000D02*
G75*
G02X162671000Y-98739000I1000000J0D01*
G01*
X148626000Y-98739000D02*
X149876000Y-98739000D01*
X148626000Y-78299000D02*
X148626000Y-98739000D01*
X153126000Y-78299000D02*
X148626000Y-78299000D01*
X153126000Y-98739000D02*
X153126000Y-78299000D01*
X151876000Y-98739000D02*
X153126000Y-98739000D01*
X149876000Y-98739000D02*
G75*
G02X151876000Y-98739000I1000000J0D01*
G01*
X137831000Y-98739000D02*
X139081000Y-98739000D01*
X137831000Y-78299000D02*
X137831000Y-98739000D01*
X142331000Y-78299000D02*
X137831000Y-78299000D01*
X142331000Y-98739000D02*
X142331000Y-78299000D01*
X141081000Y-98739000D02*
X142331000Y-98739000D01*
X139081000Y-98739000D02*
G75*
G02X141081000Y-98739000I1000000J0D01*
G01*
X127036000Y-98739000D02*
X128286000Y-98739000D01*
X127036000Y-78299000D02*
X127036000Y-98739000D01*
X131536000Y-78299000D02*
X127036000Y-78299000D01*
X131536000Y-98739000D02*
X131536000Y-78299000D01*
X130286000Y-98739000D02*
X131536000Y-98739000D01*
X128286000Y-98739000D02*
G75*
G02X130286000Y-98739000I1000000J0D01*
G01*
X190371000Y-136657233D02*
X190371000Y-136999767D01*
X191391000Y-136657233D02*
X191391000Y-136999767D01*
X189101000Y-140086233D02*
X189101000Y-140428767D01*
X190121000Y-140086233D02*
X190121000Y-140428767D01*
X187831000Y-136671233D02*
X187831000Y-137013767D01*
X188851000Y-136671233D02*
X188851000Y-137013767D01*
X186561000Y-140086233D02*
X186561000Y-140428767D01*
X187581000Y-140086233D02*
X187581000Y-140428767D01*
X185291000Y-136657233D02*
X185291000Y-136999767D01*
X186311000Y-136657233D02*
X186311000Y-136999767D01*
X184021000Y-140086233D02*
X184021000Y-140428767D01*
X185041000Y-140086233D02*
X185041000Y-140428767D01*
X182751000Y-136657233D02*
X182751000Y-136999767D01*
X183771000Y-136657233D02*
X183771000Y-136999767D01*
X181481000Y-140100233D02*
X181481000Y-140442767D01*
X182501000Y-140100233D02*
X182501000Y-140442767D01*
X180211000Y-136657233D02*
X180211000Y-136999767D01*
X181231000Y-136657233D02*
X181231000Y-136999767D01*
X178941000Y-140100233D02*
X178941000Y-140442767D01*
X179961000Y-140100233D02*
X179961000Y-140442767D01*
X177671000Y-136657233D02*
X177671000Y-136999767D01*
X178691000Y-136657233D02*
X178691000Y-136999767D01*
X176401000Y-140100233D02*
X176401000Y-140442767D01*
X177421000Y-140100233D02*
X177421000Y-140442767D01*
X175131000Y-136671233D02*
X175131000Y-137013767D01*
X176151000Y-136671233D02*
X176151000Y-137013767D01*
X173861000Y-140100233D02*
X173861000Y-140442767D01*
X174881000Y-140100233D02*
X174881000Y-140442767D01*
X172591000Y-136671233D02*
X172591000Y-137013767D01*
X173611000Y-136671233D02*
X173611000Y-137013767D01*
X171321000Y-140100233D02*
X171321000Y-140442767D01*
X172341000Y-140100233D02*
X172341000Y-140442767D01*
X170051000Y-136671233D02*
X170051000Y-137013767D01*
X171071000Y-136671233D02*
X171071000Y-137013767D01*
X168781000Y-140086233D02*
X168781000Y-140428767D01*
X169801000Y-140086233D02*
X169801000Y-140428767D01*
X167511000Y-136671233D02*
X167511000Y-137013767D01*
X168531000Y-136671233D02*
X168531000Y-137013767D01*
X166241000Y-140086233D02*
X166241000Y-140428767D01*
X167261000Y-140086233D02*
X167261000Y-140428767D01*
X164971000Y-136671233D02*
X164971000Y-137013767D01*
X165991000Y-136671233D02*
X165991000Y-137013767D01*
X163701000Y-140086233D02*
X163701000Y-140428767D01*
X164721000Y-140086233D02*
X164721000Y-140428767D01*
X162431000Y-136657233D02*
X162431000Y-136999767D01*
X163451000Y-136657233D02*
X163451000Y-136999767D01*
X161161000Y-140086233D02*
X161161000Y-140428767D01*
X162181000Y-140086233D02*
X162181000Y-140428767D01*
X159891000Y-136657233D02*
X159891000Y-136999767D01*
X160911000Y-136657233D02*
X160911000Y-136999767D01*
X158621000Y-140086233D02*
X158621000Y-140428767D01*
X159641000Y-140086233D02*
X159641000Y-140428767D01*
X157351000Y-136657233D02*
X157351000Y-136999767D01*
X158371000Y-136657233D02*
X158371000Y-136999767D01*
X156081000Y-140086233D02*
X156081000Y-140428767D01*
X157101000Y-140086233D02*
X157101000Y-140428767D01*
X154811000Y-136657233D02*
X154811000Y-136999767D01*
X155831000Y-136657233D02*
X155831000Y-136999767D01*
X153541000Y-140086233D02*
X153541000Y-140428767D01*
X154561000Y-140086233D02*
X154561000Y-140428767D01*
X152271000Y-136657233D02*
X152271000Y-136999767D01*
X153291000Y-136657233D02*
X153291000Y-136999767D01*
X151001000Y-140086233D02*
X151001000Y-140428767D01*
X152021000Y-140086233D02*
X152021000Y-140428767D01*
X149731000Y-136657233D02*
X149731000Y-136999767D01*
X150751000Y-136657233D02*
X150751000Y-136999767D01*
X148461000Y-140086233D02*
X148461000Y-140428767D01*
X149481000Y-140086233D02*
X149481000Y-140428767D01*
X147191000Y-136657233D02*
X147191000Y-136999767D01*
X148211000Y-136657233D02*
X148211000Y-136999767D01*
X145921000Y-140100233D02*
X145921000Y-140442767D01*
X146941000Y-140100233D02*
X146941000Y-140442767D01*
X144651000Y-136671233D02*
X144651000Y-137013767D01*
X145671000Y-136671233D02*
X145671000Y-137013767D01*
X143381000Y-140086233D02*
X143381000Y-140428767D01*
X144401000Y-140086233D02*
X144401000Y-140428767D01*
X142111000Y-136671233D02*
X142111000Y-137013767D01*
X143131000Y-136671233D02*
X143131000Y-137013767D01*
X140841000Y-140086233D02*
X140841000Y-140428767D01*
X141861000Y-140086233D02*
X141861000Y-140428767D01*
X147507000Y-64837000D02*
X147507000Y-66167000D01*
X146177000Y-64837000D02*
X147507000Y-64837000D01*
X144907000Y-64837000D02*
X144907000Y-67497000D01*
X144907000Y-67497000D02*
X134687000Y-67497000D01*
X144907000Y-64837000D02*
X134687000Y-64837000D01*
X134687000Y-64837000D02*
X134687000Y-67497000D01*
X131124000Y-64837000D02*
X131124000Y-66167000D01*
X129794000Y-64837000D02*
X131124000Y-64837000D01*
X128524000Y-64837000D02*
X128524000Y-67497000D01*
X128524000Y-67497000D02*
X120844000Y-67497000D01*
X128524000Y-64837000D02*
X120844000Y-64837000D01*
X120844000Y-64837000D02*
X120844000Y-67497000D01*
X135751000Y-134846000D02*
X135751000Y-132306000D01*
X135751000Y-134846000D02*
X138291000Y-134846000D01*
X136001000Y-134596000D02*
X136001000Y-125246000D01*
X194961000Y-134596000D02*
X136001000Y-134596000D01*
X194961000Y-125246000D02*
X194961000Y-134596000D01*
X136001000Y-125246000D02*
X194961000Y-125246000D01*
X110478000Y-111097000D02*
X110478000Y-108557000D01*
X110478000Y-111097000D02*
X113018000Y-111097000D01*
X110728000Y-110847000D02*
X110728000Y-101497000D01*
X169688000Y-110847000D02*
X110728000Y-110847000D01*
X169688000Y-101497000D02*
X169688000Y-110847000D01*
X110728000Y-101497000D02*
X169688000Y-101497000D01*
D11*
X201168000Y-115316000D02*
X201168000Y-69596000D01*
X196088000Y-69596000D02*
X196088000Y-112776000D01*
X201168000Y-69596000D02*
X196088000Y-69596000D01*
X201168000Y-115316000D02*
X198628000Y-115316000D01*
X195808000Y-114046000D02*
X195808000Y-115596000D01*
X198628000Y-115316000D02*
X198628000Y-112776000D01*
X198628000Y-112776000D02*
X196088000Y-112776000D01*
X195808000Y-115596000D02*
X197358000Y-115596000D01*
X132588000Y-120396000D02*
X150368000Y-120396000D01*
X150368000Y-120396000D02*
X150368000Y-117856000D01*
X150368000Y-117856000D02*
X132588000Y-117856000D01*
X129768000Y-120676000D02*
X131318000Y-120676000D01*
X132588000Y-120396000D02*
X132588000Y-117856000D01*
X131318000Y-117576000D02*
X129768000Y-117576000D01*
X129768000Y-117576000D02*
X129768000Y-120676000D01*
X155448000Y-120396000D02*
X173228000Y-120396000D01*
X173228000Y-120396000D02*
X173228000Y-117856000D01*
X173228000Y-117856000D02*
X155448000Y-117856000D01*
X152628000Y-120676000D02*
X154178000Y-120676000D01*
X155448000Y-120396000D02*
X155448000Y-117856000D01*
X154178000Y-117576000D02*
X152628000Y-117576000D01*
X152628000Y-117576000D02*
X152628000Y-120676000D01*
X178308000Y-120396000D02*
X196088000Y-120396000D01*
X196088000Y-120396000D02*
X196088000Y-117856000D01*
X196088000Y-117856000D02*
X178308000Y-117856000D01*
X175488000Y-120676000D02*
X177038000Y-120676000D01*
X178308000Y-120396000D02*
X178308000Y-117856000D01*
X177038000Y-117576000D02*
X175488000Y-117576000D01*
X175488000Y-117576000D02*
X175488000Y-120676000D01*
X123444000Y-72136000D02*
X146304000Y-72136000D01*
X146304000Y-72136000D02*
X146304000Y-69596000D01*
X146304000Y-69596000D02*
X123444000Y-69596000D01*
X120624000Y-72416000D02*
X122174000Y-72416000D01*
X123444000Y-72136000D02*
X123444000Y-69596000D01*
X122174000Y-69316000D02*
X120624000Y-69316000D01*
X120624000Y-69316000D02*
X120624000Y-72416000D01*
X150368000Y-72136000D02*
X168148000Y-72136000D01*
X168148000Y-72136000D02*
X168148000Y-69596000D01*
X168148000Y-69596000D02*
X150368000Y-69596000D01*
X147548000Y-72416000D02*
X149098000Y-72416000D01*
X150368000Y-72136000D02*
X150368000Y-69596000D01*
X149098000Y-69316000D02*
X147548000Y-69316000D01*
X147548000Y-69316000D02*
X147548000Y-72416000D01*
X173228000Y-72136000D02*
X191008000Y-72136000D01*
X191008000Y-72136000D02*
X191008000Y-69596000D01*
X191008000Y-69596000D02*
X173228000Y-69596000D01*
X170408000Y-72416000D02*
X171958000Y-72416000D01*
X173228000Y-72136000D02*
X173228000Y-69596000D01*
X171958000Y-69316000D02*
X170408000Y-69316000D01*
X170408000Y-69316000D02*
X170408000Y-72416000D01*
X119634000Y-119126000D02*
G75*
G03X119634000Y-119126000I-2286000J0D01*
G01*
X171704000Y-114046000D02*
G75*
G03X171704000Y-114046000I-2286000J0D01*
G01*
X202184000Y-119126000D02*
G75*
G03X202184000Y-119126000I-2286000J0D01*
G01*
X120904000Y-70866000D02*
G75*
G03X120904000Y-70866000I-2286000J0D01*
G01*
X171704000Y-86106000D02*
G75*
G03X171704000Y-86106000I-2286000J0D01*
G01*
X195834000Y-70866000D02*
G75*
G03X195834000Y-70866000I-2286000J0D01*
G01*
X117678295Y-99147380D02*
X117678295Y-99956904D01*
X117725914Y-100052142D01*
X117773533Y-100099761D01*
X117868771Y-100147380D01*
X118059247Y-100147380D01*
X118154485Y-100099761D01*
X118202104Y-100052142D01*
X118249723Y-99956904D01*
X118249723Y-99147380D01*
X119249723Y-100147380D02*
X118678295Y-100147380D01*
X118964009Y-100147380D02*
X118964009Y-99147380D01*
X118868771Y-99290238D01*
X118773533Y-99385476D01*
X118678295Y-99433095D01*
X160909095Y-99191380D02*
X160909095Y-100000904D01*
X160956714Y-100096142D01*
X161004333Y-100143761D01*
X161099571Y-100191380D01*
X161290047Y-100191380D01*
X161385285Y-100143761D01*
X161432904Y-100096142D01*
X161480523Y-100000904D01*
X161480523Y-99191380D01*
X162432904Y-99191380D02*
X161956714Y-99191380D01*
X161909095Y-99667571D01*
X161956714Y-99619952D01*
X162051952Y-99572333D01*
X162290047Y-99572333D01*
X162385285Y-99619952D01*
X162432904Y-99667571D01*
X162480523Y-99762809D01*
X162480523Y-100000904D01*
X162432904Y-100096142D01*
X162385285Y-100143761D01*
X162290047Y-100191380D01*
X162051952Y-100191380D01*
X161956714Y-100143761D01*
X161909095Y-100096142D01*
X150114095Y-99191380D02*
X150114095Y-100000904D01*
X150161714Y-100096142D01*
X150209333Y-100143761D01*
X150304571Y-100191380D01*
X150495047Y-100191380D01*
X150590285Y-100143761D01*
X150637904Y-100096142D01*
X150685523Y-100000904D01*
X150685523Y-99191380D01*
X151590285Y-99524714D02*
X151590285Y-100191380D01*
X151352190Y-99143761D02*
X151114095Y-99858047D01*
X151733142Y-99858047D01*
X139319095Y-99191380D02*
X139319095Y-100000904D01*
X139366714Y-100096142D01*
X139414333Y-100143761D01*
X139509571Y-100191380D01*
X139700047Y-100191380D01*
X139795285Y-100143761D01*
X139842904Y-100096142D01*
X139890523Y-100000904D01*
X139890523Y-99191380D01*
X140271476Y-99191380D02*
X140890523Y-99191380D01*
X140557190Y-99572333D01*
X140700047Y-99572333D01*
X140795285Y-99619952D01*
X140842904Y-99667571D01*
X140890523Y-99762809D01*
X140890523Y-100000904D01*
X140842904Y-100096142D01*
X140795285Y-100143761D01*
X140700047Y-100191380D01*
X140414333Y-100191380D01*
X140319095Y-100143761D01*
X140271476Y-100096142D01*
X128524095Y-99191380D02*
X128524095Y-100000904D01*
X128571714Y-100096142D01*
X128619333Y-100143761D01*
X128714571Y-100191380D01*
X128905047Y-100191380D01*
X129000285Y-100143761D01*
X129047904Y-100096142D01*
X129095523Y-100000904D01*
X129095523Y-99191380D01*
X129524095Y-99286619D02*
X129571714Y-99239000D01*
X129666952Y-99191380D01*
X129905047Y-99191380D01*
X130000285Y-99239000D01*
X130047904Y-99286619D01*
X130095523Y-99381857D01*
X130095523Y-99477095D01*
X130047904Y-99619952D01*
X129476476Y-100191380D01*
X130095523Y-100191380D01*
X191366380Y-140455857D02*
X190890190Y-140789190D01*
X191366380Y-141027285D02*
X190366380Y-141027285D01*
X190366380Y-140646333D01*
X190414000Y-140551095D01*
X190461619Y-140503476D01*
X190556857Y-140455857D01*
X190699714Y-140455857D01*
X190794952Y-140503476D01*
X190842571Y-140551095D01*
X190890190Y-140646333D01*
X190890190Y-141027285D01*
X190366380Y-140122523D02*
X190366380Y-139503476D01*
X190747333Y-139836809D01*
X190747333Y-139693952D01*
X190794952Y-139598714D01*
X190842571Y-139551095D01*
X190937809Y-139503476D01*
X191175904Y-139503476D01*
X191271142Y-139551095D01*
X191318761Y-139598714D01*
X191366380Y-139693952D01*
X191366380Y-139979666D01*
X191318761Y-140074904D01*
X191271142Y-140122523D01*
X191366380Y-139027285D02*
X191366380Y-138836809D01*
X191318761Y-138741571D01*
X191271142Y-138693952D01*
X191128285Y-138598714D01*
X190937809Y-138551095D01*
X190556857Y-138551095D01*
X190461619Y-138598714D01*
X190414000Y-138646333D01*
X190366380Y-138741571D01*
X190366380Y-138932047D01*
X190414000Y-139027285D01*
X190461619Y-139074904D01*
X190556857Y-139122523D01*
X190794952Y-139122523D01*
X190890190Y-139074904D01*
X190937809Y-139027285D01*
X190985428Y-138932047D01*
X190985428Y-138741571D01*
X190937809Y-138646333D01*
X190890190Y-138598714D01*
X190794952Y-138551095D01*
X190096380Y-137915857D02*
X189620190Y-138249190D01*
X190096380Y-138487285D02*
X189096380Y-138487285D01*
X189096380Y-138106333D01*
X189144000Y-138011095D01*
X189191619Y-137963476D01*
X189286857Y-137915857D01*
X189429714Y-137915857D01*
X189524952Y-137963476D01*
X189572571Y-138011095D01*
X189620190Y-138106333D01*
X189620190Y-138487285D01*
X189096380Y-137582523D02*
X189096380Y-136963476D01*
X189477333Y-137296809D01*
X189477333Y-137153952D01*
X189524952Y-137058714D01*
X189572571Y-137011095D01*
X189667809Y-136963476D01*
X189905904Y-136963476D01*
X190001142Y-137011095D01*
X190048761Y-137058714D01*
X190096380Y-137153952D01*
X190096380Y-137439666D01*
X190048761Y-137534904D01*
X190001142Y-137582523D01*
X189524952Y-136392047D02*
X189477333Y-136487285D01*
X189429714Y-136534904D01*
X189334476Y-136582523D01*
X189286857Y-136582523D01*
X189191619Y-136534904D01*
X189144000Y-136487285D01*
X189096380Y-136392047D01*
X189096380Y-136201571D01*
X189144000Y-136106333D01*
X189191619Y-136058714D01*
X189286857Y-136011095D01*
X189334476Y-136011095D01*
X189429714Y-136058714D01*
X189477333Y-136106333D01*
X189524952Y-136201571D01*
X189524952Y-136392047D01*
X189572571Y-136487285D01*
X189620190Y-136534904D01*
X189715428Y-136582523D01*
X189905904Y-136582523D01*
X190001142Y-136534904D01*
X190048761Y-136487285D01*
X190096380Y-136392047D01*
X190096380Y-136201571D01*
X190048761Y-136106333D01*
X190001142Y-136058714D01*
X189905904Y-136011095D01*
X189715428Y-136011095D01*
X189620190Y-136058714D01*
X189572571Y-136106333D01*
X189524952Y-136201571D01*
X188826380Y-140469857D02*
X188350190Y-140803190D01*
X188826380Y-141041285D02*
X187826380Y-141041285D01*
X187826380Y-140660333D01*
X187874000Y-140565095D01*
X187921619Y-140517476D01*
X188016857Y-140469857D01*
X188159714Y-140469857D01*
X188254952Y-140517476D01*
X188302571Y-140565095D01*
X188350190Y-140660333D01*
X188350190Y-141041285D01*
X187826380Y-140136523D02*
X187826380Y-139517476D01*
X188207333Y-139850809D01*
X188207333Y-139707952D01*
X188254952Y-139612714D01*
X188302571Y-139565095D01*
X188397809Y-139517476D01*
X188635904Y-139517476D01*
X188731142Y-139565095D01*
X188778761Y-139612714D01*
X188826380Y-139707952D01*
X188826380Y-139993666D01*
X188778761Y-140088904D01*
X188731142Y-140136523D01*
X187826380Y-139184142D02*
X187826380Y-138517476D01*
X188826380Y-138946047D01*
X187556380Y-137915857D02*
X187080190Y-138249190D01*
X187556380Y-138487285D02*
X186556380Y-138487285D01*
X186556380Y-138106333D01*
X186604000Y-138011095D01*
X186651619Y-137963476D01*
X186746857Y-137915857D01*
X186889714Y-137915857D01*
X186984952Y-137963476D01*
X187032571Y-138011095D01*
X187080190Y-138106333D01*
X187080190Y-138487285D01*
X186556380Y-137582523D02*
X186556380Y-136963476D01*
X186937333Y-137296809D01*
X186937333Y-137153952D01*
X186984952Y-137058714D01*
X187032571Y-137011095D01*
X187127809Y-136963476D01*
X187365904Y-136963476D01*
X187461142Y-137011095D01*
X187508761Y-137058714D01*
X187556380Y-137153952D01*
X187556380Y-137439666D01*
X187508761Y-137534904D01*
X187461142Y-137582523D01*
X186556380Y-136106333D02*
X186556380Y-136296809D01*
X186604000Y-136392047D01*
X186651619Y-136439666D01*
X186794476Y-136534904D01*
X186984952Y-136582523D01*
X187365904Y-136582523D01*
X187461142Y-136534904D01*
X187508761Y-136487285D01*
X187556380Y-136392047D01*
X187556380Y-136201571D01*
X187508761Y-136106333D01*
X187461142Y-136058714D01*
X187365904Y-136011095D01*
X187127809Y-136011095D01*
X187032571Y-136058714D01*
X186984952Y-136106333D01*
X186937333Y-136201571D01*
X186937333Y-136392047D01*
X186984952Y-136487285D01*
X187032571Y-136534904D01*
X187127809Y-136582523D01*
X186286380Y-140455857D02*
X185810190Y-140789190D01*
X186286380Y-141027285D02*
X185286380Y-141027285D01*
X185286380Y-140646333D01*
X185334000Y-140551095D01*
X185381619Y-140503476D01*
X185476857Y-140455857D01*
X185619714Y-140455857D01*
X185714952Y-140503476D01*
X185762571Y-140551095D01*
X185810190Y-140646333D01*
X185810190Y-141027285D01*
X185286380Y-140122523D02*
X185286380Y-139503476D01*
X185667333Y-139836809D01*
X185667333Y-139693952D01*
X185714952Y-139598714D01*
X185762571Y-139551095D01*
X185857809Y-139503476D01*
X186095904Y-139503476D01*
X186191142Y-139551095D01*
X186238761Y-139598714D01*
X186286380Y-139693952D01*
X186286380Y-139979666D01*
X186238761Y-140074904D01*
X186191142Y-140122523D01*
X185286380Y-138598714D02*
X185286380Y-139074904D01*
X185762571Y-139122523D01*
X185714952Y-139074904D01*
X185667333Y-138979666D01*
X185667333Y-138741571D01*
X185714952Y-138646333D01*
X185762571Y-138598714D01*
X185857809Y-138551095D01*
X186095904Y-138551095D01*
X186191142Y-138598714D01*
X186238761Y-138646333D01*
X186286380Y-138741571D01*
X186286380Y-138979666D01*
X186238761Y-139074904D01*
X186191142Y-139122523D01*
X185016380Y-137915857D02*
X184540190Y-138249190D01*
X185016380Y-138487285D02*
X184016380Y-138487285D01*
X184016380Y-138106333D01*
X184064000Y-138011095D01*
X184111619Y-137963476D01*
X184206857Y-137915857D01*
X184349714Y-137915857D01*
X184444952Y-137963476D01*
X184492571Y-138011095D01*
X184540190Y-138106333D01*
X184540190Y-138487285D01*
X184016380Y-137582523D02*
X184016380Y-136963476D01*
X184397333Y-137296809D01*
X184397333Y-137153952D01*
X184444952Y-137058714D01*
X184492571Y-137011095D01*
X184587809Y-136963476D01*
X184825904Y-136963476D01*
X184921142Y-137011095D01*
X184968761Y-137058714D01*
X185016380Y-137153952D01*
X185016380Y-137439666D01*
X184968761Y-137534904D01*
X184921142Y-137582523D01*
X184349714Y-136106333D02*
X185016380Y-136106333D01*
X183968761Y-136344428D02*
X184683047Y-136582523D01*
X184683047Y-135963476D01*
X183746380Y-140455857D02*
X183270190Y-140789190D01*
X183746380Y-141027285D02*
X182746380Y-141027285D01*
X182746380Y-140646333D01*
X182794000Y-140551095D01*
X182841619Y-140503476D01*
X182936857Y-140455857D01*
X183079714Y-140455857D01*
X183174952Y-140503476D01*
X183222571Y-140551095D01*
X183270190Y-140646333D01*
X183270190Y-141027285D01*
X182746380Y-140122523D02*
X182746380Y-139503476D01*
X183127333Y-139836809D01*
X183127333Y-139693952D01*
X183174952Y-139598714D01*
X183222571Y-139551095D01*
X183317809Y-139503476D01*
X183555904Y-139503476D01*
X183651142Y-139551095D01*
X183698761Y-139598714D01*
X183746380Y-139693952D01*
X183746380Y-139979666D01*
X183698761Y-140074904D01*
X183651142Y-140122523D01*
X182746380Y-139170142D02*
X182746380Y-138551095D01*
X183127333Y-138884428D01*
X183127333Y-138741571D01*
X183174952Y-138646333D01*
X183222571Y-138598714D01*
X183317809Y-138551095D01*
X183555904Y-138551095D01*
X183651142Y-138598714D01*
X183698761Y-138646333D01*
X183746380Y-138741571D01*
X183746380Y-139027285D01*
X183698761Y-139122523D01*
X183651142Y-139170142D01*
X182476380Y-137929857D02*
X182000190Y-138263190D01*
X182476380Y-138501285D02*
X181476380Y-138501285D01*
X181476380Y-138120333D01*
X181524000Y-138025095D01*
X181571619Y-137977476D01*
X181666857Y-137929857D01*
X181809714Y-137929857D01*
X181904952Y-137977476D01*
X181952571Y-138025095D01*
X182000190Y-138120333D01*
X182000190Y-138501285D01*
X181476380Y-137596523D02*
X181476380Y-136977476D01*
X181857333Y-137310809D01*
X181857333Y-137167952D01*
X181904952Y-137072714D01*
X181952571Y-137025095D01*
X182047809Y-136977476D01*
X182285904Y-136977476D01*
X182381142Y-137025095D01*
X182428761Y-137072714D01*
X182476380Y-137167952D01*
X182476380Y-137453666D01*
X182428761Y-137548904D01*
X182381142Y-137596523D01*
X181571619Y-136596523D02*
X181524000Y-136548904D01*
X181476380Y-136453666D01*
X181476380Y-136215571D01*
X181524000Y-136120333D01*
X181571619Y-136072714D01*
X181666857Y-136025095D01*
X181762095Y-136025095D01*
X181904952Y-136072714D01*
X182476380Y-136644142D01*
X182476380Y-136025095D01*
X181206380Y-140455857D02*
X180730190Y-140789190D01*
X181206380Y-141027285D02*
X180206380Y-141027285D01*
X180206380Y-140646333D01*
X180254000Y-140551095D01*
X180301619Y-140503476D01*
X180396857Y-140455857D01*
X180539714Y-140455857D01*
X180634952Y-140503476D01*
X180682571Y-140551095D01*
X180730190Y-140646333D01*
X180730190Y-141027285D01*
X180206380Y-140122523D02*
X180206380Y-139503476D01*
X180587333Y-139836809D01*
X180587333Y-139693952D01*
X180634952Y-139598714D01*
X180682571Y-139551095D01*
X180777809Y-139503476D01*
X181015904Y-139503476D01*
X181111142Y-139551095D01*
X181158761Y-139598714D01*
X181206380Y-139693952D01*
X181206380Y-139979666D01*
X181158761Y-140074904D01*
X181111142Y-140122523D01*
X181206380Y-138551095D02*
X181206380Y-139122523D01*
X181206380Y-138836809D02*
X180206380Y-138836809D01*
X180349238Y-138932047D01*
X180444476Y-139027285D01*
X180492095Y-139122523D01*
X179936380Y-137929857D02*
X179460190Y-138263190D01*
X179936380Y-138501285D02*
X178936380Y-138501285D01*
X178936380Y-138120333D01*
X178984000Y-138025095D01*
X179031619Y-137977476D01*
X179126857Y-137929857D01*
X179269714Y-137929857D01*
X179364952Y-137977476D01*
X179412571Y-138025095D01*
X179460190Y-138120333D01*
X179460190Y-138501285D01*
X178936380Y-137596523D02*
X178936380Y-136977476D01*
X179317333Y-137310809D01*
X179317333Y-137167952D01*
X179364952Y-137072714D01*
X179412571Y-137025095D01*
X179507809Y-136977476D01*
X179745904Y-136977476D01*
X179841142Y-137025095D01*
X179888761Y-137072714D01*
X179936380Y-137167952D01*
X179936380Y-137453666D01*
X179888761Y-137548904D01*
X179841142Y-137596523D01*
X178936380Y-136358428D02*
X178936380Y-136263190D01*
X178984000Y-136167952D01*
X179031619Y-136120333D01*
X179126857Y-136072714D01*
X179317333Y-136025095D01*
X179555428Y-136025095D01*
X179745904Y-136072714D01*
X179841142Y-136120333D01*
X179888761Y-136167952D01*
X179936380Y-136263190D01*
X179936380Y-136358428D01*
X179888761Y-136453666D01*
X179841142Y-136501285D01*
X179745904Y-136548904D01*
X179555428Y-136596523D01*
X179317333Y-136596523D01*
X179126857Y-136548904D01*
X179031619Y-136501285D01*
X178984000Y-136453666D01*
X178936380Y-136358428D01*
X178666380Y-140455857D02*
X178190190Y-140789190D01*
X178666380Y-141027285D02*
X177666380Y-141027285D01*
X177666380Y-140646333D01*
X177714000Y-140551095D01*
X177761619Y-140503476D01*
X177856857Y-140455857D01*
X177999714Y-140455857D01*
X178094952Y-140503476D01*
X178142571Y-140551095D01*
X178190190Y-140646333D01*
X178190190Y-141027285D01*
X177761619Y-140074904D02*
X177714000Y-140027285D01*
X177666380Y-139932047D01*
X177666380Y-139693952D01*
X177714000Y-139598714D01*
X177761619Y-139551095D01*
X177856857Y-139503476D01*
X177952095Y-139503476D01*
X178094952Y-139551095D01*
X178666380Y-140122523D01*
X178666380Y-139503476D01*
X178666380Y-139027285D02*
X178666380Y-138836809D01*
X178618761Y-138741571D01*
X178571142Y-138693952D01*
X178428285Y-138598714D01*
X178237809Y-138551095D01*
X177856857Y-138551095D01*
X177761619Y-138598714D01*
X177714000Y-138646333D01*
X177666380Y-138741571D01*
X177666380Y-138932047D01*
X177714000Y-139027285D01*
X177761619Y-139074904D01*
X177856857Y-139122523D01*
X178094952Y-139122523D01*
X178190190Y-139074904D01*
X178237809Y-139027285D01*
X178285428Y-138932047D01*
X178285428Y-138741571D01*
X178237809Y-138646333D01*
X178190190Y-138598714D01*
X178094952Y-138551095D01*
X177396380Y-137929857D02*
X176920190Y-138263190D01*
X177396380Y-138501285D02*
X176396380Y-138501285D01*
X176396380Y-138120333D01*
X176444000Y-138025095D01*
X176491619Y-137977476D01*
X176586857Y-137929857D01*
X176729714Y-137929857D01*
X176824952Y-137977476D01*
X176872571Y-138025095D01*
X176920190Y-138120333D01*
X176920190Y-138501285D01*
X176491619Y-137548904D02*
X176444000Y-137501285D01*
X176396380Y-137406047D01*
X176396380Y-137167952D01*
X176444000Y-137072714D01*
X176491619Y-137025095D01*
X176586857Y-136977476D01*
X176682095Y-136977476D01*
X176824952Y-137025095D01*
X177396380Y-137596523D01*
X177396380Y-136977476D01*
X176824952Y-136406047D02*
X176777333Y-136501285D01*
X176729714Y-136548904D01*
X176634476Y-136596523D01*
X176586857Y-136596523D01*
X176491619Y-136548904D01*
X176444000Y-136501285D01*
X176396380Y-136406047D01*
X176396380Y-136215571D01*
X176444000Y-136120333D01*
X176491619Y-136072714D01*
X176586857Y-136025095D01*
X176634476Y-136025095D01*
X176729714Y-136072714D01*
X176777333Y-136120333D01*
X176824952Y-136215571D01*
X176824952Y-136406047D01*
X176872571Y-136501285D01*
X176920190Y-136548904D01*
X177015428Y-136596523D01*
X177205904Y-136596523D01*
X177301142Y-136548904D01*
X177348761Y-136501285D01*
X177396380Y-136406047D01*
X177396380Y-136215571D01*
X177348761Y-136120333D01*
X177301142Y-136072714D01*
X177205904Y-136025095D01*
X177015428Y-136025095D01*
X176920190Y-136072714D01*
X176872571Y-136120333D01*
X176824952Y-136215571D01*
X176126380Y-140469857D02*
X175650190Y-140803190D01*
X176126380Y-141041285D02*
X175126380Y-141041285D01*
X175126380Y-140660333D01*
X175174000Y-140565095D01*
X175221619Y-140517476D01*
X175316857Y-140469857D01*
X175459714Y-140469857D01*
X175554952Y-140517476D01*
X175602571Y-140565095D01*
X175650190Y-140660333D01*
X175650190Y-141041285D01*
X175221619Y-140088904D02*
X175174000Y-140041285D01*
X175126380Y-139946047D01*
X175126380Y-139707952D01*
X175174000Y-139612714D01*
X175221619Y-139565095D01*
X175316857Y-139517476D01*
X175412095Y-139517476D01*
X175554952Y-139565095D01*
X176126380Y-140136523D01*
X176126380Y-139517476D01*
X175126380Y-139184142D02*
X175126380Y-138517476D01*
X176126380Y-138946047D01*
X174856380Y-137929857D02*
X174380190Y-138263190D01*
X174856380Y-138501285D02*
X173856380Y-138501285D01*
X173856380Y-138120333D01*
X173904000Y-138025095D01*
X173951619Y-137977476D01*
X174046857Y-137929857D01*
X174189714Y-137929857D01*
X174284952Y-137977476D01*
X174332571Y-138025095D01*
X174380190Y-138120333D01*
X174380190Y-138501285D01*
X173951619Y-137548904D02*
X173904000Y-137501285D01*
X173856380Y-137406047D01*
X173856380Y-137167952D01*
X173904000Y-137072714D01*
X173951619Y-137025095D01*
X174046857Y-136977476D01*
X174142095Y-136977476D01*
X174284952Y-137025095D01*
X174856380Y-137596523D01*
X174856380Y-136977476D01*
X173856380Y-136120333D02*
X173856380Y-136310809D01*
X173904000Y-136406047D01*
X173951619Y-136453666D01*
X174094476Y-136548904D01*
X174284952Y-136596523D01*
X174665904Y-136596523D01*
X174761142Y-136548904D01*
X174808761Y-136501285D01*
X174856380Y-136406047D01*
X174856380Y-136215571D01*
X174808761Y-136120333D01*
X174761142Y-136072714D01*
X174665904Y-136025095D01*
X174427809Y-136025095D01*
X174332571Y-136072714D01*
X174284952Y-136120333D01*
X174237333Y-136215571D01*
X174237333Y-136406047D01*
X174284952Y-136501285D01*
X174332571Y-136548904D01*
X174427809Y-136596523D01*
X173586380Y-140469857D02*
X173110190Y-140803190D01*
X173586380Y-141041285D02*
X172586380Y-141041285D01*
X172586380Y-140660333D01*
X172634000Y-140565095D01*
X172681619Y-140517476D01*
X172776857Y-140469857D01*
X172919714Y-140469857D01*
X173014952Y-140517476D01*
X173062571Y-140565095D01*
X173110190Y-140660333D01*
X173110190Y-141041285D01*
X172681619Y-140088904D02*
X172634000Y-140041285D01*
X172586380Y-139946047D01*
X172586380Y-139707952D01*
X172634000Y-139612714D01*
X172681619Y-139565095D01*
X172776857Y-139517476D01*
X172872095Y-139517476D01*
X173014952Y-139565095D01*
X173586380Y-140136523D01*
X173586380Y-139517476D01*
X172586380Y-138612714D02*
X172586380Y-139088904D01*
X173062571Y-139136523D01*
X173014952Y-139088904D01*
X172967333Y-138993666D01*
X172967333Y-138755571D01*
X173014952Y-138660333D01*
X173062571Y-138612714D01*
X173157809Y-138565095D01*
X173395904Y-138565095D01*
X173491142Y-138612714D01*
X173538761Y-138660333D01*
X173586380Y-138755571D01*
X173586380Y-138993666D01*
X173538761Y-139088904D01*
X173491142Y-139136523D01*
X172316380Y-137929857D02*
X171840190Y-138263190D01*
X172316380Y-138501285D02*
X171316380Y-138501285D01*
X171316380Y-138120333D01*
X171364000Y-138025095D01*
X171411619Y-137977476D01*
X171506857Y-137929857D01*
X171649714Y-137929857D01*
X171744952Y-137977476D01*
X171792571Y-138025095D01*
X171840190Y-138120333D01*
X171840190Y-138501285D01*
X171411619Y-137548904D02*
X171364000Y-137501285D01*
X171316380Y-137406047D01*
X171316380Y-137167952D01*
X171364000Y-137072714D01*
X171411619Y-137025095D01*
X171506857Y-136977476D01*
X171602095Y-136977476D01*
X171744952Y-137025095D01*
X172316380Y-137596523D01*
X172316380Y-136977476D01*
X171649714Y-136120333D02*
X172316380Y-136120333D01*
X171268761Y-136358428D02*
X171983047Y-136596523D01*
X171983047Y-135977476D01*
X171046380Y-140469857D02*
X170570190Y-140803190D01*
X171046380Y-141041285D02*
X170046380Y-141041285D01*
X170046380Y-140660333D01*
X170094000Y-140565095D01*
X170141619Y-140517476D01*
X170236857Y-140469857D01*
X170379714Y-140469857D01*
X170474952Y-140517476D01*
X170522571Y-140565095D01*
X170570190Y-140660333D01*
X170570190Y-141041285D01*
X170141619Y-140088904D02*
X170094000Y-140041285D01*
X170046380Y-139946047D01*
X170046380Y-139707952D01*
X170094000Y-139612714D01*
X170141619Y-139565095D01*
X170236857Y-139517476D01*
X170332095Y-139517476D01*
X170474952Y-139565095D01*
X171046380Y-140136523D01*
X171046380Y-139517476D01*
X170046380Y-139184142D02*
X170046380Y-138565095D01*
X170427333Y-138898428D01*
X170427333Y-138755571D01*
X170474952Y-138660333D01*
X170522571Y-138612714D01*
X170617809Y-138565095D01*
X170855904Y-138565095D01*
X170951142Y-138612714D01*
X170998761Y-138660333D01*
X171046380Y-138755571D01*
X171046380Y-139041285D01*
X170998761Y-139136523D01*
X170951142Y-139184142D01*
X169776380Y-137915857D02*
X169300190Y-138249190D01*
X169776380Y-138487285D02*
X168776380Y-138487285D01*
X168776380Y-138106333D01*
X168824000Y-138011095D01*
X168871619Y-137963476D01*
X168966857Y-137915857D01*
X169109714Y-137915857D01*
X169204952Y-137963476D01*
X169252571Y-138011095D01*
X169300190Y-138106333D01*
X169300190Y-138487285D01*
X168871619Y-137534904D02*
X168824000Y-137487285D01*
X168776380Y-137392047D01*
X168776380Y-137153952D01*
X168824000Y-137058714D01*
X168871619Y-137011095D01*
X168966857Y-136963476D01*
X169062095Y-136963476D01*
X169204952Y-137011095D01*
X169776380Y-137582523D01*
X169776380Y-136963476D01*
X168871619Y-136582523D02*
X168824000Y-136534904D01*
X168776380Y-136439666D01*
X168776380Y-136201571D01*
X168824000Y-136106333D01*
X168871619Y-136058714D01*
X168966857Y-136011095D01*
X169062095Y-136011095D01*
X169204952Y-136058714D01*
X169776380Y-136630142D01*
X169776380Y-136011095D01*
X168506380Y-140469857D02*
X168030190Y-140803190D01*
X168506380Y-141041285D02*
X167506380Y-141041285D01*
X167506380Y-140660333D01*
X167554000Y-140565095D01*
X167601619Y-140517476D01*
X167696857Y-140469857D01*
X167839714Y-140469857D01*
X167934952Y-140517476D01*
X167982571Y-140565095D01*
X168030190Y-140660333D01*
X168030190Y-141041285D01*
X167601619Y-140088904D02*
X167554000Y-140041285D01*
X167506380Y-139946047D01*
X167506380Y-139707952D01*
X167554000Y-139612714D01*
X167601619Y-139565095D01*
X167696857Y-139517476D01*
X167792095Y-139517476D01*
X167934952Y-139565095D01*
X168506380Y-140136523D01*
X168506380Y-139517476D01*
X168506380Y-138565095D02*
X168506380Y-139136523D01*
X168506380Y-138850809D02*
X167506380Y-138850809D01*
X167649238Y-138946047D01*
X167744476Y-139041285D01*
X167792095Y-139136523D01*
X167236380Y-137915857D02*
X166760190Y-138249190D01*
X167236380Y-138487285D02*
X166236380Y-138487285D01*
X166236380Y-138106333D01*
X166284000Y-138011095D01*
X166331619Y-137963476D01*
X166426857Y-137915857D01*
X166569714Y-137915857D01*
X166664952Y-137963476D01*
X166712571Y-138011095D01*
X166760190Y-138106333D01*
X166760190Y-138487285D01*
X166331619Y-137534904D02*
X166284000Y-137487285D01*
X166236380Y-137392047D01*
X166236380Y-137153952D01*
X166284000Y-137058714D01*
X166331619Y-137011095D01*
X166426857Y-136963476D01*
X166522095Y-136963476D01*
X166664952Y-137011095D01*
X167236380Y-137582523D01*
X167236380Y-136963476D01*
X166236380Y-136344428D02*
X166236380Y-136249190D01*
X166284000Y-136153952D01*
X166331619Y-136106333D01*
X166426857Y-136058714D01*
X166617333Y-136011095D01*
X166855428Y-136011095D01*
X167045904Y-136058714D01*
X167141142Y-136106333D01*
X167188761Y-136153952D01*
X167236380Y-136249190D01*
X167236380Y-136344428D01*
X167188761Y-136439666D01*
X167141142Y-136487285D01*
X167045904Y-136534904D01*
X166855428Y-136582523D01*
X166617333Y-136582523D01*
X166426857Y-136534904D01*
X166331619Y-136487285D01*
X166284000Y-136439666D01*
X166236380Y-136344428D01*
X165966380Y-140469857D02*
X165490190Y-140803190D01*
X165966380Y-141041285D02*
X164966380Y-141041285D01*
X164966380Y-140660333D01*
X165014000Y-140565095D01*
X165061619Y-140517476D01*
X165156857Y-140469857D01*
X165299714Y-140469857D01*
X165394952Y-140517476D01*
X165442571Y-140565095D01*
X165490190Y-140660333D01*
X165490190Y-141041285D01*
X165966380Y-139517476D02*
X165966380Y-140088904D01*
X165966380Y-139803190D02*
X164966380Y-139803190D01*
X165109238Y-139898428D01*
X165204476Y-139993666D01*
X165252095Y-140088904D01*
X165966380Y-139041285D02*
X165966380Y-138850809D01*
X165918761Y-138755571D01*
X165871142Y-138707952D01*
X165728285Y-138612714D01*
X165537809Y-138565095D01*
X165156857Y-138565095D01*
X165061619Y-138612714D01*
X165014000Y-138660333D01*
X164966380Y-138755571D01*
X164966380Y-138946047D01*
X165014000Y-139041285D01*
X165061619Y-139088904D01*
X165156857Y-139136523D01*
X165394952Y-139136523D01*
X165490190Y-139088904D01*
X165537809Y-139041285D01*
X165585428Y-138946047D01*
X165585428Y-138755571D01*
X165537809Y-138660333D01*
X165490190Y-138612714D01*
X165394952Y-138565095D01*
X164696380Y-137915857D02*
X164220190Y-138249190D01*
X164696380Y-138487285D02*
X163696380Y-138487285D01*
X163696380Y-138106333D01*
X163744000Y-138011095D01*
X163791619Y-137963476D01*
X163886857Y-137915857D01*
X164029714Y-137915857D01*
X164124952Y-137963476D01*
X164172571Y-138011095D01*
X164220190Y-138106333D01*
X164220190Y-138487285D01*
X164696380Y-136963476D02*
X164696380Y-137534904D01*
X164696380Y-137249190D02*
X163696380Y-137249190D01*
X163839238Y-137344428D01*
X163934476Y-137439666D01*
X163982095Y-137534904D01*
X164124952Y-136392047D02*
X164077333Y-136487285D01*
X164029714Y-136534904D01*
X163934476Y-136582523D01*
X163886857Y-136582523D01*
X163791619Y-136534904D01*
X163744000Y-136487285D01*
X163696380Y-136392047D01*
X163696380Y-136201571D01*
X163744000Y-136106333D01*
X163791619Y-136058714D01*
X163886857Y-136011095D01*
X163934476Y-136011095D01*
X164029714Y-136058714D01*
X164077333Y-136106333D01*
X164124952Y-136201571D01*
X164124952Y-136392047D01*
X164172571Y-136487285D01*
X164220190Y-136534904D01*
X164315428Y-136582523D01*
X164505904Y-136582523D01*
X164601142Y-136534904D01*
X164648761Y-136487285D01*
X164696380Y-136392047D01*
X164696380Y-136201571D01*
X164648761Y-136106333D01*
X164601142Y-136058714D01*
X164505904Y-136011095D01*
X164315428Y-136011095D01*
X164220190Y-136058714D01*
X164172571Y-136106333D01*
X164124952Y-136201571D01*
X163426380Y-140455857D02*
X162950190Y-140789190D01*
X163426380Y-141027285D02*
X162426380Y-141027285D01*
X162426380Y-140646333D01*
X162474000Y-140551095D01*
X162521619Y-140503476D01*
X162616857Y-140455857D01*
X162759714Y-140455857D01*
X162854952Y-140503476D01*
X162902571Y-140551095D01*
X162950190Y-140646333D01*
X162950190Y-141027285D01*
X163426380Y-139503476D02*
X163426380Y-140074904D01*
X163426380Y-139789190D02*
X162426380Y-139789190D01*
X162569238Y-139884428D01*
X162664476Y-139979666D01*
X162712095Y-140074904D01*
X162426380Y-139170142D02*
X162426380Y-138503476D01*
X163426380Y-138932047D01*
X162156380Y-137915857D02*
X161680190Y-138249190D01*
X162156380Y-138487285D02*
X161156380Y-138487285D01*
X161156380Y-138106333D01*
X161204000Y-138011095D01*
X161251619Y-137963476D01*
X161346857Y-137915857D01*
X161489714Y-137915857D01*
X161584952Y-137963476D01*
X161632571Y-138011095D01*
X161680190Y-138106333D01*
X161680190Y-138487285D01*
X162156380Y-136963476D02*
X162156380Y-137534904D01*
X162156380Y-137249190D02*
X161156380Y-137249190D01*
X161299238Y-137344428D01*
X161394476Y-137439666D01*
X161442095Y-137534904D01*
X161156380Y-136106333D02*
X161156380Y-136296809D01*
X161204000Y-136392047D01*
X161251619Y-136439666D01*
X161394476Y-136534904D01*
X161584952Y-136582523D01*
X161965904Y-136582523D01*
X162061142Y-136534904D01*
X162108761Y-136487285D01*
X162156380Y-136392047D01*
X162156380Y-136201571D01*
X162108761Y-136106333D01*
X162061142Y-136058714D01*
X161965904Y-136011095D01*
X161727809Y-136011095D01*
X161632571Y-136058714D01*
X161584952Y-136106333D01*
X161537333Y-136201571D01*
X161537333Y-136392047D01*
X161584952Y-136487285D01*
X161632571Y-136534904D01*
X161727809Y-136582523D01*
X160886380Y-140455857D02*
X160410190Y-140789190D01*
X160886380Y-141027285D02*
X159886380Y-141027285D01*
X159886380Y-140646333D01*
X159934000Y-140551095D01*
X159981619Y-140503476D01*
X160076857Y-140455857D01*
X160219714Y-140455857D01*
X160314952Y-140503476D01*
X160362571Y-140551095D01*
X160410190Y-140646333D01*
X160410190Y-141027285D01*
X160886380Y-139503476D02*
X160886380Y-140074904D01*
X160886380Y-139789190D02*
X159886380Y-139789190D01*
X160029238Y-139884428D01*
X160124476Y-139979666D01*
X160172095Y-140074904D01*
X159886380Y-138598714D02*
X159886380Y-139074904D01*
X160362571Y-139122523D01*
X160314952Y-139074904D01*
X160267333Y-138979666D01*
X160267333Y-138741571D01*
X160314952Y-138646333D01*
X160362571Y-138598714D01*
X160457809Y-138551095D01*
X160695904Y-138551095D01*
X160791142Y-138598714D01*
X160838761Y-138646333D01*
X160886380Y-138741571D01*
X160886380Y-138979666D01*
X160838761Y-139074904D01*
X160791142Y-139122523D01*
X159616380Y-137915857D02*
X159140190Y-138249190D01*
X159616380Y-138487285D02*
X158616380Y-138487285D01*
X158616380Y-138106333D01*
X158664000Y-138011095D01*
X158711619Y-137963476D01*
X158806857Y-137915857D01*
X158949714Y-137915857D01*
X159044952Y-137963476D01*
X159092571Y-138011095D01*
X159140190Y-138106333D01*
X159140190Y-138487285D01*
X159616380Y-136963476D02*
X159616380Y-137534904D01*
X159616380Y-137249190D02*
X158616380Y-137249190D01*
X158759238Y-137344428D01*
X158854476Y-137439666D01*
X158902095Y-137534904D01*
X158949714Y-136106333D02*
X159616380Y-136106333D01*
X158568761Y-136344428D02*
X159283047Y-136582523D01*
X159283047Y-135963476D01*
X158346380Y-140455857D02*
X157870190Y-140789190D01*
X158346380Y-141027285D02*
X157346380Y-141027285D01*
X157346380Y-140646333D01*
X157394000Y-140551095D01*
X157441619Y-140503476D01*
X157536857Y-140455857D01*
X157679714Y-140455857D01*
X157774952Y-140503476D01*
X157822571Y-140551095D01*
X157870190Y-140646333D01*
X157870190Y-141027285D01*
X158346380Y-139503476D02*
X158346380Y-140074904D01*
X158346380Y-139789190D02*
X157346380Y-139789190D01*
X157489238Y-139884428D01*
X157584476Y-139979666D01*
X157632095Y-140074904D01*
X157346380Y-139170142D02*
X157346380Y-138551095D01*
X157727333Y-138884428D01*
X157727333Y-138741571D01*
X157774952Y-138646333D01*
X157822571Y-138598714D01*
X157917809Y-138551095D01*
X158155904Y-138551095D01*
X158251142Y-138598714D01*
X158298761Y-138646333D01*
X158346380Y-138741571D01*
X158346380Y-139027285D01*
X158298761Y-139122523D01*
X158251142Y-139170142D01*
X157076380Y-137915857D02*
X156600190Y-138249190D01*
X157076380Y-138487285D02*
X156076380Y-138487285D01*
X156076380Y-138106333D01*
X156124000Y-138011095D01*
X156171619Y-137963476D01*
X156266857Y-137915857D01*
X156409714Y-137915857D01*
X156504952Y-137963476D01*
X156552571Y-138011095D01*
X156600190Y-138106333D01*
X156600190Y-138487285D01*
X157076380Y-136963476D02*
X157076380Y-137534904D01*
X157076380Y-137249190D02*
X156076380Y-137249190D01*
X156219238Y-137344428D01*
X156314476Y-137439666D01*
X156362095Y-137534904D01*
X156171619Y-136582523D02*
X156124000Y-136534904D01*
X156076380Y-136439666D01*
X156076380Y-136201571D01*
X156124000Y-136106333D01*
X156171619Y-136058714D01*
X156266857Y-136011095D01*
X156362095Y-136011095D01*
X156504952Y-136058714D01*
X157076380Y-136630142D01*
X157076380Y-136011095D01*
X155806380Y-140455857D02*
X155330190Y-140789190D01*
X155806380Y-141027285D02*
X154806380Y-141027285D01*
X154806380Y-140646333D01*
X154854000Y-140551095D01*
X154901619Y-140503476D01*
X154996857Y-140455857D01*
X155139714Y-140455857D01*
X155234952Y-140503476D01*
X155282571Y-140551095D01*
X155330190Y-140646333D01*
X155330190Y-141027285D01*
X155806380Y-139503476D02*
X155806380Y-140074904D01*
X155806380Y-139789190D02*
X154806380Y-139789190D01*
X154949238Y-139884428D01*
X155044476Y-139979666D01*
X155092095Y-140074904D01*
X155806380Y-138551095D02*
X155806380Y-139122523D01*
X155806380Y-138836809D02*
X154806380Y-138836809D01*
X154949238Y-138932047D01*
X155044476Y-139027285D01*
X155092095Y-139122523D01*
X154536380Y-137915857D02*
X154060190Y-138249190D01*
X154536380Y-138487285D02*
X153536380Y-138487285D01*
X153536380Y-138106333D01*
X153584000Y-138011095D01*
X153631619Y-137963476D01*
X153726857Y-137915857D01*
X153869714Y-137915857D01*
X153964952Y-137963476D01*
X154012571Y-138011095D01*
X154060190Y-138106333D01*
X154060190Y-138487285D01*
X154536380Y-136963476D02*
X154536380Y-137534904D01*
X154536380Y-137249190D02*
X153536380Y-137249190D01*
X153679238Y-137344428D01*
X153774476Y-137439666D01*
X153822095Y-137534904D01*
X153536380Y-136344428D02*
X153536380Y-136249190D01*
X153584000Y-136153952D01*
X153631619Y-136106333D01*
X153726857Y-136058714D01*
X153917333Y-136011095D01*
X154155428Y-136011095D01*
X154345904Y-136058714D01*
X154441142Y-136106333D01*
X154488761Y-136153952D01*
X154536380Y-136249190D01*
X154536380Y-136344428D01*
X154488761Y-136439666D01*
X154441142Y-136487285D01*
X154345904Y-136534904D01*
X154155428Y-136582523D01*
X153917333Y-136582523D01*
X153726857Y-136534904D01*
X153631619Y-136487285D01*
X153584000Y-136439666D01*
X153536380Y-136344428D01*
X153266380Y-139573266D02*
X152790190Y-139906600D01*
X153266380Y-140144695D02*
X152266380Y-140144695D01*
X152266380Y-139763742D01*
X152314000Y-139668504D01*
X152361619Y-139620885D01*
X152456857Y-139573266D01*
X152599714Y-139573266D01*
X152694952Y-139620885D01*
X152742571Y-139668504D01*
X152790190Y-139763742D01*
X152790190Y-140144695D01*
X153266380Y-139097076D02*
X153266380Y-138906600D01*
X153218761Y-138811361D01*
X153171142Y-138763742D01*
X153028285Y-138668504D01*
X152837809Y-138620885D01*
X152456857Y-138620885D01*
X152361619Y-138668504D01*
X152314000Y-138716123D01*
X152266380Y-138811361D01*
X152266380Y-139001838D01*
X152314000Y-139097076D01*
X152361619Y-139144695D01*
X152456857Y-139192314D01*
X152694952Y-139192314D01*
X152790190Y-139144695D01*
X152837809Y-139097076D01*
X152885428Y-139001838D01*
X152885428Y-138811361D01*
X152837809Y-138716123D01*
X152790190Y-138668504D01*
X152694952Y-138620885D01*
X151970980Y-137922266D02*
X151494790Y-138255600D01*
X151970980Y-138493695D02*
X150970980Y-138493695D01*
X150970980Y-138112742D01*
X151018600Y-138017504D01*
X151066219Y-137969885D01*
X151161457Y-137922266D01*
X151304314Y-137922266D01*
X151399552Y-137969885D01*
X151447171Y-138017504D01*
X151494790Y-138112742D01*
X151494790Y-138493695D01*
X151399552Y-137350838D02*
X151351933Y-137446076D01*
X151304314Y-137493695D01*
X151209076Y-137541314D01*
X151161457Y-137541314D01*
X151066219Y-137493695D01*
X151018600Y-137446076D01*
X150970980Y-137350838D01*
X150970980Y-137160361D01*
X151018600Y-137065123D01*
X151066219Y-137017504D01*
X151161457Y-136969885D01*
X151209076Y-136969885D01*
X151304314Y-137017504D01*
X151351933Y-137065123D01*
X151399552Y-137160361D01*
X151399552Y-137350838D01*
X151447171Y-137446076D01*
X151494790Y-137493695D01*
X151590028Y-137541314D01*
X151780504Y-137541314D01*
X151875742Y-137493695D01*
X151923361Y-137446076D01*
X151970980Y-137350838D01*
X151970980Y-137160361D01*
X151923361Y-137065123D01*
X151875742Y-137017504D01*
X151780504Y-136969885D01*
X151590028Y-136969885D01*
X151494790Y-137017504D01*
X151447171Y-137065123D01*
X151399552Y-137160361D01*
X150726380Y-139573266D02*
X150250190Y-139906600D01*
X150726380Y-140144695D02*
X149726380Y-140144695D01*
X149726380Y-139763742D01*
X149774000Y-139668504D01*
X149821619Y-139620885D01*
X149916857Y-139573266D01*
X150059714Y-139573266D01*
X150154952Y-139620885D01*
X150202571Y-139668504D01*
X150250190Y-139763742D01*
X150250190Y-140144695D01*
X149726380Y-139239933D02*
X149726380Y-138573266D01*
X150726380Y-139001838D01*
X149430980Y-137922266D02*
X148954790Y-138255600D01*
X149430980Y-138493695D02*
X148430980Y-138493695D01*
X148430980Y-138112742D01*
X148478600Y-138017504D01*
X148526219Y-137969885D01*
X148621457Y-137922266D01*
X148764314Y-137922266D01*
X148859552Y-137969885D01*
X148907171Y-138017504D01*
X148954790Y-138112742D01*
X148954790Y-138493695D01*
X148430980Y-137065123D02*
X148430980Y-137255600D01*
X148478600Y-137350838D01*
X148526219Y-137398457D01*
X148669076Y-137493695D01*
X148859552Y-137541314D01*
X149240504Y-137541314D01*
X149335742Y-137493695D01*
X149383361Y-137446076D01*
X149430980Y-137350838D01*
X149430980Y-137160361D01*
X149383361Y-137065123D01*
X149335742Y-137017504D01*
X149240504Y-136969885D01*
X149002409Y-136969885D01*
X148907171Y-137017504D01*
X148859552Y-137065123D01*
X148811933Y-137160361D01*
X148811933Y-137350838D01*
X148859552Y-137446076D01*
X148907171Y-137493695D01*
X149002409Y-137541314D01*
X148186380Y-139573266D02*
X147710190Y-139906600D01*
X148186380Y-140144695D02*
X147186380Y-140144695D01*
X147186380Y-139763742D01*
X147234000Y-139668504D01*
X147281619Y-139620885D01*
X147376857Y-139573266D01*
X147519714Y-139573266D01*
X147614952Y-139620885D01*
X147662571Y-139668504D01*
X147710190Y-139763742D01*
X147710190Y-140144695D01*
X147186380Y-138668504D02*
X147186380Y-139144695D01*
X147662571Y-139192314D01*
X147614952Y-139144695D01*
X147567333Y-139049457D01*
X147567333Y-138811361D01*
X147614952Y-138716123D01*
X147662571Y-138668504D01*
X147757809Y-138620885D01*
X147995904Y-138620885D01*
X148091142Y-138668504D01*
X148138761Y-138716123D01*
X148186380Y-138811361D01*
X148186380Y-139049457D01*
X148138761Y-139144695D01*
X148091142Y-139192314D01*
X146890980Y-137936266D02*
X146414790Y-138269600D01*
X146890980Y-138507695D02*
X145890980Y-138507695D01*
X145890980Y-138126742D01*
X145938600Y-138031504D01*
X145986219Y-137983885D01*
X146081457Y-137936266D01*
X146224314Y-137936266D01*
X146319552Y-137983885D01*
X146367171Y-138031504D01*
X146414790Y-138126742D01*
X146414790Y-138507695D01*
X146224314Y-137079123D02*
X146890980Y-137079123D01*
X145843361Y-137317219D02*
X146557647Y-137555314D01*
X146557647Y-136936266D01*
X145646380Y-139587266D02*
X145170190Y-139920600D01*
X145646380Y-140158695D02*
X144646380Y-140158695D01*
X144646380Y-139777742D01*
X144694000Y-139682504D01*
X144741619Y-139634885D01*
X144836857Y-139587266D01*
X144979714Y-139587266D01*
X145074952Y-139634885D01*
X145122571Y-139682504D01*
X145170190Y-139777742D01*
X145170190Y-140158695D01*
X144646380Y-139253933D02*
X144646380Y-138634885D01*
X145027333Y-138968219D01*
X145027333Y-138825361D01*
X145074952Y-138730123D01*
X145122571Y-138682504D01*
X145217809Y-138634885D01*
X145455904Y-138634885D01*
X145551142Y-138682504D01*
X145598761Y-138730123D01*
X145646380Y-138825361D01*
X145646380Y-139111076D01*
X145598761Y-139206314D01*
X145551142Y-139253933D01*
X144350980Y-137922266D02*
X143874790Y-138255600D01*
X144350980Y-138493695D02*
X143350980Y-138493695D01*
X143350980Y-138112742D01*
X143398600Y-138017504D01*
X143446219Y-137969885D01*
X143541457Y-137922266D01*
X143684314Y-137922266D01*
X143779552Y-137969885D01*
X143827171Y-138017504D01*
X143874790Y-138112742D01*
X143874790Y-138493695D01*
X143446219Y-137541314D02*
X143398600Y-137493695D01*
X143350980Y-137398457D01*
X143350980Y-137160361D01*
X143398600Y-137065123D01*
X143446219Y-137017504D01*
X143541457Y-136969885D01*
X143636695Y-136969885D01*
X143779552Y-137017504D01*
X144350980Y-137588933D01*
X144350980Y-136969885D01*
X143106380Y-139587266D02*
X142630190Y-139920600D01*
X143106380Y-140158695D02*
X142106380Y-140158695D01*
X142106380Y-139777742D01*
X142154000Y-139682504D01*
X142201619Y-139634885D01*
X142296857Y-139587266D01*
X142439714Y-139587266D01*
X142534952Y-139634885D01*
X142582571Y-139682504D01*
X142630190Y-139777742D01*
X142630190Y-140158695D01*
X143106380Y-138634885D02*
X143106380Y-139206314D01*
X143106380Y-138920600D02*
X142106380Y-138920600D01*
X142249238Y-139015838D01*
X142344476Y-139111076D01*
X142392095Y-139206314D01*
X141810980Y-137922266D02*
X141334790Y-138255600D01*
X141810980Y-138493695D02*
X140810980Y-138493695D01*
X140810980Y-138112742D01*
X140858600Y-138017504D01*
X140906219Y-137969885D01*
X141001457Y-137922266D01*
X141144314Y-137922266D01*
X141239552Y-137969885D01*
X141287171Y-138017504D01*
X141334790Y-138112742D01*
X141334790Y-138493695D01*
X140810980Y-137303219D02*
X140810980Y-137207980D01*
X140858600Y-137112742D01*
X140906219Y-137065123D01*
X141001457Y-137017504D01*
X141191933Y-136969885D01*
X141430028Y-136969885D01*
X141620504Y-137017504D01*
X141715742Y-137065123D01*
X141763361Y-137112742D01*
X141810980Y-137207980D01*
X141810980Y-137303219D01*
X141763361Y-137398457D01*
X141715742Y-137446076D01*
X141620504Y-137493695D01*
X141430028Y-137541314D01*
X141191933Y-137541314D01*
X141001457Y-137493695D01*
X140906219Y-137446076D01*
X140858600Y-137398457D01*
X140810980Y-137303219D01*
X134310380Y-67928904D02*
X133834190Y-68262238D01*
X134310380Y-68500333D02*
X133310380Y-68500333D01*
X133310380Y-68119380D01*
X133358000Y-68024142D01*
X133405619Y-67976523D01*
X133500857Y-67928904D01*
X133643714Y-67928904D01*
X133738952Y-67976523D01*
X133786571Y-68024142D01*
X133834190Y-68119380D01*
X133834190Y-68500333D01*
X134310380Y-67357476D02*
X134262761Y-67452714D01*
X134215142Y-67500333D01*
X134119904Y-67547952D01*
X133834190Y-67547952D01*
X133738952Y-67500333D01*
X133691333Y-67452714D01*
X133643714Y-67357476D01*
X133643714Y-67214619D01*
X133691333Y-67119380D01*
X133738952Y-67071761D01*
X133834190Y-67024142D01*
X134119904Y-67024142D01*
X134215142Y-67071761D01*
X134262761Y-67119380D01*
X134310380Y-67214619D01*
X134310380Y-67357476D01*
X133643714Y-66738428D02*
X133643714Y-66357476D01*
X133310380Y-66595571D02*
X134167523Y-66595571D01*
X134262761Y-66547952D01*
X134310380Y-66452714D01*
X134310380Y-66357476D01*
X133786571Y-66024142D02*
X133786571Y-65690809D01*
X134310380Y-65547952D02*
X134310380Y-66024142D01*
X133310380Y-66024142D01*
X133310380Y-65547952D01*
X133643714Y-65119380D02*
X134310380Y-65119380D01*
X133738952Y-65119380D02*
X133691333Y-65071761D01*
X133643714Y-64976523D01*
X133643714Y-64833666D01*
X133691333Y-64738428D01*
X133786571Y-64690809D01*
X134310380Y-64690809D01*
X134262761Y-63786047D02*
X134310380Y-63881285D01*
X134310380Y-64071761D01*
X134262761Y-64167000D01*
X134215142Y-64214619D01*
X134119904Y-64262238D01*
X133834190Y-64262238D01*
X133738952Y-64214619D01*
X133691333Y-64167000D01*
X133643714Y-64071761D01*
X133643714Y-63881285D01*
X133691333Y-63786047D01*
X120340380Y-66857476D02*
X120340380Y-67333666D01*
X119340380Y-67333666D01*
X120245142Y-65952714D02*
X120292761Y-66000333D01*
X120340380Y-66143190D01*
X120340380Y-66238428D01*
X120292761Y-66381285D01*
X120197523Y-66476523D01*
X120102285Y-66524142D01*
X119911809Y-66571761D01*
X119768952Y-66571761D01*
X119578476Y-66524142D01*
X119483238Y-66476523D01*
X119388000Y-66381285D01*
X119340380Y-66238428D01*
X119340380Y-66143190D01*
X119388000Y-66000333D01*
X119435619Y-65952714D01*
X120340380Y-65524142D02*
X119340380Y-65524142D01*
X119340380Y-65286047D01*
X119388000Y-65143190D01*
X119483238Y-65047952D01*
X119578476Y-65000333D01*
X119768952Y-64952714D01*
X119911809Y-64952714D01*
X120102285Y-65000333D01*
X120197523Y-65047952D01*
X120292761Y-65143190D01*
X120340380Y-65286047D01*
X120340380Y-65524142D01*
X196667380Y-131968619D02*
X195667380Y-131968619D01*
X196000714Y-131492428D02*
X196667380Y-131492428D01*
X196095952Y-131492428D02*
X196048333Y-131444809D01*
X196000714Y-131349571D01*
X196000714Y-131206714D01*
X196048333Y-131111476D01*
X196143571Y-131063857D01*
X196667380Y-131063857D01*
X196000714Y-130587666D02*
X197000714Y-130587666D01*
X196048333Y-130587666D02*
X196000714Y-130492428D01*
X196000714Y-130301952D01*
X196048333Y-130206714D01*
X196095952Y-130159095D01*
X196191190Y-130111476D01*
X196476904Y-130111476D01*
X196572142Y-130159095D01*
X196619761Y-130206714D01*
X196667380Y-130301952D01*
X196667380Y-130492428D01*
X196619761Y-130587666D01*
X196000714Y-129254333D02*
X196667380Y-129254333D01*
X196000714Y-129682904D02*
X196524523Y-129682904D01*
X196619761Y-129635285D01*
X196667380Y-129540047D01*
X196667380Y-129397190D01*
X196619761Y-129301952D01*
X196572142Y-129254333D01*
X196000714Y-128921000D02*
X196000714Y-128540047D01*
X195667380Y-128778142D02*
X196524523Y-128778142D01*
X196619761Y-128730523D01*
X196667380Y-128635285D01*
X196667380Y-128540047D01*
X196619761Y-128254333D02*
X196667380Y-128159095D01*
X196667380Y-127968619D01*
X196619761Y-127873380D01*
X196524523Y-127825761D01*
X196476904Y-127825761D01*
X196381666Y-127873380D01*
X196334047Y-127968619D01*
X196334047Y-128111476D01*
X196286428Y-128206714D01*
X196191190Y-128254333D01*
X196143571Y-128254333D01*
X196048333Y-128206714D01*
X196000714Y-128111476D01*
X196000714Y-127968619D01*
X196048333Y-127873380D01*
X170394380Y-108600571D02*
X170394380Y-108410095D01*
X170442000Y-108314857D01*
X170537238Y-108219619D01*
X170727714Y-108172000D01*
X171061047Y-108172000D01*
X171251523Y-108219619D01*
X171346761Y-108314857D01*
X171394380Y-108410095D01*
X171394380Y-108600571D01*
X171346761Y-108695809D01*
X171251523Y-108791047D01*
X171061047Y-108838666D01*
X170727714Y-108838666D01*
X170537238Y-108791047D01*
X170442000Y-108695809D01*
X170394380Y-108600571D01*
X170727714Y-107314857D02*
X171394380Y-107314857D01*
X170727714Y-107743428D02*
X171251523Y-107743428D01*
X171346761Y-107695809D01*
X171394380Y-107600571D01*
X171394380Y-107457714D01*
X171346761Y-107362476D01*
X171299142Y-107314857D01*
X170727714Y-106981523D02*
X170727714Y-106600571D01*
X170394380Y-106838666D02*
X171251523Y-106838666D01*
X171346761Y-106791047D01*
X171394380Y-106695809D01*
X171394380Y-106600571D01*
X170727714Y-106267238D02*
X171727714Y-106267238D01*
X170775333Y-106267238D02*
X170727714Y-106172000D01*
X170727714Y-105981523D01*
X170775333Y-105886285D01*
X170822952Y-105838666D01*
X170918190Y-105791047D01*
X171203904Y-105791047D01*
X171299142Y-105838666D01*
X171346761Y-105886285D01*
X171394380Y-105981523D01*
X171394380Y-106172000D01*
X171346761Y-106267238D01*
X170727714Y-104933904D02*
X171394380Y-104933904D01*
X170727714Y-105362476D02*
X171251523Y-105362476D01*
X171346761Y-105314857D01*
X171394380Y-105219619D01*
X171394380Y-105076761D01*
X171346761Y-104981523D01*
X171299142Y-104933904D01*
X170727714Y-104600571D02*
X170727714Y-104219619D01*
X170394380Y-104457714D02*
X171251523Y-104457714D01*
X171346761Y-104410095D01*
X171394380Y-104314857D01*
X171394380Y-104219619D01*
X171346761Y-103933904D02*
X171394380Y-103838666D01*
X171394380Y-103648190D01*
X171346761Y-103552952D01*
X171251523Y-103505333D01*
X171203904Y-103505333D01*
X171108666Y-103552952D01*
X171061047Y-103648190D01*
X171061047Y-103791047D01*
X171013428Y-103886285D01*
X170918190Y-103933904D01*
X170870571Y-103933904D01*
X170775333Y-103886285D01*
X170727714Y-103791047D01*
X170727714Y-103648190D01*
X170775333Y-103552952D01*
X135945809Y-113101380D02*
X135945809Y-112101380D01*
X136326761Y-112101380D01*
X136422000Y-112149000D01*
X136469619Y-112196619D01*
X136517238Y-112291857D01*
X136517238Y-112434714D01*
X136469619Y-112529952D01*
X136422000Y-112577571D01*
X136326761Y-112625190D01*
X135945809Y-112625190D01*
X137088666Y-113101380D02*
X136993428Y-113053761D01*
X136945809Y-113006142D01*
X136898190Y-112910904D01*
X136898190Y-112625190D01*
X136945809Y-112529952D01*
X136993428Y-112482333D01*
X137088666Y-112434714D01*
X137231523Y-112434714D01*
X137326761Y-112482333D01*
X137374380Y-112529952D01*
X137422000Y-112625190D01*
X137422000Y-112910904D01*
X137374380Y-113006142D01*
X137326761Y-113053761D01*
X137231523Y-113101380D01*
X137088666Y-113101380D01*
X137755333Y-112434714D02*
X137945809Y-113101380D01*
X138136285Y-112625190D01*
X138326761Y-113101380D01*
X138517238Y-112434714D01*
X139279142Y-113053761D02*
X139183904Y-113101380D01*
X138993428Y-113101380D01*
X138898190Y-113053761D01*
X138850571Y-112958523D01*
X138850571Y-112577571D01*
X138898190Y-112482333D01*
X138993428Y-112434714D01*
X139183904Y-112434714D01*
X139279142Y-112482333D01*
X139326761Y-112577571D01*
X139326761Y-112672809D01*
X138850571Y-112768047D01*
X139755333Y-113101380D02*
X139755333Y-112434714D01*
X139755333Y-112625190D02*
X139802952Y-112529952D01*
X139850571Y-112482333D01*
X139945809Y-112434714D01*
X140041047Y-112434714D01*
X171855428Y-76557142D02*
X171807809Y-76604761D01*
X171664952Y-76652380D01*
X171569714Y-76652380D01*
X171426857Y-76604761D01*
X171331619Y-76509523D01*
X171284000Y-76414285D01*
X171236380Y-76223809D01*
X171236380Y-76080952D01*
X171284000Y-75890476D01*
X171331619Y-75795238D01*
X171426857Y-75700000D01*
X171569714Y-75652380D01*
X171664952Y-75652380D01*
X171807809Y-75700000D01*
X171855428Y-75747619D01*
X172426857Y-76652380D02*
X172331619Y-76604761D01*
X172284000Y-76557142D01*
X172236380Y-76461904D01*
X172236380Y-76176190D01*
X172284000Y-76080952D01*
X172331619Y-76033333D01*
X172426857Y-75985714D01*
X172569714Y-75985714D01*
X172664952Y-76033333D01*
X172712571Y-76080952D01*
X172760190Y-76176190D01*
X172760190Y-76461904D01*
X172712571Y-76557142D01*
X172664952Y-76604761D01*
X172569714Y-76652380D01*
X172426857Y-76652380D01*
X173188761Y-76652380D02*
X173188761Y-75985714D01*
X173188761Y-76080952D02*
X173236380Y-76033333D01*
X173331619Y-75985714D01*
X173474476Y-75985714D01*
X173569714Y-76033333D01*
X173617333Y-76128571D01*
X173617333Y-76652380D01*
X173617333Y-76128571D02*
X173664952Y-76033333D01*
X173760190Y-75985714D01*
X173903047Y-75985714D01*
X173998285Y-76033333D01*
X174045904Y-76128571D01*
X174045904Y-76652380D01*
X174522095Y-76652380D02*
X174522095Y-75985714D01*
X174522095Y-76080952D02*
X174569714Y-76033333D01*
X174664952Y-75985714D01*
X174807809Y-75985714D01*
X174903047Y-76033333D01*
X174950666Y-76128571D01*
X174950666Y-76652380D01*
X174950666Y-76128571D02*
X174998285Y-76033333D01*
X175093523Y-75985714D01*
X175236380Y-75985714D01*
X175331619Y-76033333D01*
X175379238Y-76128571D01*
X175379238Y-76652380D01*
X176284000Y-75985714D02*
X176284000Y-76652380D01*
X175855428Y-75985714D02*
X175855428Y-76509523D01*
X175903047Y-76604761D01*
X175998285Y-76652380D01*
X176141142Y-76652380D01*
X176236380Y-76604761D01*
X176284000Y-76557142D01*
X176760190Y-75985714D02*
X176760190Y-76652380D01*
X176760190Y-76080952D02*
X176807809Y-76033333D01*
X176903047Y-75985714D01*
X177045904Y-75985714D01*
X177141142Y-76033333D01*
X177188761Y-76128571D01*
X177188761Y-76652380D01*
X177664952Y-76652380D02*
X177664952Y-75985714D01*
X177664952Y-75652380D02*
X177617333Y-75700000D01*
X177664952Y-75747619D01*
X177712571Y-75700000D01*
X177664952Y-75652380D01*
X177664952Y-75747619D01*
X178569714Y-76604761D02*
X178474476Y-76652380D01*
X178284000Y-76652380D01*
X178188761Y-76604761D01*
X178141142Y-76557142D01*
X178093523Y-76461904D01*
X178093523Y-76176190D01*
X178141142Y-76080952D01*
X178188761Y-76033333D01*
X178284000Y-75985714D01*
X178474476Y-75985714D01*
X178569714Y-76033333D01*
X179426857Y-76652380D02*
X179426857Y-76128571D01*
X179379238Y-76033333D01*
X179284000Y-75985714D01*
X179093523Y-75985714D01*
X178998285Y-76033333D01*
X179426857Y-76604761D02*
X179331619Y-76652380D01*
X179093523Y-76652380D01*
X178998285Y-76604761D01*
X178950666Y-76509523D01*
X178950666Y-76414285D01*
X178998285Y-76319047D01*
X179093523Y-76271428D01*
X179331619Y-76271428D01*
X179426857Y-76223809D01*
X179760190Y-75985714D02*
X180141142Y-75985714D01*
X179903047Y-75652380D02*
X179903047Y-76509523D01*
X179950666Y-76604761D01*
X180045904Y-76652380D01*
X180141142Y-76652380D01*
X180474476Y-76652380D02*
X180474476Y-75985714D01*
X180474476Y-75652380D02*
X180426857Y-75700000D01*
X180474476Y-75747619D01*
X180522095Y-75700000D01*
X180474476Y-75652380D01*
X180474476Y-75747619D01*
X181093523Y-76652380D02*
X180998285Y-76604761D01*
X180950666Y-76557142D01*
X180903047Y-76461904D01*
X180903047Y-76176190D01*
X180950666Y-76080952D01*
X180998285Y-76033333D01*
X181093523Y-75985714D01*
X181236380Y-75985714D01*
X181331619Y-76033333D01*
X181379238Y-76080952D01*
X181426857Y-76176190D01*
X181426857Y-76461904D01*
X181379238Y-76557142D01*
X181331619Y-76604761D01*
X181236380Y-76652380D01*
X181093523Y-76652380D01*
X181855428Y-75985714D02*
X181855428Y-76652380D01*
X181855428Y-76080952D02*
X181903047Y-76033333D01*
X181998285Y-75985714D01*
X182141142Y-75985714D01*
X182236380Y-76033333D01*
X182284000Y-76128571D01*
X182284000Y-76652380D01*
M02*
